G04 #@! TF.GenerationSoftware,KiCad,Pcbnew,7.0.5*
G04 #@! TF.CreationDate,2023-09-07T16:20:45-04:00*
G04 #@! TF.ProjectId,Hitbox Full Pcb,48697462-6f78-4204-9675-6c6c20506362,rev?*
G04 #@! TF.SameCoordinates,Original*
G04 #@! TF.FileFunction,Legend,Top*
G04 #@! TF.FilePolarity,Positive*
%FSLAX46Y46*%
G04 Gerber Fmt 4.6, Leading zero omitted, Abs format (unit mm)*
G04 Created by KiCad (PCBNEW 7.0.5) date 2023-09-07 16:20:45*
%MOMM*%
%LPD*%
G01*
G04 APERTURE LIST*
%ADD10C,0.150000*%
%ADD11C,0.120000*%
%ADD12C,0.254000*%
%ADD13C,1.750000*%
%ADD14C,3.000000*%
%ADD15C,3.987800*%
%ADD16C,6.400000*%
%ADD17C,1.400000*%
%ADD18O,1.400000X1.400000*%
%ADD19C,2.000000*%
%ADD20C,0.650000*%
%ADD21O,1.000000X2.100000*%
%ADD22O,1.000000X1.600000*%
%ADD23R,0.600000X1.450000*%
%ADD24R,0.300000X1.450000*%
%ADD25C,1.700022*%
%ADD26C,1.499997*%
%ADD27R,1.499997X1.499997*%
%ADD28R,2.000000X2.000000*%
%ADD29C,1.700000*%
%ADD30R,1.700000X1.700000*%
%ADD31C,2.500000*%
G04 APERTURE END LIST*
D10*
X399099524Y-65077319D02*
X399099524Y-64077319D01*
X399099524Y-64077319D02*
X399337619Y-64077319D01*
X399337619Y-64077319D02*
X399480476Y-64124938D01*
X399480476Y-64124938D02*
X399575714Y-64220176D01*
X399575714Y-64220176D02*
X399623333Y-64315414D01*
X399623333Y-64315414D02*
X399670952Y-64505890D01*
X399670952Y-64505890D02*
X399670952Y-64648747D01*
X399670952Y-64648747D02*
X399623333Y-64839223D01*
X399623333Y-64839223D02*
X399575714Y-64934461D01*
X399575714Y-64934461D02*
X399480476Y-65029700D01*
X399480476Y-65029700D02*
X399337619Y-65077319D01*
X399337619Y-65077319D02*
X399099524Y-65077319D01*
X400242381Y-65077319D02*
X400147143Y-65029700D01*
X400147143Y-65029700D02*
X400099524Y-64982080D01*
X400099524Y-64982080D02*
X400051905Y-64886842D01*
X400051905Y-64886842D02*
X400051905Y-64601128D01*
X400051905Y-64601128D02*
X400099524Y-64505890D01*
X400099524Y-64505890D02*
X400147143Y-64458271D01*
X400147143Y-64458271D02*
X400242381Y-64410652D01*
X400242381Y-64410652D02*
X400385238Y-64410652D01*
X400385238Y-64410652D02*
X400480476Y-64458271D01*
X400480476Y-64458271D02*
X400528095Y-64505890D01*
X400528095Y-64505890D02*
X400575714Y-64601128D01*
X400575714Y-64601128D02*
X400575714Y-64886842D01*
X400575714Y-64886842D02*
X400528095Y-64982080D01*
X400528095Y-64982080D02*
X400480476Y-65029700D01*
X400480476Y-65029700D02*
X400385238Y-65077319D01*
X400385238Y-65077319D02*
X400242381Y-65077319D01*
X400909048Y-64410652D02*
X401099524Y-65077319D01*
X401099524Y-65077319D02*
X401290000Y-64601128D01*
X401290000Y-64601128D02*
X401480476Y-65077319D01*
X401480476Y-65077319D02*
X401670952Y-64410652D01*
X402051905Y-64410652D02*
X402051905Y-65077319D01*
X402051905Y-64505890D02*
X402099524Y-64458271D01*
X402099524Y-64458271D02*
X402194762Y-64410652D01*
X402194762Y-64410652D02*
X402337619Y-64410652D01*
X402337619Y-64410652D02*
X402432857Y-64458271D01*
X402432857Y-64458271D02*
X402480476Y-64553509D01*
X402480476Y-64553509D02*
X402480476Y-65077319D01*
X566109523Y-51037319D02*
X565776190Y-50561128D01*
X565538095Y-51037319D02*
X565538095Y-50037319D01*
X565538095Y-50037319D02*
X565919047Y-50037319D01*
X565919047Y-50037319D02*
X566014285Y-50084938D01*
X566014285Y-50084938D02*
X566061904Y-50132557D01*
X566061904Y-50132557D02*
X566109523Y-50227795D01*
X566109523Y-50227795D02*
X566109523Y-50370652D01*
X566109523Y-50370652D02*
X566061904Y-50465890D01*
X566061904Y-50465890D02*
X566014285Y-50513509D01*
X566014285Y-50513509D02*
X565919047Y-50561128D01*
X565919047Y-50561128D02*
X565538095Y-50561128D01*
X566871428Y-50513509D02*
X567014285Y-50561128D01*
X567014285Y-50561128D02*
X567061904Y-50608747D01*
X567061904Y-50608747D02*
X567109523Y-50703985D01*
X567109523Y-50703985D02*
X567109523Y-50846842D01*
X567109523Y-50846842D02*
X567061904Y-50942080D01*
X567061904Y-50942080D02*
X567014285Y-50989700D01*
X567014285Y-50989700D02*
X566919047Y-51037319D01*
X566919047Y-51037319D02*
X566538095Y-51037319D01*
X566538095Y-51037319D02*
X566538095Y-50037319D01*
X566538095Y-50037319D02*
X566871428Y-50037319D01*
X566871428Y-50037319D02*
X566966666Y-50084938D01*
X566966666Y-50084938D02*
X567014285Y-50132557D01*
X567014285Y-50132557D02*
X567061904Y-50227795D01*
X567061904Y-50227795D02*
X567061904Y-50323033D01*
X567061904Y-50323033D02*
X567014285Y-50418271D01*
X567014285Y-50418271D02*
X566966666Y-50465890D01*
X566966666Y-50465890D02*
X566871428Y-50513509D01*
X566871428Y-50513509D02*
X566538095Y-50513509D01*
X502956667Y-67037319D02*
X503623333Y-68037319D01*
X503623333Y-67037319D02*
X502956667Y-68037319D01*
X511633333Y-46854819D02*
X511300000Y-46378628D01*
X511061905Y-46854819D02*
X511061905Y-45854819D01*
X511061905Y-45854819D02*
X511442857Y-45854819D01*
X511442857Y-45854819D02*
X511538095Y-45902438D01*
X511538095Y-45902438D02*
X511585714Y-45950057D01*
X511585714Y-45950057D02*
X511633333Y-46045295D01*
X511633333Y-46045295D02*
X511633333Y-46188152D01*
X511633333Y-46188152D02*
X511585714Y-46283390D01*
X511585714Y-46283390D02*
X511538095Y-46331009D01*
X511538095Y-46331009D02*
X511442857Y-46378628D01*
X511442857Y-46378628D02*
X511061905Y-46378628D01*
X512014286Y-45950057D02*
X512061905Y-45902438D01*
X512061905Y-45902438D02*
X512157143Y-45854819D01*
X512157143Y-45854819D02*
X512395238Y-45854819D01*
X512395238Y-45854819D02*
X512490476Y-45902438D01*
X512490476Y-45902438D02*
X512538095Y-45950057D01*
X512538095Y-45950057D02*
X512585714Y-46045295D01*
X512585714Y-46045295D02*
X512585714Y-46140533D01*
X512585714Y-46140533D02*
X512538095Y-46283390D01*
X512538095Y-46283390D02*
X511966667Y-46854819D01*
X511966667Y-46854819D02*
X512585714Y-46854819D01*
X391521428Y-49077200D02*
X391664285Y-49124819D01*
X391664285Y-49124819D02*
X391902380Y-49124819D01*
X391902380Y-49124819D02*
X391997618Y-49077200D01*
X391997618Y-49077200D02*
X392045237Y-49029580D01*
X392045237Y-49029580D02*
X392092856Y-48934342D01*
X392092856Y-48934342D02*
X392092856Y-48839104D01*
X392092856Y-48839104D02*
X392045237Y-48743866D01*
X392045237Y-48743866D02*
X391997618Y-48696247D01*
X391997618Y-48696247D02*
X391902380Y-48648628D01*
X391902380Y-48648628D02*
X391711904Y-48601009D01*
X391711904Y-48601009D02*
X391616666Y-48553390D01*
X391616666Y-48553390D02*
X391569047Y-48505771D01*
X391569047Y-48505771D02*
X391521428Y-48410533D01*
X391521428Y-48410533D02*
X391521428Y-48315295D01*
X391521428Y-48315295D02*
X391569047Y-48220057D01*
X391569047Y-48220057D02*
X391616666Y-48172438D01*
X391616666Y-48172438D02*
X391711904Y-48124819D01*
X391711904Y-48124819D02*
X391949999Y-48124819D01*
X391949999Y-48124819D02*
X392092856Y-48172438D01*
X392521428Y-49124819D02*
X392521428Y-48124819D01*
X392949999Y-49124819D02*
X392949999Y-48601009D01*
X392949999Y-48601009D02*
X392902380Y-48505771D01*
X392902380Y-48505771D02*
X392807142Y-48458152D01*
X392807142Y-48458152D02*
X392664285Y-48458152D01*
X392664285Y-48458152D02*
X392569047Y-48505771D01*
X392569047Y-48505771D02*
X392521428Y-48553390D01*
X393854761Y-49124819D02*
X393854761Y-48601009D01*
X393854761Y-48601009D02*
X393807142Y-48505771D01*
X393807142Y-48505771D02*
X393711904Y-48458152D01*
X393711904Y-48458152D02*
X393521428Y-48458152D01*
X393521428Y-48458152D02*
X393426190Y-48505771D01*
X393854761Y-49077200D02*
X393759523Y-49124819D01*
X393759523Y-49124819D02*
X393521428Y-49124819D01*
X393521428Y-49124819D02*
X393426190Y-49077200D01*
X393426190Y-49077200D02*
X393378571Y-48981961D01*
X393378571Y-48981961D02*
X393378571Y-48886723D01*
X393378571Y-48886723D02*
X393426190Y-48791485D01*
X393426190Y-48791485D02*
X393521428Y-48743866D01*
X393521428Y-48743866D02*
X393759523Y-48743866D01*
X393759523Y-48743866D02*
X393854761Y-48696247D01*
X394330952Y-49124819D02*
X394330952Y-48458152D01*
X394330952Y-48648628D02*
X394378571Y-48553390D01*
X394378571Y-48553390D02*
X394426190Y-48505771D01*
X394426190Y-48505771D02*
X394521428Y-48458152D01*
X394521428Y-48458152D02*
X394616666Y-48458152D01*
X395330952Y-49077200D02*
X395235714Y-49124819D01*
X395235714Y-49124819D02*
X395045238Y-49124819D01*
X395045238Y-49124819D02*
X394950000Y-49077200D01*
X394950000Y-49077200D02*
X394902381Y-48981961D01*
X394902381Y-48981961D02*
X394902381Y-48601009D01*
X394902381Y-48601009D02*
X394950000Y-48505771D01*
X394950000Y-48505771D02*
X395045238Y-48458152D01*
X395045238Y-48458152D02*
X395235714Y-48458152D01*
X395235714Y-48458152D02*
X395330952Y-48505771D01*
X395330952Y-48505771D02*
X395378571Y-48601009D01*
X395378571Y-48601009D02*
X395378571Y-48696247D01*
X395378571Y-48696247D02*
X394902381Y-48791485D01*
X511383333Y-40454819D02*
X511050000Y-39978628D01*
X510811905Y-40454819D02*
X510811905Y-39454819D01*
X510811905Y-39454819D02*
X511192857Y-39454819D01*
X511192857Y-39454819D02*
X511288095Y-39502438D01*
X511288095Y-39502438D02*
X511335714Y-39550057D01*
X511335714Y-39550057D02*
X511383333Y-39645295D01*
X511383333Y-39645295D02*
X511383333Y-39788152D01*
X511383333Y-39788152D02*
X511335714Y-39883390D01*
X511335714Y-39883390D02*
X511288095Y-39931009D01*
X511288095Y-39931009D02*
X511192857Y-39978628D01*
X511192857Y-39978628D02*
X510811905Y-39978628D01*
X512335714Y-40454819D02*
X511764286Y-40454819D01*
X512050000Y-40454819D02*
X512050000Y-39454819D01*
X512050000Y-39454819D02*
X511954762Y-39597676D01*
X511954762Y-39597676D02*
X511859524Y-39692914D01*
X511859524Y-39692914D02*
X511764286Y-39740533D01*
X498081905Y-102771604D02*
X498558095Y-102771604D01*
X497986667Y-103057319D02*
X498320000Y-102057319D01*
X498320000Y-102057319D02*
X498653333Y-103057319D01*
X605604152Y-159261904D02*
X606270819Y-159261904D01*
X605604152Y-159690475D02*
X606127961Y-159690475D01*
X606127961Y-159690475D02*
X606223200Y-159642856D01*
X606223200Y-159642856D02*
X606270819Y-159547618D01*
X606270819Y-159547618D02*
X606270819Y-159404761D01*
X606270819Y-159404761D02*
X606223200Y-159309523D01*
X606223200Y-159309523D02*
X606175580Y-159261904D01*
X605366057Y-158833332D02*
X605318438Y-158785713D01*
X605318438Y-158785713D02*
X605270819Y-158690475D01*
X605270819Y-158690475D02*
X605270819Y-158452380D01*
X605270819Y-158452380D02*
X605318438Y-158357142D01*
X605318438Y-158357142D02*
X605366057Y-158309523D01*
X605366057Y-158309523D02*
X605461295Y-158261904D01*
X605461295Y-158261904D02*
X605556533Y-158261904D01*
X605556533Y-158261904D02*
X605699390Y-158309523D01*
X605699390Y-158309523D02*
X606270819Y-158880951D01*
X606270819Y-158880951D02*
X606270819Y-158261904D01*
X533310000Y-52521128D02*
X533310000Y-52997319D01*
X532976667Y-51997319D02*
X533310000Y-52521128D01*
X533310000Y-52521128D02*
X533643333Y-51997319D01*
X550335144Y-163662324D02*
X550335144Y-164471847D01*
X550335144Y-164471847D02*
X550382763Y-164567085D01*
X550382763Y-164567085D02*
X550430382Y-164614705D01*
X550430382Y-164614705D02*
X550525620Y-164662324D01*
X550525620Y-164662324D02*
X550716096Y-164662324D01*
X550716096Y-164662324D02*
X550811334Y-164614705D01*
X550811334Y-164614705D02*
X550858953Y-164567085D01*
X550858953Y-164567085D02*
X550906572Y-164471847D01*
X550906572Y-164471847D02*
X550906572Y-163662324D01*
X551906572Y-164662324D02*
X551335144Y-164662324D01*
X551620858Y-164662324D02*
X551620858Y-163662324D01*
X551620858Y-163662324D02*
X551525620Y-163805181D01*
X551525620Y-163805181D02*
X551430382Y-163900419D01*
X551430382Y-163900419D02*
X551335144Y-163948038D01*
X547692286Y-165662324D02*
X547692286Y-164662324D01*
X547692286Y-165043276D02*
X547787524Y-164995657D01*
X547787524Y-164995657D02*
X547978000Y-164995657D01*
X547978000Y-164995657D02*
X548073238Y-165043276D01*
X548073238Y-165043276D02*
X548120857Y-165090895D01*
X548120857Y-165090895D02*
X548168476Y-165186133D01*
X548168476Y-165186133D02*
X548168476Y-165471847D01*
X548168476Y-165471847D02*
X548120857Y-165567085D01*
X548120857Y-165567085D02*
X548073238Y-165614705D01*
X548073238Y-165614705D02*
X547978000Y-165662324D01*
X547978000Y-165662324D02*
X547787524Y-165662324D01*
X547787524Y-165662324D02*
X547692286Y-165614705D01*
X548597048Y-165662324D02*
X548597048Y-164995657D01*
X548597048Y-165186133D02*
X548644667Y-165090895D01*
X548644667Y-165090895D02*
X548692286Y-165043276D01*
X548692286Y-165043276D02*
X548787524Y-164995657D01*
X548787524Y-164995657D02*
X548882762Y-164995657D01*
X549358953Y-165662324D02*
X549263715Y-165614705D01*
X549263715Y-165614705D02*
X549216096Y-165567085D01*
X549216096Y-165567085D02*
X549168477Y-165471847D01*
X549168477Y-165471847D02*
X549168477Y-165186133D01*
X549168477Y-165186133D02*
X549216096Y-165090895D01*
X549216096Y-165090895D02*
X549263715Y-165043276D01*
X549263715Y-165043276D02*
X549358953Y-164995657D01*
X549358953Y-164995657D02*
X549501810Y-164995657D01*
X549501810Y-164995657D02*
X549597048Y-165043276D01*
X549597048Y-165043276D02*
X549644667Y-165090895D01*
X549644667Y-165090895D02*
X549692286Y-165186133D01*
X549692286Y-165186133D02*
X549692286Y-165471847D01*
X549692286Y-165471847D02*
X549644667Y-165567085D01*
X549644667Y-165567085D02*
X549597048Y-165614705D01*
X549597048Y-165614705D02*
X549501810Y-165662324D01*
X549501810Y-165662324D02*
X549358953Y-165662324D01*
X550263715Y-165662324D02*
X550168477Y-165614705D01*
X550168477Y-165614705D02*
X550120858Y-165567085D01*
X550120858Y-165567085D02*
X550073239Y-165471847D01*
X550073239Y-165471847D02*
X550073239Y-165186133D01*
X550073239Y-165186133D02*
X550120858Y-165090895D01*
X550120858Y-165090895D02*
X550168477Y-165043276D01*
X550168477Y-165043276D02*
X550263715Y-164995657D01*
X550263715Y-164995657D02*
X550406572Y-164995657D01*
X550406572Y-164995657D02*
X550501810Y-165043276D01*
X550501810Y-165043276D02*
X550549429Y-165090895D01*
X550549429Y-165090895D02*
X550597048Y-165186133D01*
X550597048Y-165186133D02*
X550597048Y-165471847D01*
X550597048Y-165471847D02*
X550549429Y-165567085D01*
X550549429Y-165567085D02*
X550501810Y-165614705D01*
X550501810Y-165614705D02*
X550406572Y-165662324D01*
X550406572Y-165662324D02*
X550263715Y-165662324D01*
X551025620Y-165662324D02*
X551025620Y-164662324D01*
X551120858Y-165281371D02*
X551406572Y-165662324D01*
X551406572Y-164995657D02*
X551025620Y-165376609D01*
X551597049Y-165757562D02*
X552358953Y-165757562D01*
X553025620Y-164995657D02*
X553025620Y-165662324D01*
X552597049Y-164995657D02*
X552597049Y-165519466D01*
X552597049Y-165519466D02*
X552644668Y-165614705D01*
X552644668Y-165614705D02*
X552739906Y-165662324D01*
X552739906Y-165662324D02*
X552882763Y-165662324D01*
X552882763Y-165662324D02*
X552978001Y-165614705D01*
X552978001Y-165614705D02*
X553025620Y-165567085D01*
X553358954Y-164995657D02*
X553739906Y-164995657D01*
X553501811Y-165662324D02*
X553501811Y-164805181D01*
X553501811Y-164805181D02*
X553549430Y-164709943D01*
X553549430Y-164709943D02*
X553644668Y-164662324D01*
X553644668Y-164662324D02*
X553739906Y-164662324D01*
X554073240Y-165662324D02*
X554073240Y-164662324D01*
X554073240Y-165043276D02*
X554168478Y-164995657D01*
X554168478Y-164995657D02*
X554358954Y-164995657D01*
X554358954Y-164995657D02*
X554454192Y-165043276D01*
X554454192Y-165043276D02*
X554501811Y-165090895D01*
X554501811Y-165090895D02*
X554549430Y-165186133D01*
X554549430Y-165186133D02*
X554549430Y-165471847D01*
X554549430Y-165471847D02*
X554501811Y-165567085D01*
X554501811Y-165567085D02*
X554454192Y-165614705D01*
X554454192Y-165614705D02*
X554358954Y-165662324D01*
X554358954Y-165662324D02*
X554168478Y-165662324D01*
X554168478Y-165662324D02*
X554073240Y-165614705D01*
X383033333Y-49124819D02*
X382700000Y-48648628D01*
X382461905Y-49124819D02*
X382461905Y-48124819D01*
X382461905Y-48124819D02*
X382842857Y-48124819D01*
X382842857Y-48124819D02*
X382938095Y-48172438D01*
X382938095Y-48172438D02*
X382985714Y-48220057D01*
X382985714Y-48220057D02*
X383033333Y-48315295D01*
X383033333Y-48315295D02*
X383033333Y-48458152D01*
X383033333Y-48458152D02*
X382985714Y-48553390D01*
X382985714Y-48553390D02*
X382938095Y-48601009D01*
X382938095Y-48601009D02*
X382842857Y-48648628D01*
X382842857Y-48648628D02*
X382461905Y-48648628D01*
X383414286Y-49077200D02*
X383557143Y-49124819D01*
X383557143Y-49124819D02*
X383795238Y-49124819D01*
X383795238Y-49124819D02*
X383890476Y-49077200D01*
X383890476Y-49077200D02*
X383938095Y-49029580D01*
X383938095Y-49029580D02*
X383985714Y-48934342D01*
X383985714Y-48934342D02*
X383985714Y-48839104D01*
X383985714Y-48839104D02*
X383938095Y-48743866D01*
X383938095Y-48743866D02*
X383890476Y-48696247D01*
X383890476Y-48696247D02*
X383795238Y-48648628D01*
X383795238Y-48648628D02*
X383604762Y-48601009D01*
X383604762Y-48601009D02*
X383509524Y-48553390D01*
X383509524Y-48553390D02*
X383461905Y-48505771D01*
X383461905Y-48505771D02*
X383414286Y-48410533D01*
X383414286Y-48410533D02*
X383414286Y-48315295D01*
X383414286Y-48315295D02*
X383461905Y-48220057D01*
X383461905Y-48220057D02*
X383509524Y-48172438D01*
X383509524Y-48172438D02*
X383604762Y-48124819D01*
X383604762Y-48124819D02*
X383842857Y-48124819D01*
X383842857Y-48124819D02*
X383985714Y-48172438D01*
X384747619Y-48601009D02*
X384890476Y-48648628D01*
X384890476Y-48648628D02*
X384938095Y-48696247D01*
X384938095Y-48696247D02*
X384985714Y-48791485D01*
X384985714Y-48791485D02*
X384985714Y-48934342D01*
X384985714Y-48934342D02*
X384938095Y-49029580D01*
X384938095Y-49029580D02*
X384890476Y-49077200D01*
X384890476Y-49077200D02*
X384795238Y-49124819D01*
X384795238Y-49124819D02*
X384414286Y-49124819D01*
X384414286Y-49124819D02*
X384414286Y-48124819D01*
X384414286Y-48124819D02*
X384747619Y-48124819D01*
X384747619Y-48124819D02*
X384842857Y-48172438D01*
X384842857Y-48172438D02*
X384890476Y-48220057D01*
X384890476Y-48220057D02*
X384938095Y-48315295D01*
X384938095Y-48315295D02*
X384938095Y-48410533D01*
X384938095Y-48410533D02*
X384890476Y-48505771D01*
X384890476Y-48505771D02*
X384842857Y-48553390D01*
X384842857Y-48553390D02*
X384747619Y-48601009D01*
X384747619Y-48601009D02*
X384414286Y-48601009D01*
X597248571Y-92047319D02*
X596772381Y-92047319D01*
X596772381Y-92047319D02*
X596772381Y-91047319D01*
X597439048Y-91047319D02*
X598010476Y-91047319D01*
X597724762Y-92047319D02*
X597724762Y-91047319D01*
X401223809Y-48124819D02*
X401414285Y-48124819D01*
X401414285Y-48124819D02*
X401509523Y-48172438D01*
X401509523Y-48172438D02*
X401604761Y-48267676D01*
X401604761Y-48267676D02*
X401652380Y-48458152D01*
X401652380Y-48458152D02*
X401652380Y-48791485D01*
X401652380Y-48791485D02*
X401604761Y-48981961D01*
X401604761Y-48981961D02*
X401509523Y-49077200D01*
X401509523Y-49077200D02*
X401414285Y-49124819D01*
X401414285Y-49124819D02*
X401223809Y-49124819D01*
X401223809Y-49124819D02*
X401128571Y-49077200D01*
X401128571Y-49077200D02*
X401033333Y-48981961D01*
X401033333Y-48981961D02*
X400985714Y-48791485D01*
X400985714Y-48791485D02*
X400985714Y-48458152D01*
X400985714Y-48458152D02*
X401033333Y-48267676D01*
X401033333Y-48267676D02*
X401128571Y-48172438D01*
X401128571Y-48172438D02*
X401223809Y-48124819D01*
X402080952Y-48458152D02*
X402080952Y-49458152D01*
X402080952Y-48505771D02*
X402176190Y-48458152D01*
X402176190Y-48458152D02*
X402366666Y-48458152D01*
X402366666Y-48458152D02*
X402461904Y-48505771D01*
X402461904Y-48505771D02*
X402509523Y-48553390D01*
X402509523Y-48553390D02*
X402557142Y-48648628D01*
X402557142Y-48648628D02*
X402557142Y-48934342D01*
X402557142Y-48934342D02*
X402509523Y-49029580D01*
X402509523Y-49029580D02*
X402461904Y-49077200D01*
X402461904Y-49077200D02*
X402366666Y-49124819D01*
X402366666Y-49124819D02*
X402176190Y-49124819D01*
X402176190Y-49124819D02*
X402080952Y-49077200D01*
X402842857Y-48458152D02*
X403223809Y-48458152D01*
X402985714Y-48124819D02*
X402985714Y-48981961D01*
X402985714Y-48981961D02*
X403033333Y-49077200D01*
X403033333Y-49077200D02*
X403128571Y-49124819D01*
X403128571Y-49124819D02*
X403223809Y-49124819D01*
X403557143Y-49124819D02*
X403557143Y-48458152D01*
X403557143Y-48124819D02*
X403509524Y-48172438D01*
X403509524Y-48172438D02*
X403557143Y-48220057D01*
X403557143Y-48220057D02*
X403604762Y-48172438D01*
X403604762Y-48172438D02*
X403557143Y-48124819D01*
X403557143Y-48124819D02*
X403557143Y-48220057D01*
X404176190Y-49124819D02*
X404080952Y-49077200D01*
X404080952Y-49077200D02*
X404033333Y-49029580D01*
X404033333Y-49029580D02*
X403985714Y-48934342D01*
X403985714Y-48934342D02*
X403985714Y-48648628D01*
X403985714Y-48648628D02*
X404033333Y-48553390D01*
X404033333Y-48553390D02*
X404080952Y-48505771D01*
X404080952Y-48505771D02*
X404176190Y-48458152D01*
X404176190Y-48458152D02*
X404319047Y-48458152D01*
X404319047Y-48458152D02*
X404414285Y-48505771D01*
X404414285Y-48505771D02*
X404461904Y-48553390D01*
X404461904Y-48553390D02*
X404509523Y-48648628D01*
X404509523Y-48648628D02*
X404509523Y-48934342D01*
X404509523Y-48934342D02*
X404461904Y-49029580D01*
X404461904Y-49029580D02*
X404414285Y-49077200D01*
X404414285Y-49077200D02*
X404319047Y-49124819D01*
X404319047Y-49124819D02*
X404176190Y-49124819D01*
X404938095Y-48458152D02*
X404938095Y-49124819D01*
X404938095Y-48553390D02*
X404985714Y-48505771D01*
X404985714Y-48505771D02*
X405080952Y-48458152D01*
X405080952Y-48458152D02*
X405223809Y-48458152D01*
X405223809Y-48458152D02*
X405319047Y-48505771D01*
X405319047Y-48505771D02*
X405366666Y-48601009D01*
X405366666Y-48601009D02*
X405366666Y-49124819D01*
X425620952Y-81047319D02*
X425287619Y-80571128D01*
X425049524Y-81047319D02*
X425049524Y-80047319D01*
X425049524Y-80047319D02*
X425430476Y-80047319D01*
X425430476Y-80047319D02*
X425525714Y-80094938D01*
X425525714Y-80094938D02*
X425573333Y-80142557D01*
X425573333Y-80142557D02*
X425620952Y-80237795D01*
X425620952Y-80237795D02*
X425620952Y-80380652D01*
X425620952Y-80380652D02*
X425573333Y-80475890D01*
X425573333Y-80475890D02*
X425525714Y-80523509D01*
X425525714Y-80523509D02*
X425430476Y-80571128D01*
X425430476Y-80571128D02*
X425049524Y-80571128D01*
X426049524Y-81047319D02*
X426049524Y-80380652D01*
X426049524Y-80047319D02*
X426001905Y-80094938D01*
X426001905Y-80094938D02*
X426049524Y-80142557D01*
X426049524Y-80142557D02*
X426097143Y-80094938D01*
X426097143Y-80094938D02*
X426049524Y-80047319D01*
X426049524Y-80047319D02*
X426049524Y-80142557D01*
X426954285Y-80380652D02*
X426954285Y-81190176D01*
X426954285Y-81190176D02*
X426906666Y-81285414D01*
X426906666Y-81285414D02*
X426859047Y-81333033D01*
X426859047Y-81333033D02*
X426763809Y-81380652D01*
X426763809Y-81380652D02*
X426620952Y-81380652D01*
X426620952Y-81380652D02*
X426525714Y-81333033D01*
X426954285Y-80999700D02*
X426859047Y-81047319D01*
X426859047Y-81047319D02*
X426668571Y-81047319D01*
X426668571Y-81047319D02*
X426573333Y-80999700D01*
X426573333Y-80999700D02*
X426525714Y-80952080D01*
X426525714Y-80952080D02*
X426478095Y-80856842D01*
X426478095Y-80856842D02*
X426478095Y-80571128D01*
X426478095Y-80571128D02*
X426525714Y-80475890D01*
X426525714Y-80475890D02*
X426573333Y-80428271D01*
X426573333Y-80428271D02*
X426668571Y-80380652D01*
X426668571Y-80380652D02*
X426859047Y-80380652D01*
X426859047Y-80380652D02*
X426954285Y-80428271D01*
X427430476Y-81047319D02*
X427430476Y-80047319D01*
X427859047Y-81047319D02*
X427859047Y-80523509D01*
X427859047Y-80523509D02*
X427811428Y-80428271D01*
X427811428Y-80428271D02*
X427716190Y-80380652D01*
X427716190Y-80380652D02*
X427573333Y-80380652D01*
X427573333Y-80380652D02*
X427478095Y-80428271D01*
X427478095Y-80428271D02*
X427430476Y-80475890D01*
X428192381Y-80380652D02*
X428573333Y-80380652D01*
X428335238Y-80047319D02*
X428335238Y-80904461D01*
X428335238Y-80904461D02*
X428382857Y-80999700D01*
X428382857Y-80999700D02*
X428478095Y-81047319D01*
X428478095Y-81047319D02*
X428573333Y-81047319D01*
X370521428Y-48124819D02*
X371092856Y-48124819D01*
X370807142Y-49124819D02*
X370807142Y-48124819D01*
X371569047Y-49124819D02*
X371473809Y-49077200D01*
X371473809Y-49077200D02*
X371426190Y-49029580D01*
X371426190Y-49029580D02*
X371378571Y-48934342D01*
X371378571Y-48934342D02*
X371378571Y-48648628D01*
X371378571Y-48648628D02*
X371426190Y-48553390D01*
X371426190Y-48553390D02*
X371473809Y-48505771D01*
X371473809Y-48505771D02*
X371569047Y-48458152D01*
X371569047Y-48458152D02*
X371711904Y-48458152D01*
X371711904Y-48458152D02*
X371807142Y-48505771D01*
X371807142Y-48505771D02*
X371854761Y-48553390D01*
X371854761Y-48553390D02*
X371902380Y-48648628D01*
X371902380Y-48648628D02*
X371902380Y-48934342D01*
X371902380Y-48934342D02*
X371854761Y-49029580D01*
X371854761Y-49029580D02*
X371807142Y-49077200D01*
X371807142Y-49077200D02*
X371711904Y-49124819D01*
X371711904Y-49124819D02*
X371569047Y-49124819D01*
X372759523Y-48458152D02*
X372759523Y-49124819D01*
X372330952Y-48458152D02*
X372330952Y-48981961D01*
X372330952Y-48981961D02*
X372378571Y-49077200D01*
X372378571Y-49077200D02*
X372473809Y-49124819D01*
X372473809Y-49124819D02*
X372616666Y-49124819D01*
X372616666Y-49124819D02*
X372711904Y-49077200D01*
X372711904Y-49077200D02*
X372759523Y-49029580D01*
X373664285Y-49077200D02*
X373569047Y-49124819D01*
X373569047Y-49124819D02*
X373378571Y-49124819D01*
X373378571Y-49124819D02*
X373283333Y-49077200D01*
X373283333Y-49077200D02*
X373235714Y-49029580D01*
X373235714Y-49029580D02*
X373188095Y-48934342D01*
X373188095Y-48934342D02*
X373188095Y-48648628D01*
X373188095Y-48648628D02*
X373235714Y-48553390D01*
X373235714Y-48553390D02*
X373283333Y-48505771D01*
X373283333Y-48505771D02*
X373378571Y-48458152D01*
X373378571Y-48458152D02*
X373569047Y-48458152D01*
X373569047Y-48458152D02*
X373664285Y-48505771D01*
X374092857Y-49124819D02*
X374092857Y-48124819D01*
X374521428Y-49124819D02*
X374521428Y-48601009D01*
X374521428Y-48601009D02*
X374473809Y-48505771D01*
X374473809Y-48505771D02*
X374378571Y-48458152D01*
X374378571Y-48458152D02*
X374235714Y-48458152D01*
X374235714Y-48458152D02*
X374140476Y-48505771D01*
X374140476Y-48505771D02*
X374092857Y-48553390D01*
X374997619Y-48458152D02*
X374997619Y-49458152D01*
X374997619Y-48505771D02*
X375092857Y-48458152D01*
X375092857Y-48458152D02*
X375283333Y-48458152D01*
X375283333Y-48458152D02*
X375378571Y-48505771D01*
X375378571Y-48505771D02*
X375426190Y-48553390D01*
X375426190Y-48553390D02*
X375473809Y-48648628D01*
X375473809Y-48648628D02*
X375473809Y-48934342D01*
X375473809Y-48934342D02*
X375426190Y-49029580D01*
X375426190Y-49029580D02*
X375378571Y-49077200D01*
X375378571Y-49077200D02*
X375283333Y-49124819D01*
X375283333Y-49124819D02*
X375092857Y-49124819D01*
X375092857Y-49124819D02*
X374997619Y-49077200D01*
X376330952Y-49124819D02*
X376330952Y-48601009D01*
X376330952Y-48601009D02*
X376283333Y-48505771D01*
X376283333Y-48505771D02*
X376188095Y-48458152D01*
X376188095Y-48458152D02*
X375997619Y-48458152D01*
X375997619Y-48458152D02*
X375902381Y-48505771D01*
X376330952Y-49077200D02*
X376235714Y-49124819D01*
X376235714Y-49124819D02*
X375997619Y-49124819D01*
X375997619Y-49124819D02*
X375902381Y-49077200D01*
X375902381Y-49077200D02*
X375854762Y-48981961D01*
X375854762Y-48981961D02*
X375854762Y-48886723D01*
X375854762Y-48886723D02*
X375902381Y-48791485D01*
X375902381Y-48791485D02*
X375997619Y-48743866D01*
X375997619Y-48743866D02*
X376235714Y-48743866D01*
X376235714Y-48743866D02*
X376330952Y-48696247D01*
X377235714Y-49124819D02*
X377235714Y-48124819D01*
X377235714Y-49077200D02*
X377140476Y-49124819D01*
X377140476Y-49124819D02*
X376950000Y-49124819D01*
X376950000Y-49124819D02*
X376854762Y-49077200D01*
X376854762Y-49077200D02*
X376807143Y-49029580D01*
X376807143Y-49029580D02*
X376759524Y-48934342D01*
X376759524Y-48934342D02*
X376759524Y-48648628D01*
X376759524Y-48648628D02*
X376807143Y-48553390D01*
X376807143Y-48553390D02*
X376854762Y-48505771D01*
X376854762Y-48505771D02*
X376950000Y-48458152D01*
X376950000Y-48458152D02*
X377140476Y-48458152D01*
X377140476Y-48458152D02*
X377235714Y-48505771D01*
X362366667Y-49124819D02*
X362366667Y-48124819D01*
X362366667Y-48601009D02*
X362938095Y-48601009D01*
X362938095Y-49124819D02*
X362938095Y-48124819D01*
X363557143Y-49124819D02*
X363461905Y-49077200D01*
X363461905Y-49077200D02*
X363414286Y-49029580D01*
X363414286Y-49029580D02*
X363366667Y-48934342D01*
X363366667Y-48934342D02*
X363366667Y-48648628D01*
X363366667Y-48648628D02*
X363414286Y-48553390D01*
X363414286Y-48553390D02*
X363461905Y-48505771D01*
X363461905Y-48505771D02*
X363557143Y-48458152D01*
X363557143Y-48458152D02*
X363700000Y-48458152D01*
X363700000Y-48458152D02*
X363795238Y-48505771D01*
X363795238Y-48505771D02*
X363842857Y-48553390D01*
X363842857Y-48553390D02*
X363890476Y-48648628D01*
X363890476Y-48648628D02*
X363890476Y-48934342D01*
X363890476Y-48934342D02*
X363842857Y-49029580D01*
X363842857Y-49029580D02*
X363795238Y-49077200D01*
X363795238Y-49077200D02*
X363700000Y-49124819D01*
X363700000Y-49124819D02*
X363557143Y-49124819D01*
X364319048Y-49124819D02*
X364319048Y-48458152D01*
X364319048Y-48553390D02*
X364366667Y-48505771D01*
X364366667Y-48505771D02*
X364461905Y-48458152D01*
X364461905Y-48458152D02*
X364604762Y-48458152D01*
X364604762Y-48458152D02*
X364700000Y-48505771D01*
X364700000Y-48505771D02*
X364747619Y-48601009D01*
X364747619Y-48601009D02*
X364747619Y-49124819D01*
X364747619Y-48601009D02*
X364795238Y-48505771D01*
X364795238Y-48505771D02*
X364890476Y-48458152D01*
X364890476Y-48458152D02*
X365033333Y-48458152D01*
X365033333Y-48458152D02*
X365128572Y-48505771D01*
X365128572Y-48505771D02*
X365176191Y-48601009D01*
X365176191Y-48601009D02*
X365176191Y-49124819D01*
X366033333Y-49077200D02*
X365938095Y-49124819D01*
X365938095Y-49124819D02*
X365747619Y-49124819D01*
X365747619Y-49124819D02*
X365652381Y-49077200D01*
X365652381Y-49077200D02*
X365604762Y-48981961D01*
X365604762Y-48981961D02*
X365604762Y-48601009D01*
X365604762Y-48601009D02*
X365652381Y-48505771D01*
X365652381Y-48505771D02*
X365747619Y-48458152D01*
X365747619Y-48458152D02*
X365938095Y-48458152D01*
X365938095Y-48458152D02*
X366033333Y-48505771D01*
X366033333Y-48505771D02*
X366080952Y-48601009D01*
X366080952Y-48601009D02*
X366080952Y-48696247D01*
X366080952Y-48696247D02*
X365604762Y-48791485D01*
X599079523Y-54027319D02*
X598603333Y-54027319D01*
X598603333Y-54027319D02*
X598603333Y-53027319D01*
X599746190Y-53503509D02*
X599889047Y-53551128D01*
X599889047Y-53551128D02*
X599936666Y-53598747D01*
X599936666Y-53598747D02*
X599984285Y-53693985D01*
X599984285Y-53693985D02*
X599984285Y-53836842D01*
X599984285Y-53836842D02*
X599936666Y-53932080D01*
X599936666Y-53932080D02*
X599889047Y-53979700D01*
X599889047Y-53979700D02*
X599793809Y-54027319D01*
X599793809Y-54027319D02*
X599412857Y-54027319D01*
X599412857Y-54027319D02*
X599412857Y-53027319D01*
X599412857Y-53027319D02*
X599746190Y-53027319D01*
X599746190Y-53027319D02*
X599841428Y-53074938D01*
X599841428Y-53074938D02*
X599889047Y-53122557D01*
X599889047Y-53122557D02*
X599936666Y-53217795D01*
X599936666Y-53217795D02*
X599936666Y-53313033D01*
X599936666Y-53313033D02*
X599889047Y-53408271D01*
X599889047Y-53408271D02*
X599841428Y-53455890D01*
X599841428Y-53455890D02*
X599746190Y-53503509D01*
X599746190Y-53503509D02*
X599412857Y-53503509D01*
X528361428Y-88563509D02*
X528504285Y-88611128D01*
X528504285Y-88611128D02*
X528551904Y-88658747D01*
X528551904Y-88658747D02*
X528599523Y-88753985D01*
X528599523Y-88753985D02*
X528599523Y-88896842D01*
X528599523Y-88896842D02*
X528551904Y-88992080D01*
X528551904Y-88992080D02*
X528504285Y-89039700D01*
X528504285Y-89039700D02*
X528409047Y-89087319D01*
X528409047Y-89087319D02*
X528028095Y-89087319D01*
X528028095Y-89087319D02*
X528028095Y-88087319D01*
X528028095Y-88087319D02*
X528361428Y-88087319D01*
X528361428Y-88087319D02*
X528456666Y-88134938D01*
X528456666Y-88134938D02*
X528504285Y-88182557D01*
X528504285Y-88182557D02*
X528551904Y-88277795D01*
X528551904Y-88277795D02*
X528551904Y-88373033D01*
X528551904Y-88373033D02*
X528504285Y-88468271D01*
X528504285Y-88468271D02*
X528456666Y-88515890D01*
X528456666Y-88515890D02*
X528361428Y-88563509D01*
X528361428Y-88563509D02*
X528028095Y-88563509D01*
X441081905Y-144057319D02*
X441081905Y-144866842D01*
X441081905Y-144866842D02*
X441129524Y-144962080D01*
X441129524Y-144962080D02*
X441177143Y-145009700D01*
X441177143Y-145009700D02*
X441272381Y-145057319D01*
X441272381Y-145057319D02*
X441462857Y-145057319D01*
X441462857Y-145057319D02*
X441558095Y-145009700D01*
X441558095Y-145009700D02*
X441605714Y-144962080D01*
X441605714Y-144962080D02*
X441653333Y-144866842D01*
X441653333Y-144866842D02*
X441653333Y-144057319D01*
X442129524Y-144390652D02*
X442129524Y-145390652D01*
X442129524Y-144438271D02*
X442224762Y-144390652D01*
X442224762Y-144390652D02*
X442415238Y-144390652D01*
X442415238Y-144390652D02*
X442510476Y-144438271D01*
X442510476Y-144438271D02*
X442558095Y-144485890D01*
X442558095Y-144485890D02*
X442605714Y-144581128D01*
X442605714Y-144581128D02*
X442605714Y-144866842D01*
X442605714Y-144866842D02*
X442558095Y-144962080D01*
X442558095Y-144962080D02*
X442510476Y-145009700D01*
X442510476Y-145009700D02*
X442415238Y-145057319D01*
X442415238Y-145057319D02*
X442224762Y-145057319D01*
X442224762Y-145057319D02*
X442129524Y-145009700D01*
X369909523Y-63654819D02*
X369433333Y-63654819D01*
X369433333Y-63654819D02*
X369433333Y-62654819D01*
X370623809Y-63607200D02*
X370528571Y-63654819D01*
X370528571Y-63654819D02*
X370338095Y-63654819D01*
X370338095Y-63654819D02*
X370242857Y-63607200D01*
X370242857Y-63607200D02*
X370195238Y-63511961D01*
X370195238Y-63511961D02*
X370195238Y-63131009D01*
X370195238Y-63131009D02*
X370242857Y-63035771D01*
X370242857Y-63035771D02*
X370338095Y-62988152D01*
X370338095Y-62988152D02*
X370528571Y-62988152D01*
X370528571Y-62988152D02*
X370623809Y-63035771D01*
X370623809Y-63035771D02*
X370671428Y-63131009D01*
X370671428Y-63131009D02*
X370671428Y-63226247D01*
X370671428Y-63226247D02*
X370195238Y-63321485D01*
X370957143Y-62988152D02*
X371338095Y-62988152D01*
X371100000Y-63654819D02*
X371100000Y-62797676D01*
X371100000Y-62797676D02*
X371147619Y-62702438D01*
X371147619Y-62702438D02*
X371242857Y-62654819D01*
X371242857Y-62654819D02*
X371338095Y-62654819D01*
X371528572Y-62988152D02*
X371909524Y-62988152D01*
X371671429Y-62654819D02*
X371671429Y-63511961D01*
X371671429Y-63511961D02*
X371719048Y-63607200D01*
X371719048Y-63607200D02*
X371814286Y-63654819D01*
X371814286Y-63654819D02*
X371909524Y-63654819D01*
X561208571Y-87037319D02*
X560875238Y-86561128D01*
X560637143Y-87037319D02*
X560637143Y-86037319D01*
X560637143Y-86037319D02*
X561018095Y-86037319D01*
X561018095Y-86037319D02*
X561113333Y-86084938D01*
X561113333Y-86084938D02*
X561160952Y-86132557D01*
X561160952Y-86132557D02*
X561208571Y-86227795D01*
X561208571Y-86227795D02*
X561208571Y-86370652D01*
X561208571Y-86370652D02*
X561160952Y-86465890D01*
X561160952Y-86465890D02*
X561113333Y-86513509D01*
X561113333Y-86513509D02*
X561018095Y-86561128D01*
X561018095Y-86561128D02*
X560637143Y-86561128D01*
X561494286Y-86037319D02*
X562065714Y-86037319D01*
X561780000Y-87037319D02*
X561780000Y-86037319D01*
X340133333Y-87954819D02*
X339657143Y-87954819D01*
X339657143Y-87954819D02*
X339657143Y-86954819D01*
X340419048Y-87907200D02*
X340561905Y-87954819D01*
X340561905Y-87954819D02*
X340800000Y-87954819D01*
X340800000Y-87954819D02*
X340895238Y-87907200D01*
X340895238Y-87907200D02*
X340942857Y-87859580D01*
X340942857Y-87859580D02*
X340990476Y-87764342D01*
X340990476Y-87764342D02*
X340990476Y-87669104D01*
X340990476Y-87669104D02*
X340942857Y-87573866D01*
X340942857Y-87573866D02*
X340895238Y-87526247D01*
X340895238Y-87526247D02*
X340800000Y-87478628D01*
X340800000Y-87478628D02*
X340609524Y-87431009D01*
X340609524Y-87431009D02*
X340514286Y-87383390D01*
X340514286Y-87383390D02*
X340466667Y-87335771D01*
X340466667Y-87335771D02*
X340419048Y-87240533D01*
X340419048Y-87240533D02*
X340419048Y-87145295D01*
X340419048Y-87145295D02*
X340466667Y-87050057D01*
X340466667Y-87050057D02*
X340514286Y-87002438D01*
X340514286Y-87002438D02*
X340609524Y-86954819D01*
X340609524Y-86954819D02*
X340847619Y-86954819D01*
X340847619Y-86954819D02*
X340990476Y-87002438D01*
X341752381Y-87431009D02*
X341895238Y-87478628D01*
X341895238Y-87478628D02*
X341942857Y-87526247D01*
X341942857Y-87526247D02*
X341990476Y-87621485D01*
X341990476Y-87621485D02*
X341990476Y-87764342D01*
X341990476Y-87764342D02*
X341942857Y-87859580D01*
X341942857Y-87859580D02*
X341895238Y-87907200D01*
X341895238Y-87907200D02*
X341800000Y-87954819D01*
X341800000Y-87954819D02*
X341419048Y-87954819D01*
X341419048Y-87954819D02*
X341419048Y-86954819D01*
X341419048Y-86954819D02*
X341752381Y-86954819D01*
X341752381Y-86954819D02*
X341847619Y-87002438D01*
X341847619Y-87002438D02*
X341895238Y-87050057D01*
X341895238Y-87050057D02*
X341942857Y-87145295D01*
X341942857Y-87145295D02*
X341942857Y-87240533D01*
X341942857Y-87240533D02*
X341895238Y-87335771D01*
X341895238Y-87335771D02*
X341847619Y-87383390D01*
X341847619Y-87383390D02*
X341752381Y-87431009D01*
X341752381Y-87431009D02*
X341419048Y-87431009D01*
D11*
X508680000Y-44420000D02*
X509630000Y-44420000D01*
X509630000Y-43500000D02*
X509630000Y-45340000D01*
X509630000Y-45340000D02*
X513470000Y-45340000D01*
X513470000Y-43500000D02*
X509630000Y-43500000D01*
X513470000Y-45340000D02*
X513470000Y-43500000D01*
X514420000Y-44420000D02*
X513470000Y-44420000D01*
X389450000Y-43470000D02*
X389450000Y-44970000D01*
X390700000Y-47470000D02*
X395200000Y-47470000D01*
X395200000Y-40970000D02*
X390700000Y-40970000D01*
X396450000Y-44970000D02*
X396450000Y-43470000D01*
X508680000Y-41920000D02*
X509630000Y-41920000D01*
X509630000Y-41000000D02*
X509630000Y-42840000D01*
X509630000Y-42840000D02*
X513470000Y-42840000D01*
X513470000Y-41000000D02*
X509630000Y-41000000D01*
X513470000Y-42840000D02*
X513470000Y-41000000D01*
X514420000Y-41920000D02*
X513470000Y-41920000D01*
X474410000Y-35920000D02*
X474410000Y-33920000D01*
X474410000Y-32020000D02*
X474410000Y-30120000D01*
X474410000Y-30120000D02*
X465010000Y-30120000D01*
X465010000Y-35920000D02*
X465010000Y-33920000D01*
X465010000Y-32020000D02*
X465010000Y-30120000D01*
D12*
X602511003Y-149261996D02*
X618010997Y-149261996D01*
X620010993Y-151261992D02*
X620010993Y-168262008D01*
X600511007Y-168262008D02*
X600511007Y-151261992D01*
X602511003Y-170262004D02*
X618010997Y-170262004D01*
X620010993Y-151261992D02*
G75*
G03*
X618010997Y-149261996I-1999995J1D01*
G01*
X602511003Y-149261996D02*
G75*
G03*
X600511007Y-151261992I-1J-1999995D01*
G01*
X618010997Y-170261993D02*
G75*
G03*
X620010993Y-168262008I3J1999993D01*
G01*
X600511006Y-168262008D02*
G75*
G03*
X602511003Y-170262004I1999984J-12D01*
G01*
D11*
X379700000Y-43470000D02*
X379700000Y-44970000D01*
X380950000Y-47470000D02*
X385450000Y-47470000D01*
X385450000Y-40970000D02*
X380950000Y-40970000D01*
X386700000Y-44970000D02*
X386700000Y-43470000D01*
X399200000Y-43470000D02*
X399200000Y-44970000D01*
X400450000Y-47470000D02*
X404950000Y-47470000D01*
X404950000Y-40970000D02*
X400450000Y-40970000D01*
X406200000Y-44970000D02*
X406200000Y-43470000D01*
X369950000Y-43470000D02*
X369950000Y-44970000D01*
X371200000Y-47470000D02*
X375700000Y-47470000D01*
X375700000Y-40970000D02*
X371200000Y-40970000D01*
X376950000Y-44970000D02*
X376950000Y-43470000D01*
X360200000Y-43470000D02*
X360200000Y-44970000D01*
X361450000Y-47470000D02*
X365950000Y-47470000D01*
X365950000Y-40970000D02*
X361450000Y-40970000D01*
X367200000Y-44970000D02*
X367200000Y-43470000D01*
%LPC*%
D13*
X395710000Y-77560000D03*
D14*
X396980000Y-75020000D03*
D15*
X400790000Y-77560000D03*
D14*
X403330000Y-72480000D03*
D13*
X405870000Y-77560000D03*
D16*
X544640000Y-84510000D03*
X440830000Y-123280000D03*
D13*
X561220000Y-63520000D03*
D14*
X562490000Y-60980000D03*
D15*
X566300000Y-63520000D03*
D14*
X568840000Y-58440000D03*
D13*
X571380000Y-63520000D03*
X498210000Y-79520000D03*
D14*
X499480000Y-76980000D03*
D15*
X503290000Y-79520000D03*
D14*
X505830000Y-74440000D03*
D13*
X508370000Y-79520000D03*
D16*
X627410000Y-42550000D03*
D17*
X507740000Y-44420000D03*
D18*
X515360000Y-44420000D03*
D19*
X389700000Y-41970000D03*
X396200000Y-41970000D03*
X389700000Y-46470000D03*
X396200000Y-46470000D03*
D17*
X507740000Y-41920000D03*
D18*
X515360000Y-41920000D03*
D13*
X493240000Y-115540000D03*
D14*
X494510000Y-113000000D03*
D15*
X498320000Y-115540000D03*
D14*
X500860000Y-110460000D03*
D13*
X503400000Y-115540000D03*
D20*
X472600000Y-36620000D03*
X466820000Y-36620000D03*
D21*
X474030000Y-37150000D03*
D22*
X474030000Y-32970000D03*
D21*
X465390000Y-37150000D03*
D22*
X465390000Y-32970000D03*
D23*
X472960000Y-38065000D03*
X472160000Y-38065000D03*
D24*
X470960000Y-38065000D03*
X469960000Y-38065000D03*
X469460000Y-38065000D03*
X468460000Y-38065000D03*
D23*
X467260000Y-38065000D03*
X466460000Y-38065000D03*
X466460000Y-38065000D03*
X467260000Y-38065000D03*
D24*
X467960000Y-38065000D03*
X468960000Y-38065000D03*
X470460000Y-38065000D03*
X471460000Y-38065000D03*
D23*
X472160000Y-38065000D03*
X472960000Y-38065000D03*
D25*
X603061878Y-152309894D03*
D26*
X614004198Y-151509032D03*
D27*
X614004198Y-153509028D03*
D26*
X614004198Y-158009654D03*
X614004198Y-160009650D03*
X614004198Y-162009646D03*
X614004198Y-164009642D03*
X614004198Y-166009638D03*
D27*
X614004198Y-168009634D03*
D13*
X528230000Y-65480000D03*
D14*
X529500000Y-62940000D03*
D15*
X533310000Y-65480000D03*
D14*
X535850000Y-60400000D03*
D13*
X538390000Y-65480000D03*
D16*
X327760000Y-42540000D03*
D19*
X566077049Y-144497505D03*
X566077049Y-141957505D03*
X563547049Y-144497505D03*
X563547049Y-141957505D03*
X561007049Y-144507505D03*
X561007049Y-141957505D03*
X558467049Y-144494185D03*
X558467049Y-141957505D03*
X555927049Y-144497505D03*
X555927049Y-141957505D03*
X553387049Y-144497505D03*
X553387049Y-141957505D03*
X550847049Y-144497505D03*
X550847049Y-141957505D03*
X548307049Y-144497505D03*
X548307049Y-141957505D03*
X545767049Y-144497505D03*
X545767049Y-141957505D03*
D28*
X543227049Y-144497505D03*
D19*
X543227049Y-141957505D03*
X570067049Y-152097505D03*
X570067049Y-154637505D03*
X570067049Y-157177505D03*
D28*
X570067049Y-159717505D03*
D29*
X570067049Y-164693505D03*
X570067049Y-166721505D03*
X570067049Y-168721505D03*
X570067049Y-170721505D03*
X570067049Y-172721505D03*
D30*
X520973049Y-143901505D03*
D29*
X518973049Y-143901505D03*
X516973049Y-143901505D03*
X514973049Y-143901505D03*
D19*
X507436049Y-147105505D03*
X504896049Y-147105505D03*
X502356049Y-147105505D03*
D28*
X499816049Y-147105505D03*
D31*
X565083049Y-180162505D03*
X561493049Y-180162505D03*
X557993049Y-180162505D03*
X554493049Y-180162505D03*
X550993049Y-180162505D03*
X547493049Y-180162505D03*
X543993049Y-180162505D03*
X540493049Y-180162505D03*
X536993049Y-180162505D03*
X533493049Y-180162505D03*
X529993049Y-180162505D03*
X526493049Y-180162505D03*
X522993049Y-180162505D03*
X519493049Y-180162505D03*
X515993049Y-180162505D03*
X512493049Y-180162505D03*
X508993049Y-180162505D03*
X505493049Y-180162505D03*
X501993049Y-180162505D03*
X498493049Y-180162505D03*
D19*
X379950000Y-41970000D03*
X386450000Y-41970000D03*
X379950000Y-46470000D03*
X386450000Y-46470000D03*
D13*
X592240000Y-104530000D03*
D14*
X593510000Y-101990000D03*
D15*
X597320000Y-104530000D03*
D14*
X599860000Y-99450000D03*
D13*
X602400000Y-104530000D03*
D19*
X399450000Y-41970000D03*
X405950000Y-41970000D03*
X399450000Y-46470000D03*
X405950000Y-46470000D03*
D16*
X627440000Y-192270000D03*
D13*
X421660000Y-93530000D03*
D14*
X422930000Y-90990000D03*
D15*
X426740000Y-93530000D03*
D14*
X429280000Y-88450000D03*
D13*
X431820000Y-93530000D03*
D19*
X370200000Y-41970000D03*
X376700000Y-41970000D03*
X370200000Y-46470000D03*
X376700000Y-46470000D03*
X360450000Y-41970000D03*
X366950000Y-41970000D03*
X360450000Y-46470000D03*
X366950000Y-46470000D03*
D16*
X436620000Y-55740000D03*
D13*
X594190000Y-66510000D03*
D14*
X595460000Y-63970000D03*
D15*
X599270000Y-66510000D03*
D14*
X601810000Y-61430000D03*
D13*
X604350000Y-66510000D03*
X523210000Y-101570000D03*
D14*
X524480000Y-99030000D03*
D15*
X528290000Y-101570000D03*
D14*
X530830000Y-96490000D03*
D13*
X533370000Y-101570000D03*
X436740000Y-157540000D03*
D14*
X438010000Y-155000000D03*
D15*
X441820000Y-157540000D03*
D14*
X444360000Y-152460000D03*
D13*
X446900000Y-157540000D03*
X365690000Y-77520000D03*
D14*
X366960000Y-74980000D03*
D15*
X370770000Y-77520000D03*
D14*
X373310000Y-72440000D03*
D13*
X375850000Y-77520000D03*
D16*
X327750000Y-192240000D03*
X465570000Y-192260000D03*
D13*
X556200000Y-99520000D03*
D14*
X557470000Y-96980000D03*
D15*
X561280000Y-99520000D03*
D14*
X563820000Y-94440000D03*
D13*
X566360000Y-99520000D03*
X335760000Y-101740000D03*
D14*
X337030000Y-99200000D03*
D15*
X340840000Y-101740000D03*
D14*
X343380000Y-96660000D03*
D13*
X345920000Y-101740000D03*
%LPD*%
M02*
