G04 #@! TF.GenerationSoftware,KiCad,Pcbnew,7.0.5*
G04 #@! TF.CreationDate,2023-09-04T11:51:10-04:00*
G04 #@! TF.ProjectId,Hitbox Full Pcb,48697462-6f78-4204-9675-6c6c20506362,rev?*
G04 #@! TF.SameCoordinates,Original*
G04 #@! TF.FileFunction,Soldermask,Bot*
G04 #@! TF.FilePolarity,Negative*
%FSLAX46Y46*%
G04 Gerber Fmt 4.6, Leading zero omitted, Abs format (unit mm)*
G04 Created by KiCad (PCBNEW 7.0.5) date 2023-09-04 11:51:10*
%MOMM*%
%LPD*%
G01*
G04 APERTURE LIST*
%ADD10C,1.750000*%
%ADD11C,3.000000*%
%ADD12C,3.987800*%
%ADD13R,2.550000X2.500000*%
%ADD14C,6.400000*%
%ADD15C,1.400000*%
%ADD16O,1.400000X1.400000*%
%ADD17C,2.000000*%
%ADD18C,0.650000*%
%ADD19O,1.000000X2.100000*%
%ADD20O,1.000000X1.600000*%
%ADD21C,1.700022*%
%ADD22C,1.499997*%
%ADD23R,1.499997X1.499997*%
%ADD24R,2.000000X2.000000*%
%ADD25C,1.700000*%
%ADD26R,1.700000X1.700000*%
%ADD27C,2.500000*%
G04 APERTURE END LIST*
D10*
X395710000Y-77560000D03*
D11*
X396980000Y-75020000D03*
D12*
X400790000Y-77560000D03*
D11*
X403330000Y-72480000D03*
D10*
X405870000Y-77560000D03*
D13*
X393705000Y-75020000D03*
X406632000Y-72480000D03*
D14*
X544640000Y-84510000D03*
X440830000Y-123280000D03*
D10*
X561220000Y-63520000D03*
D11*
X562490000Y-60980000D03*
D12*
X566300000Y-63520000D03*
D11*
X568840000Y-58440000D03*
D10*
X571380000Y-63520000D03*
D13*
X559215000Y-60980000D03*
X572142000Y-58440000D03*
D10*
X498210000Y-79520000D03*
D11*
X499480000Y-76980000D03*
D12*
X503290000Y-79520000D03*
D11*
X505830000Y-74440000D03*
D10*
X508370000Y-79520000D03*
D13*
X496205000Y-76980000D03*
X509132000Y-74440000D03*
D14*
X627410000Y-42550000D03*
D15*
X507740000Y-44420000D03*
D16*
X515360000Y-44420000D03*
D17*
X389700000Y-41970000D03*
X396200000Y-41970000D03*
X389700000Y-46470000D03*
X396200000Y-46470000D03*
D15*
X507740000Y-41920000D03*
D16*
X515360000Y-41920000D03*
D10*
X493240000Y-115540000D03*
D11*
X494510000Y-113000000D03*
D12*
X498320000Y-115540000D03*
D11*
X500860000Y-110460000D03*
D10*
X503400000Y-115540000D03*
D13*
X491235000Y-113000000D03*
X504162000Y-110460000D03*
D18*
X472600000Y-36620000D03*
X466820000Y-36620000D03*
D19*
X474030000Y-37150000D03*
D20*
X474030000Y-32970000D03*
D19*
X465390000Y-37150000D03*
D20*
X465390000Y-32970000D03*
D21*
X603061878Y-152309894D03*
D22*
X614004198Y-151509032D03*
D23*
X614004198Y-153509028D03*
D22*
X614004198Y-158009654D03*
X614004198Y-160009650D03*
X614004198Y-162009646D03*
X614004198Y-164009642D03*
X614004198Y-166009638D03*
D23*
X614004198Y-168009634D03*
D10*
X528230000Y-65480000D03*
D11*
X529500000Y-62940000D03*
D12*
X533310000Y-65480000D03*
D11*
X535850000Y-60400000D03*
D10*
X538390000Y-65480000D03*
D13*
X526225000Y-62940000D03*
X539152000Y-60400000D03*
D14*
X327760000Y-42540000D03*
D17*
X566077049Y-144497505D03*
X566077049Y-141957505D03*
X563547049Y-144497505D03*
X563547049Y-141957505D03*
X561007049Y-144507505D03*
X561007049Y-141957505D03*
X558467049Y-144494185D03*
X558467049Y-141957505D03*
X555927049Y-144497505D03*
X555927049Y-141957505D03*
X553387049Y-144497505D03*
X553387049Y-141957505D03*
X550847049Y-144497505D03*
X550847049Y-141957505D03*
X548307049Y-144497505D03*
X548307049Y-141957505D03*
X545767049Y-144497505D03*
X545767049Y-141957505D03*
D24*
X543227049Y-144497505D03*
D17*
X543227049Y-141957505D03*
X570067049Y-152097505D03*
X570067049Y-154637505D03*
X570067049Y-157177505D03*
D24*
X570067049Y-159717505D03*
D25*
X570067049Y-164693505D03*
X570067049Y-166721505D03*
X570067049Y-168721505D03*
X570067049Y-170721505D03*
X570067049Y-172721505D03*
D26*
X520973049Y-143901505D03*
D25*
X518973049Y-143901505D03*
X516973049Y-143901505D03*
X514973049Y-143901505D03*
D17*
X507436049Y-147105505D03*
X504896049Y-147105505D03*
X502356049Y-147105505D03*
D24*
X499816049Y-147105505D03*
D27*
X565083049Y-180162505D03*
X561493049Y-180162505D03*
X557993049Y-180162505D03*
X554493049Y-180162505D03*
X550993049Y-180162505D03*
X547493049Y-180162505D03*
X543993049Y-180162505D03*
X540493049Y-180162505D03*
X536993049Y-180162505D03*
X533493049Y-180162505D03*
X529993049Y-180162505D03*
X526493049Y-180162505D03*
X522993049Y-180162505D03*
X519493049Y-180162505D03*
X515993049Y-180162505D03*
X512493049Y-180162505D03*
X508993049Y-180162505D03*
X505493049Y-180162505D03*
X501993049Y-180162505D03*
X498493049Y-180162505D03*
D17*
X379950000Y-41970000D03*
X386450000Y-41970000D03*
X379950000Y-46470000D03*
X386450000Y-46470000D03*
D10*
X592240000Y-104530000D03*
D11*
X593510000Y-101990000D03*
D12*
X597320000Y-104530000D03*
D11*
X599860000Y-99450000D03*
D10*
X602400000Y-104530000D03*
D13*
X590235000Y-101990000D03*
X603162000Y-99450000D03*
D17*
X399450000Y-41970000D03*
X405950000Y-41970000D03*
X399450000Y-46470000D03*
X405950000Y-46470000D03*
D14*
X627440000Y-192270000D03*
D10*
X421660000Y-93530000D03*
D11*
X422930000Y-90990000D03*
D12*
X426740000Y-93530000D03*
D11*
X429280000Y-88450000D03*
D10*
X431820000Y-93530000D03*
D13*
X419655000Y-90990000D03*
X432582000Y-88450000D03*
D17*
X370200000Y-41970000D03*
X376700000Y-41970000D03*
X370200000Y-46470000D03*
X376700000Y-46470000D03*
X360450000Y-41970000D03*
X366950000Y-41970000D03*
X360450000Y-46470000D03*
X366950000Y-46470000D03*
D14*
X436620000Y-55740000D03*
D10*
X594190000Y-66510000D03*
D11*
X595460000Y-63970000D03*
D12*
X599270000Y-66510000D03*
D11*
X601810000Y-61430000D03*
D10*
X604350000Y-66510000D03*
D13*
X592185000Y-63970000D03*
X605112000Y-61430000D03*
D10*
X523210000Y-101570000D03*
D11*
X524480000Y-99030000D03*
D12*
X528290000Y-101570000D03*
D11*
X530830000Y-96490000D03*
D10*
X533370000Y-101570000D03*
D13*
X521205000Y-99030000D03*
X534132000Y-96490000D03*
D10*
X436740000Y-157540000D03*
D11*
X438010000Y-155000000D03*
D12*
X441820000Y-157540000D03*
D11*
X444360000Y-152460000D03*
D10*
X446900000Y-157540000D03*
D13*
X434735000Y-155000000D03*
X447662000Y-152460000D03*
D10*
X365690000Y-77520000D03*
D11*
X366960000Y-74980000D03*
D12*
X370770000Y-77520000D03*
D11*
X373310000Y-72440000D03*
D10*
X375850000Y-77520000D03*
D13*
X363685000Y-74980000D03*
X376612000Y-72440000D03*
D14*
X327750000Y-192240000D03*
X465570000Y-192260000D03*
D10*
X556200000Y-99520000D03*
D11*
X557470000Y-96980000D03*
D12*
X561280000Y-99520000D03*
D11*
X563820000Y-94440000D03*
D10*
X566360000Y-99520000D03*
D13*
X554195000Y-96980000D03*
X567122000Y-94440000D03*
D10*
X335760000Y-101740000D03*
D11*
X337030000Y-99200000D03*
D12*
X340840000Y-101740000D03*
D11*
X343380000Y-96660000D03*
D10*
X345920000Y-101740000D03*
D13*
X333755000Y-99200000D03*
X346682000Y-96660000D03*
M02*
