G04 #@! TF.GenerationSoftware,KiCad,Pcbnew,7.0.5*
G04 #@! TF.CreationDate,2023-09-07T16:20:45-04:00*
G04 #@! TF.ProjectId,Hitbox Full Pcb,48697462-6f78-4204-9675-6c6c20506362,rev?*
G04 #@! TF.SameCoordinates,Original*
G04 #@! TF.FileFunction,Legend,Bot*
G04 #@! TF.FilePolarity,Positive*
%FSLAX46Y46*%
G04 Gerber Fmt 4.6, Leading zero omitted, Abs format (unit mm)*
G04 Created by KiCad (PCBNEW 7.0.5) date 2023-09-07 16:20:45*
%MOMM*%
%LPD*%
G01*
G04 APERTURE LIST*
%ADD10C,0.150000*%
%ADD11C,1.750000*%
%ADD12C,3.000000*%
%ADD13C,3.987800*%
%ADD14R,2.550000X2.500000*%
%ADD15C,6.400000*%
%ADD16C,1.400000*%
%ADD17O,1.400000X1.400000*%
%ADD18C,2.000000*%
%ADD19C,0.650000*%
%ADD20O,1.000000X2.100000*%
%ADD21O,1.000000X1.600000*%
%ADD22C,1.700022*%
%ADD23C,1.499997*%
%ADD24R,1.499997X1.499997*%
%ADD25R,2.000000X2.000000*%
%ADD26C,1.700000*%
%ADD27R,1.700000X1.700000*%
%ADD28C,2.500000*%
G04 APERTURE END LIST*
D10*
X402075713Y-81062819D02*
X402075713Y-80062819D01*
X402075713Y-80062819D02*
X401742380Y-80777104D01*
X401742380Y-80777104D02*
X401409047Y-80062819D01*
X401409047Y-80062819D02*
X401409047Y-81062819D01*
X401028094Y-80062819D02*
X400361428Y-81062819D01*
X400361428Y-80062819D02*
X401028094Y-81062819D01*
X400075713Y-80062819D02*
X399456666Y-80062819D01*
X399456666Y-80062819D02*
X399789999Y-80443771D01*
X399789999Y-80443771D02*
X399647142Y-80443771D01*
X399647142Y-80443771D02*
X399551904Y-80491390D01*
X399551904Y-80491390D02*
X399504285Y-80539009D01*
X399504285Y-80539009D02*
X399456666Y-80634247D01*
X399456666Y-80634247D02*
X399456666Y-80872342D01*
X399456666Y-80872342D02*
X399504285Y-80967580D01*
X399504285Y-80967580D02*
X399551904Y-81015200D01*
X399551904Y-81015200D02*
X399647142Y-81062819D01*
X399647142Y-81062819D02*
X399932856Y-81062819D01*
X399932856Y-81062819D02*
X400028094Y-81015200D01*
X400028094Y-81015200D02*
X400075713Y-80967580D01*
X567585713Y-67022819D02*
X567585713Y-66022819D01*
X567585713Y-66022819D02*
X567252380Y-66737104D01*
X567252380Y-66737104D02*
X566919047Y-66022819D01*
X566919047Y-66022819D02*
X566919047Y-67022819D01*
X566538094Y-66022819D02*
X565871428Y-67022819D01*
X565871428Y-66022819D02*
X566538094Y-67022819D01*
X565347618Y-66451390D02*
X565442856Y-66403771D01*
X565442856Y-66403771D02*
X565490475Y-66356152D01*
X565490475Y-66356152D02*
X565538094Y-66260914D01*
X565538094Y-66260914D02*
X565538094Y-66213295D01*
X565538094Y-66213295D02*
X565490475Y-66118057D01*
X565490475Y-66118057D02*
X565442856Y-66070438D01*
X565442856Y-66070438D02*
X565347618Y-66022819D01*
X565347618Y-66022819D02*
X565157142Y-66022819D01*
X565157142Y-66022819D02*
X565061904Y-66070438D01*
X565061904Y-66070438D02*
X565014285Y-66118057D01*
X565014285Y-66118057D02*
X564966666Y-66213295D01*
X564966666Y-66213295D02*
X564966666Y-66260914D01*
X564966666Y-66260914D02*
X565014285Y-66356152D01*
X565014285Y-66356152D02*
X565061904Y-66403771D01*
X565061904Y-66403771D02*
X565157142Y-66451390D01*
X565157142Y-66451390D02*
X565347618Y-66451390D01*
X565347618Y-66451390D02*
X565442856Y-66499009D01*
X565442856Y-66499009D02*
X565490475Y-66546628D01*
X565490475Y-66546628D02*
X565538094Y-66641866D01*
X565538094Y-66641866D02*
X565538094Y-66832342D01*
X565538094Y-66832342D02*
X565490475Y-66927580D01*
X565490475Y-66927580D02*
X565442856Y-66975200D01*
X565442856Y-66975200D02*
X565347618Y-67022819D01*
X565347618Y-67022819D02*
X565157142Y-67022819D01*
X565157142Y-67022819D02*
X565061904Y-66975200D01*
X565061904Y-66975200D02*
X565014285Y-66927580D01*
X565014285Y-66927580D02*
X564966666Y-66832342D01*
X564966666Y-66832342D02*
X564966666Y-66641866D01*
X564966666Y-66641866D02*
X565014285Y-66546628D01*
X565014285Y-66546628D02*
X565061904Y-66499009D01*
X565061904Y-66499009D02*
X565157142Y-66451390D01*
X504575713Y-83022819D02*
X504575713Y-82022819D01*
X504575713Y-82022819D02*
X504242380Y-82737104D01*
X504242380Y-82737104D02*
X503909047Y-82022819D01*
X503909047Y-82022819D02*
X503909047Y-83022819D01*
X503528094Y-82022819D02*
X502861428Y-83022819D01*
X502861428Y-82022819D02*
X503528094Y-83022819D01*
X502051904Y-82022819D02*
X502242380Y-82022819D01*
X502242380Y-82022819D02*
X502337618Y-82070438D01*
X502337618Y-82070438D02*
X502385237Y-82118057D01*
X502385237Y-82118057D02*
X502480475Y-82260914D01*
X502480475Y-82260914D02*
X502528094Y-82451390D01*
X502528094Y-82451390D02*
X502528094Y-82832342D01*
X502528094Y-82832342D02*
X502480475Y-82927580D01*
X502480475Y-82927580D02*
X502432856Y-82975200D01*
X502432856Y-82975200D02*
X502337618Y-83022819D01*
X502337618Y-83022819D02*
X502147142Y-83022819D01*
X502147142Y-83022819D02*
X502051904Y-82975200D01*
X502051904Y-82975200D02*
X502004285Y-82927580D01*
X502004285Y-82927580D02*
X501956666Y-82832342D01*
X501956666Y-82832342D02*
X501956666Y-82594247D01*
X501956666Y-82594247D02*
X502004285Y-82499009D01*
X502004285Y-82499009D02*
X502051904Y-82451390D01*
X502051904Y-82451390D02*
X502147142Y-82403771D01*
X502147142Y-82403771D02*
X502337618Y-82403771D01*
X502337618Y-82403771D02*
X502432856Y-82451390D01*
X502432856Y-82451390D02*
X502480475Y-82499009D01*
X502480475Y-82499009D02*
X502528094Y-82594247D01*
X500081904Y-119042819D02*
X500081904Y-118042819D01*
X500081904Y-118042819D02*
X499748571Y-118757104D01*
X499748571Y-118757104D02*
X499415238Y-118042819D01*
X499415238Y-118042819D02*
X499415238Y-119042819D01*
X499034285Y-118042819D02*
X498367619Y-119042819D01*
X498367619Y-118042819D02*
X499034285Y-119042819D01*
X497462857Y-119042819D02*
X498034285Y-119042819D01*
X497748571Y-119042819D02*
X497748571Y-118042819D01*
X497748571Y-118042819D02*
X497843809Y-118185676D01*
X497843809Y-118185676D02*
X497939047Y-118280914D01*
X497939047Y-118280914D02*
X498034285Y-118328533D01*
X496843809Y-118042819D02*
X496748571Y-118042819D01*
X496748571Y-118042819D02*
X496653333Y-118090438D01*
X496653333Y-118090438D02*
X496605714Y-118138057D01*
X496605714Y-118138057D02*
X496558095Y-118233295D01*
X496558095Y-118233295D02*
X496510476Y-118423771D01*
X496510476Y-118423771D02*
X496510476Y-118661866D01*
X496510476Y-118661866D02*
X496558095Y-118852342D01*
X496558095Y-118852342D02*
X496605714Y-118947580D01*
X496605714Y-118947580D02*
X496653333Y-118995200D01*
X496653333Y-118995200D02*
X496748571Y-119042819D01*
X496748571Y-119042819D02*
X496843809Y-119042819D01*
X496843809Y-119042819D02*
X496939047Y-118995200D01*
X496939047Y-118995200D02*
X496986666Y-118947580D01*
X496986666Y-118947580D02*
X497034285Y-118852342D01*
X497034285Y-118852342D02*
X497081904Y-118661866D01*
X497081904Y-118661866D02*
X497081904Y-118423771D01*
X497081904Y-118423771D02*
X497034285Y-118233295D01*
X497034285Y-118233295D02*
X496986666Y-118138057D01*
X496986666Y-118138057D02*
X496939047Y-118090438D01*
X496939047Y-118090438D02*
X496843809Y-118042819D01*
X534595713Y-68982819D02*
X534595713Y-67982819D01*
X534595713Y-67982819D02*
X534262380Y-68697104D01*
X534262380Y-68697104D02*
X533929047Y-67982819D01*
X533929047Y-67982819D02*
X533929047Y-68982819D01*
X533548094Y-67982819D02*
X532881428Y-68982819D01*
X532881428Y-67982819D02*
X533548094Y-68982819D01*
X532595713Y-67982819D02*
X531929047Y-67982819D01*
X531929047Y-67982819D02*
X532357618Y-68982819D01*
X599081904Y-108032819D02*
X599081904Y-107032819D01*
X599081904Y-107032819D02*
X598748571Y-107747104D01*
X598748571Y-107747104D02*
X598415238Y-107032819D01*
X598415238Y-107032819D02*
X598415238Y-108032819D01*
X598034285Y-107032819D02*
X597367619Y-108032819D01*
X597367619Y-107032819D02*
X598034285Y-108032819D01*
X596462857Y-108032819D02*
X597034285Y-108032819D01*
X596748571Y-108032819D02*
X596748571Y-107032819D01*
X596748571Y-107032819D02*
X596843809Y-107175676D01*
X596843809Y-107175676D02*
X596939047Y-107270914D01*
X596939047Y-107270914D02*
X597034285Y-107318533D01*
X596129523Y-107032819D02*
X595510476Y-107032819D01*
X595510476Y-107032819D02*
X595843809Y-107413771D01*
X595843809Y-107413771D02*
X595700952Y-107413771D01*
X595700952Y-107413771D02*
X595605714Y-107461390D01*
X595605714Y-107461390D02*
X595558095Y-107509009D01*
X595558095Y-107509009D02*
X595510476Y-107604247D01*
X595510476Y-107604247D02*
X595510476Y-107842342D01*
X595510476Y-107842342D02*
X595558095Y-107937580D01*
X595558095Y-107937580D02*
X595605714Y-107985200D01*
X595605714Y-107985200D02*
X595700952Y-108032819D01*
X595700952Y-108032819D02*
X595986666Y-108032819D01*
X595986666Y-108032819D02*
X596081904Y-107985200D01*
X596081904Y-107985200D02*
X596129523Y-107937580D01*
X428025713Y-97032819D02*
X428025713Y-96032819D01*
X428025713Y-96032819D02*
X427692380Y-96747104D01*
X427692380Y-96747104D02*
X427359047Y-96032819D01*
X427359047Y-96032819D02*
X427359047Y-97032819D01*
X426978094Y-96032819D02*
X426311428Y-97032819D01*
X426311428Y-96032819D02*
X426978094Y-97032819D01*
X425501904Y-96366152D02*
X425501904Y-97032819D01*
X425739999Y-95985200D02*
X425978094Y-96699485D01*
X425978094Y-96699485D02*
X425359047Y-96699485D01*
X600555713Y-70012819D02*
X600555713Y-69012819D01*
X600555713Y-69012819D02*
X600222380Y-69727104D01*
X600222380Y-69727104D02*
X599889047Y-69012819D01*
X599889047Y-69012819D02*
X599889047Y-70012819D01*
X599508094Y-69012819D02*
X598841428Y-70012819D01*
X598841428Y-69012819D02*
X599508094Y-70012819D01*
X598412856Y-70012819D02*
X598222380Y-70012819D01*
X598222380Y-70012819D02*
X598127142Y-69965200D01*
X598127142Y-69965200D02*
X598079523Y-69917580D01*
X598079523Y-69917580D02*
X597984285Y-69774723D01*
X597984285Y-69774723D02*
X597936666Y-69584247D01*
X597936666Y-69584247D02*
X597936666Y-69203295D01*
X597936666Y-69203295D02*
X597984285Y-69108057D01*
X597984285Y-69108057D02*
X598031904Y-69060438D01*
X598031904Y-69060438D02*
X598127142Y-69012819D01*
X598127142Y-69012819D02*
X598317618Y-69012819D01*
X598317618Y-69012819D02*
X598412856Y-69060438D01*
X598412856Y-69060438D02*
X598460475Y-69108057D01*
X598460475Y-69108057D02*
X598508094Y-69203295D01*
X598508094Y-69203295D02*
X598508094Y-69441390D01*
X598508094Y-69441390D02*
X598460475Y-69536628D01*
X598460475Y-69536628D02*
X598412856Y-69584247D01*
X598412856Y-69584247D02*
X598317618Y-69631866D01*
X598317618Y-69631866D02*
X598127142Y-69631866D01*
X598127142Y-69631866D02*
X598031904Y-69584247D01*
X598031904Y-69584247D02*
X597984285Y-69536628D01*
X597984285Y-69536628D02*
X597936666Y-69441390D01*
X530051904Y-105072819D02*
X530051904Y-104072819D01*
X530051904Y-104072819D02*
X529718571Y-104787104D01*
X529718571Y-104787104D02*
X529385238Y-104072819D01*
X529385238Y-104072819D02*
X529385238Y-105072819D01*
X529004285Y-104072819D02*
X528337619Y-105072819D01*
X528337619Y-104072819D02*
X529004285Y-105072819D01*
X527432857Y-105072819D02*
X528004285Y-105072819D01*
X527718571Y-105072819D02*
X527718571Y-104072819D01*
X527718571Y-104072819D02*
X527813809Y-104215676D01*
X527813809Y-104215676D02*
X527909047Y-104310914D01*
X527909047Y-104310914D02*
X528004285Y-104358533D01*
X526480476Y-105072819D02*
X527051904Y-105072819D01*
X526766190Y-105072819D02*
X526766190Y-104072819D01*
X526766190Y-104072819D02*
X526861428Y-104215676D01*
X526861428Y-104215676D02*
X526956666Y-104310914D01*
X526956666Y-104310914D02*
X527051904Y-104358533D01*
X443105713Y-161042819D02*
X443105713Y-160042819D01*
X443105713Y-160042819D02*
X442772380Y-160757104D01*
X442772380Y-160757104D02*
X442439047Y-160042819D01*
X442439047Y-160042819D02*
X442439047Y-161042819D01*
X442058094Y-160042819D02*
X441391428Y-161042819D01*
X441391428Y-160042819D02*
X442058094Y-161042819D01*
X440534285Y-160042819D02*
X441010475Y-160042819D01*
X441010475Y-160042819D02*
X441058094Y-160519009D01*
X441058094Y-160519009D02*
X441010475Y-160471390D01*
X441010475Y-160471390D02*
X440915237Y-160423771D01*
X440915237Y-160423771D02*
X440677142Y-160423771D01*
X440677142Y-160423771D02*
X440581904Y-160471390D01*
X440581904Y-160471390D02*
X440534285Y-160519009D01*
X440534285Y-160519009D02*
X440486666Y-160614247D01*
X440486666Y-160614247D02*
X440486666Y-160852342D01*
X440486666Y-160852342D02*
X440534285Y-160947580D01*
X440534285Y-160947580D02*
X440581904Y-160995200D01*
X440581904Y-160995200D02*
X440677142Y-161042819D01*
X440677142Y-161042819D02*
X440915237Y-161042819D01*
X440915237Y-161042819D02*
X441010475Y-160995200D01*
X441010475Y-160995200D02*
X441058094Y-160947580D01*
X372055713Y-81022819D02*
X372055713Y-80022819D01*
X372055713Y-80022819D02*
X371722380Y-80737104D01*
X371722380Y-80737104D02*
X371389047Y-80022819D01*
X371389047Y-80022819D02*
X371389047Y-81022819D01*
X371008094Y-80022819D02*
X370341428Y-81022819D01*
X370341428Y-80022819D02*
X371008094Y-81022819D01*
X370008094Y-80118057D02*
X369960475Y-80070438D01*
X369960475Y-80070438D02*
X369865237Y-80022819D01*
X369865237Y-80022819D02*
X369627142Y-80022819D01*
X369627142Y-80022819D02*
X369531904Y-80070438D01*
X369531904Y-80070438D02*
X369484285Y-80118057D01*
X369484285Y-80118057D02*
X369436666Y-80213295D01*
X369436666Y-80213295D02*
X369436666Y-80308533D01*
X369436666Y-80308533D02*
X369484285Y-80451390D01*
X369484285Y-80451390D02*
X370055713Y-81022819D01*
X370055713Y-81022819D02*
X369436666Y-81022819D01*
X563041904Y-103022819D02*
X563041904Y-102022819D01*
X563041904Y-102022819D02*
X562708571Y-102737104D01*
X562708571Y-102737104D02*
X562375238Y-102022819D01*
X562375238Y-102022819D02*
X562375238Y-103022819D01*
X561994285Y-102022819D02*
X561327619Y-103022819D01*
X561327619Y-102022819D02*
X561994285Y-103022819D01*
X560422857Y-103022819D02*
X560994285Y-103022819D01*
X560708571Y-103022819D02*
X560708571Y-102022819D01*
X560708571Y-102022819D02*
X560803809Y-102165676D01*
X560803809Y-102165676D02*
X560899047Y-102260914D01*
X560899047Y-102260914D02*
X560994285Y-102308533D01*
X560041904Y-102118057D02*
X559994285Y-102070438D01*
X559994285Y-102070438D02*
X559899047Y-102022819D01*
X559899047Y-102022819D02*
X559660952Y-102022819D01*
X559660952Y-102022819D02*
X559565714Y-102070438D01*
X559565714Y-102070438D02*
X559518095Y-102118057D01*
X559518095Y-102118057D02*
X559470476Y-102213295D01*
X559470476Y-102213295D02*
X559470476Y-102308533D01*
X559470476Y-102308533D02*
X559518095Y-102451390D01*
X559518095Y-102451390D02*
X560089523Y-103022819D01*
X560089523Y-103022819D02*
X559470476Y-103022819D01*
X342125713Y-105242819D02*
X342125713Y-104242819D01*
X342125713Y-104242819D02*
X341792380Y-104957104D01*
X341792380Y-104957104D02*
X341459047Y-104242819D01*
X341459047Y-104242819D02*
X341459047Y-105242819D01*
X341078094Y-104242819D02*
X340411428Y-105242819D01*
X340411428Y-104242819D02*
X341078094Y-105242819D01*
X339506666Y-105242819D02*
X340078094Y-105242819D01*
X339792380Y-105242819D02*
X339792380Y-104242819D01*
X339792380Y-104242819D02*
X339887618Y-104385676D01*
X339887618Y-104385676D02*
X339982856Y-104480914D01*
X339982856Y-104480914D02*
X340078094Y-104528533D01*
%LPC*%
D11*
X395710000Y-77560000D03*
D12*
X396980000Y-75020000D03*
D13*
X400790000Y-77560000D03*
D12*
X403330000Y-72480000D03*
D11*
X405870000Y-77560000D03*
D14*
X393705000Y-75020000D03*
X406632000Y-72480000D03*
D15*
X544640000Y-84510000D03*
X440830000Y-123280000D03*
D11*
X561220000Y-63520000D03*
D12*
X562490000Y-60980000D03*
D13*
X566300000Y-63520000D03*
D12*
X568840000Y-58440000D03*
D11*
X571380000Y-63520000D03*
D14*
X559215000Y-60980000D03*
X572142000Y-58440000D03*
D11*
X498210000Y-79520000D03*
D12*
X499480000Y-76980000D03*
D13*
X503290000Y-79520000D03*
D12*
X505830000Y-74440000D03*
D11*
X508370000Y-79520000D03*
D14*
X496205000Y-76980000D03*
X509132000Y-74440000D03*
D15*
X627410000Y-42550000D03*
D16*
X507740000Y-44420000D03*
D17*
X515360000Y-44420000D03*
D18*
X389700000Y-41970000D03*
X396200000Y-41970000D03*
X389700000Y-46470000D03*
X396200000Y-46470000D03*
D16*
X507740000Y-41920000D03*
D17*
X515360000Y-41920000D03*
D11*
X493240000Y-115540000D03*
D12*
X494510000Y-113000000D03*
D13*
X498320000Y-115540000D03*
D12*
X500860000Y-110460000D03*
D11*
X503400000Y-115540000D03*
D14*
X491235000Y-113000000D03*
X504162000Y-110460000D03*
D19*
X472600000Y-36620000D03*
X466820000Y-36620000D03*
D20*
X474030000Y-37150000D03*
D21*
X474030000Y-32970000D03*
D20*
X465390000Y-37150000D03*
D21*
X465390000Y-32970000D03*
D22*
X603061878Y-152309894D03*
D23*
X614004198Y-151509032D03*
D24*
X614004198Y-153509028D03*
D23*
X614004198Y-158009654D03*
X614004198Y-160009650D03*
X614004198Y-162009646D03*
X614004198Y-164009642D03*
X614004198Y-166009638D03*
D24*
X614004198Y-168009634D03*
D11*
X528230000Y-65480000D03*
D12*
X529500000Y-62940000D03*
D13*
X533310000Y-65480000D03*
D12*
X535850000Y-60400000D03*
D11*
X538390000Y-65480000D03*
D14*
X526225000Y-62940000D03*
X539152000Y-60400000D03*
D15*
X327760000Y-42540000D03*
D18*
X566077049Y-144497505D03*
X566077049Y-141957505D03*
X563547049Y-144497505D03*
X563547049Y-141957505D03*
X561007049Y-144507505D03*
X561007049Y-141957505D03*
X558467049Y-144494185D03*
X558467049Y-141957505D03*
X555927049Y-144497505D03*
X555927049Y-141957505D03*
X553387049Y-144497505D03*
X553387049Y-141957505D03*
X550847049Y-144497505D03*
X550847049Y-141957505D03*
X548307049Y-144497505D03*
X548307049Y-141957505D03*
X545767049Y-144497505D03*
X545767049Y-141957505D03*
D25*
X543227049Y-144497505D03*
D18*
X543227049Y-141957505D03*
X570067049Y-152097505D03*
X570067049Y-154637505D03*
X570067049Y-157177505D03*
D25*
X570067049Y-159717505D03*
D26*
X570067049Y-164693505D03*
X570067049Y-166721505D03*
X570067049Y-168721505D03*
X570067049Y-170721505D03*
X570067049Y-172721505D03*
D27*
X520973049Y-143901505D03*
D26*
X518973049Y-143901505D03*
X516973049Y-143901505D03*
X514973049Y-143901505D03*
D18*
X507436049Y-147105505D03*
X504896049Y-147105505D03*
X502356049Y-147105505D03*
D25*
X499816049Y-147105505D03*
D28*
X565083049Y-180162505D03*
X561493049Y-180162505D03*
X557993049Y-180162505D03*
X554493049Y-180162505D03*
X550993049Y-180162505D03*
X547493049Y-180162505D03*
X543993049Y-180162505D03*
X540493049Y-180162505D03*
X536993049Y-180162505D03*
X533493049Y-180162505D03*
X529993049Y-180162505D03*
X526493049Y-180162505D03*
X522993049Y-180162505D03*
X519493049Y-180162505D03*
X515993049Y-180162505D03*
X512493049Y-180162505D03*
X508993049Y-180162505D03*
X505493049Y-180162505D03*
X501993049Y-180162505D03*
X498493049Y-180162505D03*
D18*
X379950000Y-41970000D03*
X386450000Y-41970000D03*
X379950000Y-46470000D03*
X386450000Y-46470000D03*
D11*
X592240000Y-104530000D03*
D12*
X593510000Y-101990000D03*
D13*
X597320000Y-104530000D03*
D12*
X599860000Y-99450000D03*
D11*
X602400000Y-104530000D03*
D14*
X590235000Y-101990000D03*
X603162000Y-99450000D03*
D18*
X399450000Y-41970000D03*
X405950000Y-41970000D03*
X399450000Y-46470000D03*
X405950000Y-46470000D03*
D15*
X627440000Y-192270000D03*
D11*
X421660000Y-93530000D03*
D12*
X422930000Y-90990000D03*
D13*
X426740000Y-93530000D03*
D12*
X429280000Y-88450000D03*
D11*
X431820000Y-93530000D03*
D14*
X419655000Y-90990000D03*
X432582000Y-88450000D03*
D18*
X370200000Y-41970000D03*
X376700000Y-41970000D03*
X370200000Y-46470000D03*
X376700000Y-46470000D03*
X360450000Y-41970000D03*
X366950000Y-41970000D03*
X360450000Y-46470000D03*
X366950000Y-46470000D03*
D15*
X436620000Y-55740000D03*
D11*
X594190000Y-66510000D03*
D12*
X595460000Y-63970000D03*
D13*
X599270000Y-66510000D03*
D12*
X601810000Y-61430000D03*
D11*
X604350000Y-66510000D03*
D14*
X592185000Y-63970000D03*
X605112000Y-61430000D03*
D11*
X523210000Y-101570000D03*
D12*
X524480000Y-99030000D03*
D13*
X528290000Y-101570000D03*
D12*
X530830000Y-96490000D03*
D11*
X533370000Y-101570000D03*
D14*
X521205000Y-99030000D03*
X534132000Y-96490000D03*
D11*
X436740000Y-157540000D03*
D12*
X438010000Y-155000000D03*
D13*
X441820000Y-157540000D03*
D12*
X444360000Y-152460000D03*
D11*
X446900000Y-157540000D03*
D14*
X434735000Y-155000000D03*
X447662000Y-152460000D03*
D11*
X365690000Y-77520000D03*
D12*
X366960000Y-74980000D03*
D13*
X370770000Y-77520000D03*
D12*
X373310000Y-72440000D03*
D11*
X375850000Y-77520000D03*
D14*
X363685000Y-74980000D03*
X376612000Y-72440000D03*
D15*
X327750000Y-192240000D03*
X465570000Y-192260000D03*
D11*
X556200000Y-99520000D03*
D12*
X557470000Y-96980000D03*
D13*
X561280000Y-99520000D03*
D12*
X563820000Y-94440000D03*
D11*
X566360000Y-99520000D03*
D14*
X554195000Y-96980000D03*
X567122000Y-94440000D03*
D11*
X335760000Y-101740000D03*
D12*
X337030000Y-99200000D03*
D13*
X340840000Y-101740000D03*
D12*
X343380000Y-96660000D03*
D11*
X345920000Y-101740000D03*
D14*
X333755000Y-99200000D03*
X346682000Y-96660000D03*
%LPD*%
M02*
