M48
; DRILL file {KiCad 7.0.5} date Fri Sep  8 18:02:19 2023
; FORMAT={-:-/ absolute / metric / decimal}
; #@! TF.CreationDate,2023-09-08T18:02:19-04:00
; #@! TF.GenerationSoftware,Kicad,Pcbnew,7.0.5
; #@! TF.FileFunction,Plated,1,2,PTH
FMAT,2
METRIC
; #@! TA.AperFunction,Plated,PTH,ViaDrill
T1C0.300
; #@! TA.AperFunction,Plated,PTH,ComponentDrill
T2C0.300
; #@! TA.AperFunction,Plated,PTH,ViaDrill
T3C0.400
; #@! TA.AperFunction,Plated,PTH,ComponentDrill
T4C0.600
; #@! TA.AperFunction,Plated,PTH,ComponentDrill
T5C0.700
; #@! TA.AperFunction,Plated,PTH,ComponentDrill
T6C0.900
; #@! TA.AperFunction,Plated,PTH,ComponentDrill
T7C1.000
; #@! TA.AperFunction,Plated,PTH,ComponentDrill
T8C1.100
; #@! TA.AperFunction,Plated,PTH,ComponentDrill
T9C1.200
; #@! TA.AperFunction,Plated,PTH,ComponentDrill
T10C1.500
%
G90
G05
T1
X463.85Y-30.675
T3
X351.4Y-128.0
X351.4Y-128.0
X374.1Y-122.0
X381.6Y-43.5
X387.6Y-49.4
X395.8Y-87.0
X395.9Y-72.8
X395.9Y-83.2
X398.6Y-117.9
X398.6Y-117.9
X399.0Y-74.7
X402.0Y-90.5
X403.2Y-137.0
X407.3Y-109.3
X408.2Y-84.3
X462.25Y-29.675
X468.85Y-29.775
X510.8Y-131.3
X522.2Y-133.3
X526.2Y-105.2
X527.8Y-107.9
X528.0Y-133.4
X531.1Y-110.4
X531.4Y-107.8
X575.0Y-112.8
T5
X491.89Y-30.8
X491.89Y-33.3
X499.51Y-30.8
X499.51Y-33.3
T6
X533.29Y-159.664
X535.29Y-159.664
X537.29Y-159.664
X539.29Y-159.664
X541.29Y-159.664
X543.29Y-159.664
T7
X547.791Y-159.664
X549.791Y-159.664
T8
X371.55Y-33.16
X371.55Y-37.66
X378.05Y-33.16
X378.05Y-37.66
X381.3Y-33.16
X381.3Y-37.66
X387.8Y-33.16
X387.8Y-37.66
X391.05Y-33.16
X391.05Y-37.66
X397.55Y-33.16
X397.55Y-37.66
X400.8Y-33.16
X400.8Y-37.66
X407.3Y-33.16
X407.3Y-37.66
X410.55Y-33.16
X410.55Y-37.66
X417.05Y-33.16
X417.05Y-37.66
T9
X357.043Y-131.804
X359.583Y-131.804
X362.123Y-131.804
X364.663Y-131.804
X372.2Y-128.6
X374.2Y-128.6
X376.2Y-128.6
X378.2Y-128.6
X400.454Y-126.656
X400.454Y-129.196
X402.994Y-126.656
X402.994Y-129.196
X405.534Y-126.656
X405.534Y-129.196
X408.074Y-126.656
X408.074Y-129.196
X410.614Y-126.656
X410.614Y-129.196
X413.154Y-126.656
X413.154Y-129.196
X415.694Y-126.656
X415.694Y-129.193
X418.234Y-126.656
X418.234Y-129.206
X420.774Y-126.656
X420.774Y-129.196
X423.304Y-126.656
X423.304Y-129.196
X427.294Y-136.796
X427.294Y-139.336
X427.294Y-141.876
X427.294Y-144.416
X427.294Y-149.392
X427.294Y-151.42
X427.294Y-153.42
X427.294Y-155.42
X427.294Y-157.42
T10
X355.72Y-164.861
X359.22Y-164.861
X362.72Y-164.861
X366.22Y-164.861
X369.72Y-164.861
X373.22Y-164.861
X376.72Y-164.861
X380.22Y-164.861
X383.72Y-164.861
X387.22Y-164.861
X390.72Y-164.861
X394.22Y-164.861
X397.72Y-164.861
X401.22Y-164.861
X404.72Y-164.861
X408.22Y-164.861
X411.72Y-164.861
X415.22Y-164.861
X418.72Y-164.861
X422.31Y-164.861
T2
X360.0Y-71.7G85X359.3Y-71.7
G05
X389.9Y-61.7G85X389.2Y-61.7
G05
X420.0Y-63.7G85X419.3Y-63.7
G05
X449.9Y-77.7G85X449.2Y-77.7
G05
X489.0Y-152.8G85X488.3Y-152.8
G05
X521.9Y-113.6G85X521.2Y-113.6
G05
X527.0Y-77.8G85X526.3Y-77.8
G05
X552.0Y-99.6G85X551.3Y-99.6
G05
X557.0Y-63.7G85X556.3Y-63.7
G05
X582.0Y-97.6G85X581.3Y-97.6
G05
X587.0Y-61.7G85X586.3Y-61.7
G05
X615.0Y-102.7G85X614.3Y-102.7
G05
X616.9Y-64.6G85X616.2Y-64.6
G05
T4
X461.28Y-23.05G85X461.28Y-22.45
G05
X461.28Y-27.48G85X461.28Y-26.38
G05
X469.92Y-23.05G85X469.92Y-22.45
G05
X469.92Y-27.48G85X469.92Y-26.38
G05
T0
M30
