G04 #@! TF.GenerationSoftware,KiCad,Pcbnew,7.0.5*
G04 #@! TF.CreationDate,2023-09-08T18:01:39-04:00*
G04 #@! TF.ProjectId,Rory Hitbox Full Pcb,526f7279-2048-4697-9462-6f782046756c,rev?*
G04 #@! TF.SameCoordinates,Original*
G04 #@! TF.FileFunction,Soldermask,Top*
G04 #@! TF.FilePolarity,Negative*
%FSLAX46Y46*%
G04 Gerber Fmt 4.6, Leading zero omitted, Abs format (unit mm)*
G04 Created by KiCad (PCBNEW 7.0.5) date 2023-09-08 18:01:39*
%MOMM*%
%LPD*%
G01*
G04 APERTURE LIST*
%ADD10C,2.500000*%
%ADD11R,2.000000X2.000000*%
%ADD12C,2.000000*%
%ADD13C,1.700000*%
%ADD14R,1.700000X1.700000*%
%ADD15C,3.000000*%
%ADD16C,6.400000*%
%ADD17C,1.400000*%
%ADD18O,1.400000X1.400000*%
%ADD19C,0.650000*%
%ADD20O,1.000000X2.100000*%
%ADD21O,1.000000X1.600000*%
%ADD22R,0.600000X1.450000*%
%ADD23R,0.300000X1.450000*%
%ADD24C,1.700022*%
%ADD25C,1.499997*%
%ADD26R,1.499997X1.499997*%
G04 APERTURE END LIST*
D10*
X355720000Y-164861000D03*
X359220000Y-164861000D03*
X362720000Y-164861000D03*
X366220000Y-164861000D03*
X369720000Y-164861000D03*
X373220000Y-164861000D03*
X376720000Y-164861000D03*
X380220000Y-164861000D03*
X383720000Y-164861000D03*
X387220000Y-164861000D03*
X390720000Y-164861000D03*
X394220000Y-164861000D03*
X397720000Y-164861000D03*
X401220000Y-164861000D03*
X404720000Y-164861000D03*
X408220000Y-164861000D03*
X411720000Y-164861000D03*
X415220000Y-164861000D03*
X418720000Y-164861000D03*
X422310000Y-164861000D03*
D11*
X357043000Y-131804000D03*
D12*
X359583000Y-131804000D03*
X362123000Y-131804000D03*
X364663000Y-131804000D03*
D13*
X372200000Y-128600000D03*
X374200000Y-128600000D03*
X376200000Y-128600000D03*
D14*
X378200000Y-128600000D03*
D13*
X427294000Y-157420000D03*
X427294000Y-155420000D03*
X427294000Y-153420000D03*
X427294000Y-151420000D03*
X427294000Y-149392000D03*
D11*
X427294000Y-144416000D03*
D12*
X427294000Y-141876000D03*
X427294000Y-139336000D03*
X427294000Y-136796000D03*
X400454000Y-126656000D03*
D11*
X400454000Y-129196000D03*
D12*
X402994000Y-126656000D03*
X402994000Y-129196000D03*
X405534000Y-126656000D03*
X405534000Y-129196000D03*
X408074000Y-126656000D03*
X408074000Y-129196000D03*
X410614000Y-126656000D03*
X410614000Y-129196000D03*
X413154000Y-126656000D03*
X413154000Y-129196000D03*
X415694000Y-126656000D03*
X415694000Y-129192680D03*
X418234000Y-126656000D03*
X418234000Y-129206000D03*
X420774000Y-126656000D03*
X420774000Y-129196000D03*
X423304000Y-126656000D03*
X423304000Y-129196000D03*
X371550000Y-33160000D03*
X378050000Y-33160000D03*
X371550000Y-37660000D03*
X378050000Y-37660000D03*
D15*
X606000000Y-73300000D03*
X611000000Y-75500000D03*
D16*
X561300000Y-87000000D03*
X446200000Y-179700000D03*
X434000000Y-45200000D03*
D17*
X491890000Y-33300000D03*
D18*
X499510000Y-33300000D03*
D16*
X335070000Y-179630000D03*
D17*
X491890000Y-30800000D03*
D18*
X499510000Y-30800000D03*
D19*
X468490000Y-26400000D03*
X462710000Y-26400000D03*
D20*
X469920000Y-26930000D03*
D21*
X469920000Y-22750000D03*
D20*
X461280000Y-26930000D03*
D21*
X461280000Y-22750000D03*
D22*
X468850000Y-27845000D03*
X468050000Y-27845000D03*
D23*
X466850000Y-27845000D03*
X465850000Y-27845000D03*
X465350000Y-27845000D03*
X464350000Y-27845000D03*
D22*
X463150000Y-27845000D03*
X462350000Y-27845000D03*
X462350000Y-27845000D03*
X463150000Y-27845000D03*
D23*
X463850000Y-27845000D03*
X464850000Y-27845000D03*
X466350000Y-27845000D03*
X467350000Y-27845000D03*
D22*
X468050000Y-27845000D03*
X468850000Y-27845000D03*
D15*
X409100000Y-72400000D03*
X414100000Y-74600000D03*
D24*
X548990106Y-148721878D03*
D25*
X549790968Y-159664198D03*
D26*
X547790972Y-159664198D03*
D25*
X543290346Y-159664198D03*
X541290350Y-159664198D03*
X539290354Y-159664198D03*
X537290358Y-159664198D03*
X535290362Y-159664198D03*
D26*
X533290366Y-159664198D03*
D15*
X511000000Y-122300000D03*
X516000000Y-124500000D03*
X349100000Y-80400000D03*
X354100000Y-82600000D03*
X483100000Y-163700000D03*
X478100000Y-161500000D03*
D16*
X630080000Y-179630000D03*
X335100000Y-34640000D03*
D15*
X571100000Y-106300000D03*
X576100000Y-108500000D03*
X546100000Y-72400000D03*
X551100000Y-74600000D03*
D12*
X391050000Y-33160000D03*
X397550000Y-33160000D03*
X391050000Y-37660000D03*
X397550000Y-37660000D03*
D15*
X379000000Y-70400000D03*
X384000000Y-72600000D03*
X439000000Y-86400000D03*
X444000000Y-88600000D03*
D16*
X630150000Y-34640000D03*
D12*
X400800000Y-33160000D03*
X407300000Y-33160000D03*
X400800000Y-37660000D03*
X407300000Y-37660000D03*
X381300000Y-33160000D03*
X387800000Y-33160000D03*
X381300000Y-37660000D03*
X387800000Y-37660000D03*
D15*
X604100000Y-111400000D03*
X609100000Y-113600000D03*
X516100000Y-86500000D03*
X521100000Y-88700000D03*
D16*
X455300000Y-116000000D03*
D15*
X576100000Y-70400000D03*
X581100000Y-72600000D03*
D12*
X410550000Y-33160000D03*
X417050000Y-33160000D03*
X410550000Y-37660000D03*
X417050000Y-37660000D03*
D15*
X541100000Y-108300000D03*
X546100000Y-110500000D03*
M02*
