G04 #@! TF.GenerationSoftware,KiCad,Pcbnew,7.0.5*
G04 #@! TF.CreationDate,2023-09-08T18:01:39-04:00*
G04 #@! TF.ProjectId,Rory Hitbox Full Pcb,526f7279-2048-4697-9462-6f782046756c,rev?*
G04 #@! TF.SameCoordinates,Original*
G04 #@! TF.FileFunction,Soldermask,Bot*
G04 #@! TF.FilePolarity,Negative*
%FSLAX46Y46*%
G04 Gerber Fmt 4.6, Leading zero omitted, Abs format (unit mm)*
G04 Created by KiCad (PCBNEW 7.0.5) date 2023-09-08 18:01:39*
%MOMM*%
%LPD*%
G01*
G04 APERTURE LIST*
%ADD10C,2.500000*%
%ADD11R,2.000000X2.000000*%
%ADD12C,2.000000*%
%ADD13C,1.700000*%
%ADD14R,1.700000X1.700000*%
%ADD15C,3.000000*%
%ADD16O,2.200000X1.500000*%
%ADD17R,2.600000X2.600000*%
%ADD18C,6.400000*%
%ADD19C,1.400000*%
%ADD20O,1.400000X1.400000*%
%ADD21C,0.650000*%
%ADD22O,1.000000X2.100000*%
%ADD23O,1.000000X1.600000*%
%ADD24C,1.700022*%
%ADD25C,1.499997*%
%ADD26R,1.499997X1.499997*%
G04 APERTURE END LIST*
D10*
X355720000Y-164861000D03*
X359220000Y-164861000D03*
X362720000Y-164861000D03*
X366220000Y-164861000D03*
X369720000Y-164861000D03*
X373220000Y-164861000D03*
X376720000Y-164861000D03*
X380220000Y-164861000D03*
X383720000Y-164861000D03*
X387220000Y-164861000D03*
X390720000Y-164861000D03*
X394220000Y-164861000D03*
X397720000Y-164861000D03*
X401220000Y-164861000D03*
X404720000Y-164861000D03*
X408220000Y-164861000D03*
X411720000Y-164861000D03*
X415220000Y-164861000D03*
X418720000Y-164861000D03*
X422310000Y-164861000D03*
D11*
X357043000Y-131804000D03*
D12*
X359583000Y-131804000D03*
X362123000Y-131804000D03*
X364663000Y-131804000D03*
D13*
X372200000Y-128600000D03*
X374200000Y-128600000D03*
X376200000Y-128600000D03*
D14*
X378200000Y-128600000D03*
D13*
X427294000Y-157420000D03*
X427294000Y-155420000D03*
X427294000Y-153420000D03*
X427294000Y-151420000D03*
X427294000Y-149392000D03*
D11*
X427294000Y-144416000D03*
D12*
X427294000Y-141876000D03*
X427294000Y-139336000D03*
X427294000Y-136796000D03*
X400454000Y-126656000D03*
D11*
X400454000Y-129196000D03*
D12*
X402994000Y-126656000D03*
X402994000Y-129196000D03*
X405534000Y-126656000D03*
X405534000Y-129196000D03*
X408074000Y-126656000D03*
X408074000Y-129196000D03*
X410614000Y-126656000D03*
X410614000Y-129196000D03*
X413154000Y-126656000D03*
X413154000Y-129196000D03*
X415694000Y-126656000D03*
X415694000Y-129192680D03*
X418234000Y-126656000D03*
X418234000Y-129206000D03*
X420774000Y-126656000D03*
X420774000Y-129196000D03*
X423304000Y-126656000D03*
X423304000Y-129196000D03*
X371550000Y-33160000D03*
X378050000Y-33160000D03*
X371550000Y-37660000D03*
X378050000Y-37660000D03*
D15*
X606000000Y-73300000D03*
X611000000Y-75500000D03*
D16*
X616550000Y-64600000D03*
D17*
X602700000Y-73300000D03*
X614300000Y-75500000D03*
D18*
X561300000Y-87000000D03*
X446200000Y-179700000D03*
X434000000Y-45200000D03*
D19*
X491890000Y-33300000D03*
D20*
X499510000Y-33300000D03*
D18*
X335070000Y-179630000D03*
D19*
X491890000Y-30800000D03*
D20*
X499510000Y-30800000D03*
D21*
X468490000Y-26400000D03*
X462710000Y-26400000D03*
D22*
X469920000Y-26930000D03*
D23*
X469920000Y-22750000D03*
D22*
X461280000Y-26930000D03*
D23*
X461280000Y-22750000D03*
D15*
X409100000Y-72400000D03*
X414100000Y-74600000D03*
D16*
X419650000Y-63700000D03*
D17*
X405800000Y-72400000D03*
X417400000Y-74600000D03*
D24*
X548990106Y-148721878D03*
D25*
X549790968Y-159664198D03*
D26*
X547790972Y-159664198D03*
D25*
X543290346Y-159664198D03*
X541290350Y-159664198D03*
X539290354Y-159664198D03*
X537290358Y-159664198D03*
X535290362Y-159664198D03*
D26*
X533290366Y-159664198D03*
D15*
X511000000Y-122300000D03*
X516000000Y-124500000D03*
D16*
X521550000Y-113600000D03*
D17*
X507700000Y-122300000D03*
X519300000Y-124500000D03*
D15*
X349100000Y-80400000D03*
X354100000Y-82600000D03*
D16*
X359650000Y-71700000D03*
D17*
X345800000Y-80400000D03*
X357400000Y-82600000D03*
X486400000Y-163700000D03*
X474800000Y-161500000D03*
D16*
X488650000Y-152800000D03*
D15*
X483100000Y-163700000D03*
X478100000Y-161500000D03*
D18*
X630080000Y-179630000D03*
X335100000Y-34640000D03*
D15*
X571100000Y-106300000D03*
X576100000Y-108500000D03*
D16*
X581650000Y-97600000D03*
D17*
X567800000Y-106300000D03*
X579400000Y-108500000D03*
D15*
X546100000Y-72400000D03*
X551100000Y-74600000D03*
D16*
X556650000Y-63700000D03*
D17*
X542800000Y-72400000D03*
X554400000Y-74600000D03*
D12*
X391050000Y-33160000D03*
X397550000Y-33160000D03*
X391050000Y-37660000D03*
X397550000Y-37660000D03*
D15*
X379000000Y-70400000D03*
X384000000Y-72600000D03*
D16*
X389550000Y-61700000D03*
D17*
X375700000Y-70400000D03*
X387300000Y-72600000D03*
D15*
X439000000Y-86400000D03*
X444000000Y-88600000D03*
D16*
X449550000Y-77700000D03*
D17*
X435700000Y-86400000D03*
X447300000Y-88600000D03*
D18*
X630150000Y-34640000D03*
D12*
X400800000Y-33160000D03*
X407300000Y-33160000D03*
X400800000Y-37660000D03*
X407300000Y-37660000D03*
X381300000Y-33160000D03*
X387800000Y-33160000D03*
X381300000Y-37660000D03*
X387800000Y-37660000D03*
D15*
X604100000Y-111400000D03*
X609100000Y-113600000D03*
D16*
X614650000Y-102700000D03*
D17*
X600800000Y-111400000D03*
X612400000Y-113600000D03*
D15*
X516100000Y-86500000D03*
X521100000Y-88700000D03*
D16*
X526650000Y-77800000D03*
D17*
X512800000Y-86500000D03*
X524400000Y-88700000D03*
D18*
X455300000Y-116000000D03*
D15*
X576100000Y-70400000D03*
X581100000Y-72600000D03*
D16*
X586650000Y-61700000D03*
D17*
X572800000Y-70400000D03*
X584400000Y-72600000D03*
D12*
X410550000Y-33160000D03*
X417050000Y-33160000D03*
X410550000Y-37660000D03*
X417050000Y-37660000D03*
D15*
X541100000Y-108300000D03*
X546100000Y-110500000D03*
D16*
X551650000Y-99600000D03*
D17*
X537800000Y-108300000D03*
X549400000Y-110500000D03*
M02*
