G04 #@! TF.GenerationSoftware,KiCad,Pcbnew,7.0.5*
G04 #@! TF.CreationDate,2023-09-08T18:01:39-04:00*
G04 #@! TF.ProjectId,Rory Hitbox Full Pcb,526f7279-2048-4697-9462-6f782046756c,rev?*
G04 #@! TF.SameCoordinates,Original*
G04 #@! TF.FileFunction,Legend,Bot*
G04 #@! TF.FilePolarity,Positive*
%FSLAX46Y46*%
G04 Gerber Fmt 4.6, Leading zero omitted, Abs format (unit mm)*
G04 Created by KiCad (PCBNEW 7.0.5) date 2023-09-08 18:01:39*
%MOMM*%
%LPD*%
G01*
G04 APERTURE LIST*
%ADD10C,0.150000*%
%ADD11C,0.120000*%
%ADD12C,2.500000*%
%ADD13R,2.000000X2.000000*%
%ADD14C,2.000000*%
%ADD15C,1.700000*%
%ADD16R,1.700000X1.700000*%
%ADD17C,3.000000*%
%ADD18O,2.200000X1.500000*%
%ADD19R,2.600000X2.600000*%
%ADD20C,6.400000*%
%ADD21C,1.400000*%
%ADD22O,1.400000X1.400000*%
%ADD23C,0.650000*%
%ADD24O,1.000000X2.100000*%
%ADD25O,1.000000X1.600000*%
%ADD26C,1.700022*%
%ADD27C,1.499997*%
%ADD28R,1.499997X1.499997*%
G04 APERTURE END LIST*
D10*
X603850000Y-75100000D02*
X603850000Y-71500000D01*
X604000000Y-75300000D02*
X604000000Y-71300000D01*
X604150000Y-75400000D02*
X604150000Y-71200000D01*
X604300000Y-75500000D02*
X604300000Y-71100000D01*
X604450000Y-75550000D02*
X604450000Y-71050000D01*
X604600000Y-75600000D02*
X604600000Y-71050000D01*
X604750000Y-75600000D02*
X604750000Y-71000000D01*
X604900000Y-75600000D02*
X604900000Y-71000000D01*
X605050000Y-75600000D02*
X605050000Y-71000000D01*
X605200000Y-75600000D02*
X605200000Y-71000000D01*
X605350000Y-75600000D02*
X605350000Y-71000000D01*
X605500000Y-75600000D02*
X605500000Y-71000000D01*
X605650000Y-75600000D02*
X605650000Y-71000000D01*
X605800000Y-75600000D02*
X605800000Y-71000000D01*
X605950000Y-75600000D02*
X605950000Y-71000000D01*
X606100000Y-75600000D02*
X606100000Y-71000000D01*
X606250000Y-75600000D02*
X606250000Y-71000000D01*
D11*
X606350000Y-75500000D02*
X606350000Y-71000000D01*
D10*
X606400000Y-75600000D02*
X606400000Y-71000000D01*
X606550000Y-75600000D02*
X606550000Y-71000000D01*
X606700000Y-75600000D02*
X606700000Y-71000000D01*
X606700000Y-75625000D02*
X604725000Y-75625000D01*
X606850000Y-75600000D02*
X606850000Y-71050000D01*
X607000000Y-75650000D02*
X607000000Y-71000000D01*
X607150000Y-75650000D02*
X607150000Y-71000000D01*
X607275000Y-70975000D02*
X604725000Y-70975000D01*
X607275000Y-70975000D02*
X608550000Y-72000000D01*
X607300000Y-75650000D02*
X607300000Y-71050000D01*
X607450000Y-75700000D02*
X607450000Y-71150000D01*
X607600000Y-75800000D02*
X607600000Y-71250000D01*
X607750000Y-75850000D02*
X607750000Y-71400000D01*
X607900000Y-75950000D02*
X607900000Y-71500000D01*
X608050000Y-76050000D02*
X608050000Y-71650000D01*
X608200000Y-76150000D02*
X608200000Y-71750000D01*
X608350000Y-76300000D02*
X608350000Y-71850000D01*
X608500000Y-76450000D02*
X608500000Y-72000000D01*
X608600000Y-76650000D02*
X608600000Y-72500000D01*
X608700000Y-76800000D02*
X608700000Y-72650000D01*
X608800000Y-77000000D02*
X608800000Y-72850000D01*
X608900000Y-77150000D02*
X608900000Y-72950000D01*
X609000000Y-77400000D02*
X609000000Y-73000000D01*
X609100000Y-77550000D02*
X609100000Y-73050000D01*
D11*
X609200000Y-73200000D02*
X606350000Y-75500000D01*
X609200000Y-77550000D02*
X609200000Y-73200000D01*
D10*
X609250000Y-77650000D02*
X609250000Y-73100000D01*
X609400000Y-77750000D02*
X609400000Y-73200000D01*
X609550000Y-77800000D02*
X609550000Y-73200000D01*
X609700000Y-77800000D02*
X609700000Y-73200000D01*
X609850000Y-77800000D02*
X609850000Y-73250000D01*
X610000000Y-77800000D02*
X610000000Y-73200000D01*
X610150000Y-77800000D02*
X610150000Y-73200000D01*
X610300000Y-77800000D02*
X610300000Y-73200000D01*
X610450000Y-77800000D02*
X610450000Y-73200000D01*
X610600000Y-77800000D02*
X610600000Y-73200000D01*
X610750000Y-77800000D02*
X610750000Y-73200000D01*
X610900000Y-77800000D02*
X610900000Y-73200000D01*
X611050000Y-77800000D02*
X611050000Y-73200000D01*
X611200000Y-77800000D02*
X611200000Y-73200000D01*
X611350000Y-77800000D02*
X611350000Y-73200000D01*
X611500000Y-77800000D02*
X611500000Y-73200000D01*
X611650000Y-77800000D02*
X611650000Y-73200000D01*
X611800000Y-77800000D02*
X611800000Y-73200000D01*
D11*
X611900000Y-73250000D02*
X609200000Y-77550000D01*
X611900000Y-77700000D02*
X611900000Y-73250000D01*
D10*
X611950000Y-77800000D02*
X611950000Y-73200000D01*
X612100000Y-77800000D02*
X612100000Y-73200000D01*
X612250000Y-77800000D02*
X612250000Y-73200000D01*
X612300000Y-73175000D02*
X609725000Y-73175000D01*
X612300000Y-73175000D02*
X613325000Y-74200000D01*
X612300000Y-77825000D02*
X609700000Y-77825000D01*
X612300000Y-77825000D02*
X613325000Y-76800000D01*
X612400000Y-77700000D02*
X612400000Y-73300000D01*
X612550000Y-77550000D02*
X612550000Y-73450000D01*
X612700000Y-77400000D02*
X612700000Y-73600000D01*
X612850000Y-77250000D02*
X612850000Y-73750000D01*
X612950000Y-77150000D02*
X612950000Y-73850000D01*
X613050000Y-77050000D02*
X613050000Y-73950000D01*
X613150000Y-76950000D02*
X613150000Y-74050000D01*
X613300000Y-74175000D02*
X613300000Y-76825000D01*
X604725000Y-70975000D02*
G75*
G03*
X603725000Y-71975000I-1J-999999D01*
G01*
X603725000Y-74625000D02*
G75*
G03*
X604725000Y-75625000I999999J-1D01*
G01*
X608837801Y-77121904D02*
G75*
G03*
X606700000Y-75625000I-2137802J-778098D01*
G01*
X608837802Y-77121904D02*
G75*
G03*
X609699005Y-77823790I899999J225000D01*
G01*
X608550000Y-72000000D02*
G75*
G03*
X609725000Y-73175000I1175002J2D01*
G01*
X406950000Y-74200000D02*
X406950000Y-70600000D01*
X407100000Y-74400000D02*
X407100000Y-70400000D01*
X407250000Y-74500000D02*
X407250000Y-70300000D01*
X407400000Y-74600000D02*
X407400000Y-70200000D01*
X407550000Y-74650000D02*
X407550000Y-70150000D01*
X407700000Y-74700000D02*
X407700000Y-70150000D01*
X407850000Y-74700000D02*
X407850000Y-70100000D01*
X408000000Y-74700000D02*
X408000000Y-70100000D01*
X408150000Y-74700000D02*
X408150000Y-70100000D01*
X408300000Y-74700000D02*
X408300000Y-70100000D01*
X408450000Y-74700000D02*
X408450000Y-70100000D01*
X408600000Y-74700000D02*
X408600000Y-70100000D01*
X408750000Y-74700000D02*
X408750000Y-70100000D01*
X408900000Y-74700000D02*
X408900000Y-70100000D01*
X409050000Y-74700000D02*
X409050000Y-70100000D01*
X409200000Y-74700000D02*
X409200000Y-70100000D01*
X409350000Y-74700000D02*
X409350000Y-70100000D01*
D11*
X409450000Y-74600000D02*
X409450000Y-70100000D01*
D10*
X409500000Y-74700000D02*
X409500000Y-70100000D01*
X409650000Y-74700000D02*
X409650000Y-70100000D01*
X409800000Y-74700000D02*
X409800000Y-70100000D01*
X409800000Y-74725000D02*
X407825000Y-74725000D01*
X409950000Y-74700000D02*
X409950000Y-70150000D01*
X410100000Y-74750000D02*
X410100000Y-70100000D01*
X410250000Y-74750000D02*
X410250000Y-70100000D01*
X410375000Y-70075000D02*
X407825000Y-70075000D01*
X410375000Y-70075000D02*
X411650000Y-71100000D01*
X410400000Y-74750000D02*
X410400000Y-70150000D01*
X410550000Y-74800000D02*
X410550000Y-70250000D01*
X410700000Y-74900000D02*
X410700000Y-70350000D01*
X410850000Y-74950000D02*
X410850000Y-70500000D01*
X411000000Y-75050000D02*
X411000000Y-70600000D01*
X411150000Y-75150000D02*
X411150000Y-70750000D01*
X411300000Y-75250000D02*
X411300000Y-70850000D01*
X411450000Y-75400000D02*
X411450000Y-70950000D01*
X411600000Y-75550000D02*
X411600000Y-71100000D01*
X411700000Y-75750000D02*
X411700000Y-71600000D01*
X411800000Y-75900000D02*
X411800000Y-71750000D01*
X411900000Y-76100000D02*
X411900000Y-71950000D01*
X412000000Y-76250000D02*
X412000000Y-72050000D01*
X412100000Y-76500000D02*
X412100000Y-72100000D01*
X412200000Y-76650000D02*
X412200000Y-72150000D01*
D11*
X412300000Y-72300000D02*
X409450000Y-74600000D01*
X412300000Y-76650000D02*
X412300000Y-72300000D01*
D10*
X412350000Y-76750000D02*
X412350000Y-72200000D01*
X412500000Y-76850000D02*
X412500000Y-72300000D01*
X412650000Y-76900000D02*
X412650000Y-72300000D01*
X412800000Y-76900000D02*
X412800000Y-72300000D01*
X412950000Y-76900000D02*
X412950000Y-72350000D01*
X413100000Y-76900000D02*
X413100000Y-72300000D01*
X413250000Y-76900000D02*
X413250000Y-72300000D01*
X413400000Y-76900000D02*
X413400000Y-72300000D01*
X413550000Y-76900000D02*
X413550000Y-72300000D01*
X413700000Y-76900000D02*
X413700000Y-72300000D01*
X413850000Y-76900000D02*
X413850000Y-72300000D01*
X414000000Y-76900000D02*
X414000000Y-72300000D01*
X414150000Y-76900000D02*
X414150000Y-72300000D01*
X414300000Y-76900000D02*
X414300000Y-72300000D01*
X414450000Y-76900000D02*
X414450000Y-72300000D01*
X414600000Y-76900000D02*
X414600000Y-72300000D01*
X414750000Y-76900000D02*
X414750000Y-72300000D01*
X414900000Y-76900000D02*
X414900000Y-72300000D01*
D11*
X415000000Y-72350000D02*
X412300000Y-76650000D01*
X415000000Y-76800000D02*
X415000000Y-72350000D01*
D10*
X415050000Y-76900000D02*
X415050000Y-72300000D01*
X415200000Y-76900000D02*
X415200000Y-72300000D01*
X415350000Y-76900000D02*
X415350000Y-72300000D01*
X415400000Y-72275000D02*
X412825000Y-72275000D01*
X415400000Y-72275000D02*
X416425000Y-73300000D01*
X415400000Y-76925000D02*
X412800000Y-76925000D01*
X415400000Y-76925000D02*
X416425000Y-75900000D01*
X415500000Y-76800000D02*
X415500000Y-72400000D01*
X415650000Y-76650000D02*
X415650000Y-72550000D01*
X415800000Y-76500000D02*
X415800000Y-72700000D01*
X415950000Y-76350000D02*
X415950000Y-72850000D01*
X416050000Y-76250000D02*
X416050000Y-72950000D01*
X416150000Y-76150000D02*
X416150000Y-73050000D01*
X416250000Y-76050000D02*
X416250000Y-73150000D01*
X416400000Y-73275000D02*
X416400000Y-75925000D01*
X407825000Y-70075000D02*
G75*
G03*
X406825000Y-71075000I-1J-999999D01*
G01*
X406825000Y-73725000D02*
G75*
G03*
X407825000Y-74725000I999999J-1D01*
G01*
X411937801Y-76221904D02*
G75*
G03*
X409800000Y-74725000I-2137802J-778098D01*
G01*
X411937802Y-76221904D02*
G75*
G03*
X412799005Y-76923790I899999J225000D01*
G01*
X411650000Y-71100000D02*
G75*
G03*
X412825000Y-72275000I1175002J2D01*
G01*
X508850000Y-124100000D02*
X508850000Y-120500000D01*
X509000000Y-124300000D02*
X509000000Y-120300000D01*
X509150000Y-124400000D02*
X509150000Y-120200000D01*
X509300000Y-124500000D02*
X509300000Y-120100000D01*
X509450000Y-124550000D02*
X509450000Y-120050000D01*
X509600000Y-124600000D02*
X509600000Y-120050000D01*
X509750000Y-124600000D02*
X509750000Y-120000000D01*
X509900000Y-124600000D02*
X509900000Y-120000000D01*
X510050000Y-124600000D02*
X510050000Y-120000000D01*
X510200000Y-124600000D02*
X510200000Y-120000000D01*
X510350000Y-124600000D02*
X510350000Y-120000000D01*
X510500000Y-124600000D02*
X510500000Y-120000000D01*
X510650000Y-124600000D02*
X510650000Y-120000000D01*
X510800000Y-124600000D02*
X510800000Y-120000000D01*
X510950000Y-124600000D02*
X510950000Y-120000000D01*
X511100000Y-124600000D02*
X511100000Y-120000000D01*
X511250000Y-124600000D02*
X511250000Y-120000000D01*
D11*
X511350000Y-124500000D02*
X511350000Y-120000000D01*
D10*
X511400000Y-124600000D02*
X511400000Y-120000000D01*
X511550000Y-124600000D02*
X511550000Y-120000000D01*
X511700000Y-124600000D02*
X511700000Y-120000000D01*
X511700000Y-124625000D02*
X509725000Y-124625000D01*
X511850000Y-124600000D02*
X511850000Y-120050000D01*
X512000000Y-124650000D02*
X512000000Y-120000000D01*
X512150000Y-124650000D02*
X512150000Y-120000000D01*
X512275000Y-119975000D02*
X509725000Y-119975000D01*
X512275000Y-119975000D02*
X513550000Y-121000000D01*
X512300000Y-124650000D02*
X512300000Y-120050000D01*
X512450000Y-124700000D02*
X512450000Y-120150000D01*
X512600000Y-124800000D02*
X512600000Y-120250000D01*
X512750000Y-124850000D02*
X512750000Y-120400000D01*
X512900000Y-124950000D02*
X512900000Y-120500000D01*
X513050000Y-125050000D02*
X513050000Y-120650000D01*
X513200000Y-125150000D02*
X513200000Y-120750000D01*
X513350000Y-125300000D02*
X513350000Y-120850000D01*
X513500000Y-125450000D02*
X513500000Y-121000000D01*
X513600000Y-125650000D02*
X513600000Y-121500000D01*
X513700000Y-125800000D02*
X513700000Y-121650000D01*
X513800000Y-126000000D02*
X513800000Y-121850000D01*
X513900000Y-126150000D02*
X513900000Y-121950000D01*
X514000000Y-126400000D02*
X514000000Y-122000000D01*
X514100000Y-126550000D02*
X514100000Y-122050000D01*
D11*
X514200000Y-122200000D02*
X511350000Y-124500000D01*
X514200000Y-126550000D02*
X514200000Y-122200000D01*
D10*
X514250000Y-126650000D02*
X514250000Y-122100000D01*
X514400000Y-126750000D02*
X514400000Y-122200000D01*
X514550000Y-126800000D02*
X514550000Y-122200000D01*
X514700000Y-126800000D02*
X514700000Y-122200000D01*
X514850000Y-126800000D02*
X514850000Y-122250000D01*
X515000000Y-126800000D02*
X515000000Y-122200000D01*
X515150000Y-126800000D02*
X515150000Y-122200000D01*
X515300000Y-126800000D02*
X515300000Y-122200000D01*
X515450000Y-126800000D02*
X515450000Y-122200000D01*
X515600000Y-126800000D02*
X515600000Y-122200000D01*
X515750000Y-126800000D02*
X515750000Y-122200000D01*
X515900000Y-126800000D02*
X515900000Y-122200000D01*
X516050000Y-126800000D02*
X516050000Y-122200000D01*
X516200000Y-126800000D02*
X516200000Y-122200000D01*
X516350000Y-126800000D02*
X516350000Y-122200000D01*
X516500000Y-126800000D02*
X516500000Y-122200000D01*
X516650000Y-126800000D02*
X516650000Y-122200000D01*
X516800000Y-126800000D02*
X516800000Y-122200000D01*
D11*
X516900000Y-122250000D02*
X514200000Y-126550000D01*
X516900000Y-126700000D02*
X516900000Y-122250000D01*
D10*
X516950000Y-126800000D02*
X516950000Y-122200000D01*
X517100000Y-126800000D02*
X517100000Y-122200000D01*
X517250000Y-126800000D02*
X517250000Y-122200000D01*
X517300000Y-122175000D02*
X514725000Y-122175000D01*
X517300000Y-122175000D02*
X518325000Y-123200000D01*
X517300000Y-126825000D02*
X514700000Y-126825000D01*
X517300000Y-126825000D02*
X518325000Y-125800000D01*
X517400000Y-126700000D02*
X517400000Y-122300000D01*
X517550000Y-126550000D02*
X517550000Y-122450000D01*
X517700000Y-126400000D02*
X517700000Y-122600000D01*
X517850000Y-126250000D02*
X517850000Y-122750000D01*
X517950000Y-126150000D02*
X517950000Y-122850000D01*
X518050000Y-126050000D02*
X518050000Y-122950000D01*
X518150000Y-125950000D02*
X518150000Y-123050000D01*
X518300000Y-123175000D02*
X518300000Y-125825000D01*
X509725000Y-119975000D02*
G75*
G03*
X508725000Y-120975000I-1J-999999D01*
G01*
X508725000Y-123625000D02*
G75*
G03*
X509725000Y-124625000I999999J-1D01*
G01*
X513837801Y-126121904D02*
G75*
G03*
X511700000Y-124625000I-2137802J-778098D01*
G01*
X513837802Y-126121904D02*
G75*
G03*
X514699005Y-126823790I899999J225000D01*
G01*
X513550000Y-121000000D02*
G75*
G03*
X514725000Y-122175000I1175002J2D01*
G01*
X346950000Y-82200000D02*
X346950000Y-78600000D01*
X347100000Y-82400000D02*
X347100000Y-78400000D01*
X347250000Y-82500000D02*
X347250000Y-78300000D01*
X347400000Y-82600000D02*
X347400000Y-78200000D01*
X347550000Y-82650000D02*
X347550000Y-78150000D01*
X347700000Y-82700000D02*
X347700000Y-78150000D01*
X347850000Y-82700000D02*
X347850000Y-78100000D01*
X348000000Y-82700000D02*
X348000000Y-78100000D01*
X348150000Y-82700000D02*
X348150000Y-78100000D01*
X348300000Y-82700000D02*
X348300000Y-78100000D01*
X348450000Y-82700000D02*
X348450000Y-78100000D01*
X348600000Y-82700000D02*
X348600000Y-78100000D01*
X348750000Y-82700000D02*
X348750000Y-78100000D01*
X348900000Y-82700000D02*
X348900000Y-78100000D01*
X349050000Y-82700000D02*
X349050000Y-78100000D01*
X349200000Y-82700000D02*
X349200000Y-78100000D01*
X349350000Y-82700000D02*
X349350000Y-78100000D01*
D11*
X349450000Y-82600000D02*
X349450000Y-78100000D01*
D10*
X349500000Y-82700000D02*
X349500000Y-78100000D01*
X349650000Y-82700000D02*
X349650000Y-78100000D01*
X349800000Y-82700000D02*
X349800000Y-78100000D01*
X349800000Y-82725000D02*
X347825000Y-82725000D01*
X349950000Y-82700000D02*
X349950000Y-78150000D01*
X350100000Y-82750000D02*
X350100000Y-78100000D01*
X350250000Y-82750000D02*
X350250000Y-78100000D01*
X350375000Y-78075000D02*
X347825000Y-78075000D01*
X350375000Y-78075000D02*
X351650000Y-79100000D01*
X350400000Y-82750000D02*
X350400000Y-78150000D01*
X350550000Y-82800000D02*
X350550000Y-78250000D01*
X350700000Y-82900000D02*
X350700000Y-78350000D01*
X350850000Y-82950000D02*
X350850000Y-78500000D01*
X351000000Y-83050000D02*
X351000000Y-78600000D01*
X351150000Y-83150000D02*
X351150000Y-78750000D01*
X351300000Y-83250000D02*
X351300000Y-78850000D01*
X351450000Y-83400000D02*
X351450000Y-78950000D01*
X351600000Y-83550000D02*
X351600000Y-79100000D01*
X351700000Y-83750000D02*
X351700000Y-79600000D01*
X351800000Y-83900000D02*
X351800000Y-79750000D01*
X351900000Y-84100000D02*
X351900000Y-79950000D01*
X352000000Y-84250000D02*
X352000000Y-80050000D01*
X352100000Y-84500000D02*
X352100000Y-80100000D01*
X352200000Y-84650000D02*
X352200000Y-80150000D01*
D11*
X352300000Y-80300000D02*
X349450000Y-82600000D01*
X352300000Y-84650000D02*
X352300000Y-80300000D01*
D10*
X352350000Y-84750000D02*
X352350000Y-80200000D01*
X352500000Y-84850000D02*
X352500000Y-80300000D01*
X352650000Y-84900000D02*
X352650000Y-80300000D01*
X352800000Y-84900000D02*
X352800000Y-80300000D01*
X352950000Y-84900000D02*
X352950000Y-80350000D01*
X353100000Y-84900000D02*
X353100000Y-80300000D01*
X353250000Y-84900000D02*
X353250000Y-80300000D01*
X353400000Y-84900000D02*
X353400000Y-80300000D01*
X353550000Y-84900000D02*
X353550000Y-80300000D01*
X353700000Y-84900000D02*
X353700000Y-80300000D01*
X353850000Y-84900000D02*
X353850000Y-80300000D01*
X354000000Y-84900000D02*
X354000000Y-80300000D01*
X354150000Y-84900000D02*
X354150000Y-80300000D01*
X354300000Y-84900000D02*
X354300000Y-80300000D01*
X354450000Y-84900000D02*
X354450000Y-80300000D01*
X354600000Y-84900000D02*
X354600000Y-80300000D01*
X354750000Y-84900000D02*
X354750000Y-80300000D01*
X354900000Y-84900000D02*
X354900000Y-80300000D01*
D11*
X355000000Y-80350000D02*
X352300000Y-84650000D01*
X355000000Y-84800000D02*
X355000000Y-80350000D01*
D10*
X355050000Y-84900000D02*
X355050000Y-80300000D01*
X355200000Y-84900000D02*
X355200000Y-80300000D01*
X355350000Y-84900000D02*
X355350000Y-80300000D01*
X355400000Y-80275000D02*
X352825000Y-80275000D01*
X355400000Y-80275000D02*
X356425000Y-81300000D01*
X355400000Y-84925000D02*
X352800000Y-84925000D01*
X355400000Y-84925000D02*
X356425000Y-83900000D01*
X355500000Y-84800000D02*
X355500000Y-80400000D01*
X355650000Y-84650000D02*
X355650000Y-80550000D01*
X355800000Y-84500000D02*
X355800000Y-80700000D01*
X355950000Y-84350000D02*
X355950000Y-80850000D01*
X356050000Y-84250000D02*
X356050000Y-80950000D01*
X356150000Y-84150000D02*
X356150000Y-81050000D01*
X356250000Y-84050000D02*
X356250000Y-81150000D01*
X356400000Y-81275000D02*
X356400000Y-83925000D01*
X347825000Y-78075000D02*
G75*
G03*
X346825000Y-79075000I-1J-999999D01*
G01*
X346825000Y-81725000D02*
G75*
G03*
X347825000Y-82725000I999999J-1D01*
G01*
X351937801Y-84221904D02*
G75*
G03*
X349800000Y-82725000I-2137802J-778098D01*
G01*
X351937802Y-84221904D02*
G75*
G03*
X352799005Y-84923790I899999J225000D01*
G01*
X351650000Y-79100000D02*
G75*
G03*
X352825000Y-80275000I1175002J2D01*
G01*
X480650000Y-160200000D02*
G75*
G03*
X481825000Y-161375000I1175002J2D01*
G01*
X480937802Y-165321904D02*
G75*
G03*
X481799005Y-166023790I899999J225000D01*
G01*
X480937801Y-165321904D02*
G75*
G03*
X478800000Y-163825000I-2137802J-778098D01*
G01*
X475825000Y-162825000D02*
G75*
G03*
X476825000Y-163825000I999999J-1D01*
G01*
X476825000Y-159175000D02*
G75*
G03*
X475825000Y-160175000I-1J-999999D01*
G01*
X485400000Y-162375000D02*
X485400000Y-165025000D01*
X485250000Y-165150000D02*
X485250000Y-162250000D01*
X485150000Y-165250000D02*
X485150000Y-162150000D01*
X485050000Y-165350000D02*
X485050000Y-162050000D01*
X484950000Y-165450000D02*
X484950000Y-161950000D01*
X484800000Y-165600000D02*
X484800000Y-161800000D01*
X484650000Y-165750000D02*
X484650000Y-161650000D01*
X484500000Y-165900000D02*
X484500000Y-161500000D01*
X484400000Y-166025000D02*
X485425000Y-165000000D01*
X484400000Y-166025000D02*
X481800000Y-166025000D01*
X484400000Y-161375000D02*
X485425000Y-162400000D01*
X484400000Y-161375000D02*
X481825000Y-161375000D01*
X484350000Y-166000000D02*
X484350000Y-161400000D01*
X484200000Y-166000000D02*
X484200000Y-161400000D01*
X484050000Y-166000000D02*
X484050000Y-161400000D01*
D11*
X484000000Y-165900000D02*
X484000000Y-161450000D01*
X484000000Y-161450000D02*
X481300000Y-165750000D01*
D10*
X483900000Y-166000000D02*
X483900000Y-161400000D01*
X483750000Y-166000000D02*
X483750000Y-161400000D01*
X483600000Y-166000000D02*
X483600000Y-161400000D01*
X483450000Y-166000000D02*
X483450000Y-161400000D01*
X483300000Y-166000000D02*
X483300000Y-161400000D01*
X483150000Y-166000000D02*
X483150000Y-161400000D01*
X483000000Y-166000000D02*
X483000000Y-161400000D01*
X482850000Y-166000000D02*
X482850000Y-161400000D01*
X482700000Y-166000000D02*
X482700000Y-161400000D01*
X482550000Y-166000000D02*
X482550000Y-161400000D01*
X482400000Y-166000000D02*
X482400000Y-161400000D01*
X482250000Y-166000000D02*
X482250000Y-161400000D01*
X482100000Y-166000000D02*
X482100000Y-161400000D01*
X481950000Y-166000000D02*
X481950000Y-161450000D01*
X481800000Y-166000000D02*
X481800000Y-161400000D01*
X481650000Y-166000000D02*
X481650000Y-161400000D01*
X481500000Y-165950000D02*
X481500000Y-161400000D01*
X481350000Y-165850000D02*
X481350000Y-161300000D01*
D11*
X481300000Y-165750000D02*
X481300000Y-161400000D01*
X481300000Y-161400000D02*
X478450000Y-163700000D01*
D10*
X481200000Y-165750000D02*
X481200000Y-161250000D01*
X481100000Y-165600000D02*
X481100000Y-161200000D01*
X481000000Y-165350000D02*
X481000000Y-161150000D01*
X480900000Y-165200000D02*
X480900000Y-161050000D01*
X480800000Y-165000000D02*
X480800000Y-160850000D01*
X480700000Y-164850000D02*
X480700000Y-160700000D01*
X480600000Y-164650000D02*
X480600000Y-160200000D01*
X480450000Y-164500000D02*
X480450000Y-160050000D01*
X480300000Y-164350000D02*
X480300000Y-159950000D01*
X480150000Y-164250000D02*
X480150000Y-159850000D01*
X480000000Y-164150000D02*
X480000000Y-159700000D01*
X479850000Y-164050000D02*
X479850000Y-159600000D01*
X479700000Y-164000000D02*
X479700000Y-159450000D01*
X479550000Y-163900000D02*
X479550000Y-159350000D01*
X479400000Y-163850000D02*
X479400000Y-159250000D01*
X479375000Y-159175000D02*
X480650000Y-160200000D01*
X479375000Y-159175000D02*
X476825000Y-159175000D01*
X479250000Y-163850000D02*
X479250000Y-159200000D01*
X479100000Y-163850000D02*
X479100000Y-159200000D01*
X478950000Y-163800000D02*
X478950000Y-159250000D01*
X478800000Y-163825000D02*
X476825000Y-163825000D01*
X478800000Y-163800000D02*
X478800000Y-159200000D01*
X478650000Y-163800000D02*
X478650000Y-159200000D01*
X478500000Y-163800000D02*
X478500000Y-159200000D01*
D11*
X478450000Y-163700000D02*
X478450000Y-159200000D01*
D10*
X478350000Y-163800000D02*
X478350000Y-159200000D01*
X478200000Y-163800000D02*
X478200000Y-159200000D01*
X478050000Y-163800000D02*
X478050000Y-159200000D01*
X477900000Y-163800000D02*
X477900000Y-159200000D01*
X477750000Y-163800000D02*
X477750000Y-159200000D01*
X477600000Y-163800000D02*
X477600000Y-159200000D01*
X477450000Y-163800000D02*
X477450000Y-159200000D01*
X477300000Y-163800000D02*
X477300000Y-159200000D01*
X477150000Y-163800000D02*
X477150000Y-159200000D01*
X477000000Y-163800000D02*
X477000000Y-159200000D01*
X476850000Y-163800000D02*
X476850000Y-159200000D01*
X476700000Y-163800000D02*
X476700000Y-159250000D01*
X476550000Y-163750000D02*
X476550000Y-159250000D01*
X476400000Y-163700000D02*
X476400000Y-159300000D01*
X476250000Y-163600000D02*
X476250000Y-159400000D01*
X476100000Y-163500000D02*
X476100000Y-159500000D01*
X475950000Y-163300000D02*
X475950000Y-159700000D01*
X568950000Y-108100000D02*
X568950000Y-104500000D01*
X569100000Y-108300000D02*
X569100000Y-104300000D01*
X569250000Y-108400000D02*
X569250000Y-104200000D01*
X569400000Y-108500000D02*
X569400000Y-104100000D01*
X569550000Y-108550000D02*
X569550000Y-104050000D01*
X569700000Y-108600000D02*
X569700000Y-104050000D01*
X569850000Y-108600000D02*
X569850000Y-104000000D01*
X570000000Y-108600000D02*
X570000000Y-104000000D01*
X570150000Y-108600000D02*
X570150000Y-104000000D01*
X570300000Y-108600000D02*
X570300000Y-104000000D01*
X570450000Y-108600000D02*
X570450000Y-104000000D01*
X570600000Y-108600000D02*
X570600000Y-104000000D01*
X570750000Y-108600000D02*
X570750000Y-104000000D01*
X570900000Y-108600000D02*
X570900000Y-104000000D01*
X571050000Y-108600000D02*
X571050000Y-104000000D01*
X571200000Y-108600000D02*
X571200000Y-104000000D01*
X571350000Y-108600000D02*
X571350000Y-104000000D01*
D11*
X571450000Y-108500000D02*
X571450000Y-104000000D01*
D10*
X571500000Y-108600000D02*
X571500000Y-104000000D01*
X571650000Y-108600000D02*
X571650000Y-104000000D01*
X571800000Y-108600000D02*
X571800000Y-104000000D01*
X571800000Y-108625000D02*
X569825000Y-108625000D01*
X571950000Y-108600000D02*
X571950000Y-104050000D01*
X572100000Y-108650000D02*
X572100000Y-104000000D01*
X572250000Y-108650000D02*
X572250000Y-104000000D01*
X572375000Y-103975000D02*
X569825000Y-103975000D01*
X572375000Y-103975000D02*
X573650000Y-105000000D01*
X572400000Y-108650000D02*
X572400000Y-104050000D01*
X572550000Y-108700000D02*
X572550000Y-104150000D01*
X572700000Y-108800000D02*
X572700000Y-104250000D01*
X572850000Y-108850000D02*
X572850000Y-104400000D01*
X573000000Y-108950000D02*
X573000000Y-104500000D01*
X573150000Y-109050000D02*
X573150000Y-104650000D01*
X573300000Y-109150000D02*
X573300000Y-104750000D01*
X573450000Y-109300000D02*
X573450000Y-104850000D01*
X573600000Y-109450000D02*
X573600000Y-105000000D01*
X573700000Y-109650000D02*
X573700000Y-105500000D01*
X573800000Y-109800000D02*
X573800000Y-105650000D01*
X573900000Y-110000000D02*
X573900000Y-105850000D01*
X574000000Y-110150000D02*
X574000000Y-105950000D01*
X574100000Y-110400000D02*
X574100000Y-106000000D01*
X574200000Y-110550000D02*
X574200000Y-106050000D01*
D11*
X574300000Y-106200000D02*
X571450000Y-108500000D01*
X574300000Y-110550000D02*
X574300000Y-106200000D01*
D10*
X574350000Y-110650000D02*
X574350000Y-106100000D01*
X574500000Y-110750000D02*
X574500000Y-106200000D01*
X574650000Y-110800000D02*
X574650000Y-106200000D01*
X574800000Y-110800000D02*
X574800000Y-106200000D01*
X574950000Y-110800000D02*
X574950000Y-106250000D01*
X575100000Y-110800000D02*
X575100000Y-106200000D01*
X575250000Y-110800000D02*
X575250000Y-106200000D01*
X575400000Y-110800000D02*
X575400000Y-106200000D01*
X575550000Y-110800000D02*
X575550000Y-106200000D01*
X575700000Y-110800000D02*
X575700000Y-106200000D01*
X575850000Y-110800000D02*
X575850000Y-106200000D01*
X576000000Y-110800000D02*
X576000000Y-106200000D01*
X576150000Y-110800000D02*
X576150000Y-106200000D01*
X576300000Y-110800000D02*
X576300000Y-106200000D01*
X576450000Y-110800000D02*
X576450000Y-106200000D01*
X576600000Y-110800000D02*
X576600000Y-106200000D01*
X576750000Y-110800000D02*
X576750000Y-106200000D01*
X576900000Y-110800000D02*
X576900000Y-106200000D01*
D11*
X577000000Y-106250000D02*
X574300000Y-110550000D01*
X577000000Y-110700000D02*
X577000000Y-106250000D01*
D10*
X577050000Y-110800000D02*
X577050000Y-106200000D01*
X577200000Y-110800000D02*
X577200000Y-106200000D01*
X577350000Y-110800000D02*
X577350000Y-106200000D01*
X577400000Y-106175000D02*
X574825000Y-106175000D01*
X577400000Y-106175000D02*
X578425000Y-107200000D01*
X577400000Y-110825000D02*
X574800000Y-110825000D01*
X577400000Y-110825000D02*
X578425000Y-109800000D01*
X577500000Y-110700000D02*
X577500000Y-106300000D01*
X577650000Y-110550000D02*
X577650000Y-106450000D01*
X577800000Y-110400000D02*
X577800000Y-106600000D01*
X577950000Y-110250000D02*
X577950000Y-106750000D01*
X578050000Y-110150000D02*
X578050000Y-106850000D01*
X578150000Y-110050000D02*
X578150000Y-106950000D01*
X578250000Y-109950000D02*
X578250000Y-107050000D01*
X578400000Y-107175000D02*
X578400000Y-109825000D01*
X569825000Y-103975000D02*
G75*
G03*
X568825000Y-104975000I-1J-999999D01*
G01*
X568825000Y-107625000D02*
G75*
G03*
X569825000Y-108625000I999999J-1D01*
G01*
X573937801Y-110121904D02*
G75*
G03*
X571800000Y-108625000I-2137802J-778098D01*
G01*
X573937802Y-110121904D02*
G75*
G03*
X574799005Y-110823790I899999J225000D01*
G01*
X573650000Y-105000000D02*
G75*
G03*
X574825000Y-106175000I1175002J2D01*
G01*
X543950000Y-74200000D02*
X543950000Y-70600000D01*
X544100000Y-74400000D02*
X544100000Y-70400000D01*
X544250000Y-74500000D02*
X544250000Y-70300000D01*
X544400000Y-74600000D02*
X544400000Y-70200000D01*
X544550000Y-74650000D02*
X544550000Y-70150000D01*
X544700000Y-74700000D02*
X544700000Y-70150000D01*
X544850000Y-74700000D02*
X544850000Y-70100000D01*
X545000000Y-74700000D02*
X545000000Y-70100000D01*
X545150000Y-74700000D02*
X545150000Y-70100000D01*
X545300000Y-74700000D02*
X545300000Y-70100000D01*
X545450000Y-74700000D02*
X545450000Y-70100000D01*
X545600000Y-74700000D02*
X545600000Y-70100000D01*
X545750000Y-74700000D02*
X545750000Y-70100000D01*
X545900000Y-74700000D02*
X545900000Y-70100000D01*
X546050000Y-74700000D02*
X546050000Y-70100000D01*
X546200000Y-74700000D02*
X546200000Y-70100000D01*
X546350000Y-74700000D02*
X546350000Y-70100000D01*
D11*
X546450000Y-74600000D02*
X546450000Y-70100000D01*
D10*
X546500000Y-74700000D02*
X546500000Y-70100000D01*
X546650000Y-74700000D02*
X546650000Y-70100000D01*
X546800000Y-74700000D02*
X546800000Y-70100000D01*
X546800000Y-74725000D02*
X544825000Y-74725000D01*
X546950000Y-74700000D02*
X546950000Y-70150000D01*
X547100000Y-74750000D02*
X547100000Y-70100000D01*
X547250000Y-74750000D02*
X547250000Y-70100000D01*
X547375000Y-70075000D02*
X544825000Y-70075000D01*
X547375000Y-70075000D02*
X548650000Y-71100000D01*
X547400000Y-74750000D02*
X547400000Y-70150000D01*
X547550000Y-74800000D02*
X547550000Y-70250000D01*
X547700000Y-74900000D02*
X547700000Y-70350000D01*
X547850000Y-74950000D02*
X547850000Y-70500000D01*
X548000000Y-75050000D02*
X548000000Y-70600000D01*
X548150000Y-75150000D02*
X548150000Y-70750000D01*
X548300000Y-75250000D02*
X548300000Y-70850000D01*
X548450000Y-75400000D02*
X548450000Y-70950000D01*
X548600000Y-75550000D02*
X548600000Y-71100000D01*
X548700000Y-75750000D02*
X548700000Y-71600000D01*
X548800000Y-75900000D02*
X548800000Y-71750000D01*
X548900000Y-76100000D02*
X548900000Y-71950000D01*
X549000000Y-76250000D02*
X549000000Y-72050000D01*
X549100000Y-76500000D02*
X549100000Y-72100000D01*
X549200000Y-76650000D02*
X549200000Y-72150000D01*
D11*
X549300000Y-72300000D02*
X546450000Y-74600000D01*
X549300000Y-76650000D02*
X549300000Y-72300000D01*
D10*
X549350000Y-76750000D02*
X549350000Y-72200000D01*
X549500000Y-76850000D02*
X549500000Y-72300000D01*
X549650000Y-76900000D02*
X549650000Y-72300000D01*
X549800000Y-76900000D02*
X549800000Y-72300000D01*
X549950000Y-76900000D02*
X549950000Y-72350000D01*
X550100000Y-76900000D02*
X550100000Y-72300000D01*
X550250000Y-76900000D02*
X550250000Y-72300000D01*
X550400000Y-76900000D02*
X550400000Y-72300000D01*
X550550000Y-76900000D02*
X550550000Y-72300000D01*
X550700000Y-76900000D02*
X550700000Y-72300000D01*
X550850000Y-76900000D02*
X550850000Y-72300000D01*
X551000000Y-76900000D02*
X551000000Y-72300000D01*
X551150000Y-76900000D02*
X551150000Y-72300000D01*
X551300000Y-76900000D02*
X551300000Y-72300000D01*
X551450000Y-76900000D02*
X551450000Y-72300000D01*
X551600000Y-76900000D02*
X551600000Y-72300000D01*
X551750000Y-76900000D02*
X551750000Y-72300000D01*
X551900000Y-76900000D02*
X551900000Y-72300000D01*
D11*
X552000000Y-72350000D02*
X549300000Y-76650000D01*
X552000000Y-76800000D02*
X552000000Y-72350000D01*
D10*
X552050000Y-76900000D02*
X552050000Y-72300000D01*
X552200000Y-76900000D02*
X552200000Y-72300000D01*
X552350000Y-76900000D02*
X552350000Y-72300000D01*
X552400000Y-72275000D02*
X549825000Y-72275000D01*
X552400000Y-72275000D02*
X553425000Y-73300000D01*
X552400000Y-76925000D02*
X549800000Y-76925000D01*
X552400000Y-76925000D02*
X553425000Y-75900000D01*
X552500000Y-76800000D02*
X552500000Y-72400000D01*
X552650000Y-76650000D02*
X552650000Y-72550000D01*
X552800000Y-76500000D02*
X552800000Y-72700000D01*
X552950000Y-76350000D02*
X552950000Y-72850000D01*
X553050000Y-76250000D02*
X553050000Y-72950000D01*
X553150000Y-76150000D02*
X553150000Y-73050000D01*
X553250000Y-76050000D02*
X553250000Y-73150000D01*
X553400000Y-73275000D02*
X553400000Y-75925000D01*
X544825000Y-70075000D02*
G75*
G03*
X543825000Y-71075000I-1J-999999D01*
G01*
X543825000Y-73725000D02*
G75*
G03*
X544825000Y-74725000I999999J-1D01*
G01*
X548937801Y-76221904D02*
G75*
G03*
X546800000Y-74725000I-2137802J-778098D01*
G01*
X548937802Y-76221904D02*
G75*
G03*
X549799005Y-76923790I899999J225000D01*
G01*
X548650000Y-71100000D02*
G75*
G03*
X549825000Y-72275000I1175002J2D01*
G01*
X376850000Y-72200000D02*
X376850000Y-68600000D01*
X377000000Y-72400000D02*
X377000000Y-68400000D01*
X377150000Y-72500000D02*
X377150000Y-68300000D01*
X377300000Y-72600000D02*
X377300000Y-68200000D01*
X377450000Y-72650000D02*
X377450000Y-68150000D01*
X377600000Y-72700000D02*
X377600000Y-68150000D01*
X377750000Y-72700000D02*
X377750000Y-68100000D01*
X377900000Y-72700000D02*
X377900000Y-68100000D01*
X378050000Y-72700000D02*
X378050000Y-68100000D01*
X378200000Y-72700000D02*
X378200000Y-68100000D01*
X378350000Y-72700000D02*
X378350000Y-68100000D01*
X378500000Y-72700000D02*
X378500000Y-68100000D01*
X378650000Y-72700000D02*
X378650000Y-68100000D01*
X378800000Y-72700000D02*
X378800000Y-68100000D01*
X378950000Y-72700000D02*
X378950000Y-68100000D01*
X379100000Y-72700000D02*
X379100000Y-68100000D01*
X379250000Y-72700000D02*
X379250000Y-68100000D01*
D11*
X379350000Y-72600000D02*
X379350000Y-68100000D01*
D10*
X379400000Y-72700000D02*
X379400000Y-68100000D01*
X379550000Y-72700000D02*
X379550000Y-68100000D01*
X379700000Y-72700000D02*
X379700000Y-68100000D01*
X379700000Y-72725000D02*
X377725000Y-72725000D01*
X379850000Y-72700000D02*
X379850000Y-68150000D01*
X380000000Y-72750000D02*
X380000000Y-68100000D01*
X380150000Y-72750000D02*
X380150000Y-68100000D01*
X380275000Y-68075000D02*
X377725000Y-68075000D01*
X380275000Y-68075000D02*
X381550000Y-69100000D01*
X380300000Y-72750000D02*
X380300000Y-68150000D01*
X380450000Y-72800000D02*
X380450000Y-68250000D01*
X380600000Y-72900000D02*
X380600000Y-68350000D01*
X380750000Y-72950000D02*
X380750000Y-68500000D01*
X380900000Y-73050000D02*
X380900000Y-68600000D01*
X381050000Y-73150000D02*
X381050000Y-68750000D01*
X381200000Y-73250000D02*
X381200000Y-68850000D01*
X381350000Y-73400000D02*
X381350000Y-68950000D01*
X381500000Y-73550000D02*
X381500000Y-69100000D01*
X381600000Y-73750000D02*
X381600000Y-69600000D01*
X381700000Y-73900000D02*
X381700000Y-69750000D01*
X381800000Y-74100000D02*
X381800000Y-69950000D01*
X381900000Y-74250000D02*
X381900000Y-70050000D01*
X382000000Y-74500000D02*
X382000000Y-70100000D01*
X382100000Y-74650000D02*
X382100000Y-70150000D01*
D11*
X382200000Y-70300000D02*
X379350000Y-72600000D01*
X382200000Y-74650000D02*
X382200000Y-70300000D01*
D10*
X382250000Y-74750000D02*
X382250000Y-70200000D01*
X382400000Y-74850000D02*
X382400000Y-70300000D01*
X382550000Y-74900000D02*
X382550000Y-70300000D01*
X382700000Y-74900000D02*
X382700000Y-70300000D01*
X382850000Y-74900000D02*
X382850000Y-70350000D01*
X383000000Y-74900000D02*
X383000000Y-70300000D01*
X383150000Y-74900000D02*
X383150000Y-70300000D01*
X383300000Y-74900000D02*
X383300000Y-70300000D01*
X383450000Y-74900000D02*
X383450000Y-70300000D01*
X383600000Y-74900000D02*
X383600000Y-70300000D01*
X383750000Y-74900000D02*
X383750000Y-70300000D01*
X383900000Y-74900000D02*
X383900000Y-70300000D01*
X384050000Y-74900000D02*
X384050000Y-70300000D01*
X384200000Y-74900000D02*
X384200000Y-70300000D01*
X384350000Y-74900000D02*
X384350000Y-70300000D01*
X384500000Y-74900000D02*
X384500000Y-70300000D01*
X384650000Y-74900000D02*
X384650000Y-70300000D01*
X384800000Y-74900000D02*
X384800000Y-70300000D01*
D11*
X384900000Y-70350000D02*
X382200000Y-74650000D01*
X384900000Y-74800000D02*
X384900000Y-70350000D01*
D10*
X384950000Y-74900000D02*
X384950000Y-70300000D01*
X385100000Y-74900000D02*
X385100000Y-70300000D01*
X385250000Y-74900000D02*
X385250000Y-70300000D01*
X385300000Y-70275000D02*
X382725000Y-70275000D01*
X385300000Y-70275000D02*
X386325000Y-71300000D01*
X385300000Y-74925000D02*
X382700000Y-74925000D01*
X385300000Y-74925000D02*
X386325000Y-73900000D01*
X385400000Y-74800000D02*
X385400000Y-70400000D01*
X385550000Y-74650000D02*
X385550000Y-70550000D01*
X385700000Y-74500000D02*
X385700000Y-70700000D01*
X385850000Y-74350000D02*
X385850000Y-70850000D01*
X385950000Y-74250000D02*
X385950000Y-70950000D01*
X386050000Y-74150000D02*
X386050000Y-71050000D01*
X386150000Y-74050000D02*
X386150000Y-71150000D01*
X386300000Y-71275000D02*
X386300000Y-73925000D01*
X377725000Y-68075000D02*
G75*
G03*
X376725000Y-69075000I-1J-999999D01*
G01*
X376725000Y-71725000D02*
G75*
G03*
X377725000Y-72725000I999999J-1D01*
G01*
X381837801Y-74221904D02*
G75*
G03*
X379700000Y-72725000I-2137802J-778098D01*
G01*
X381837802Y-74221904D02*
G75*
G03*
X382699005Y-74923790I899999J225000D01*
G01*
X381550000Y-69100000D02*
G75*
G03*
X382725000Y-70275000I1175002J2D01*
G01*
X436850000Y-88200000D02*
X436850000Y-84600000D01*
X437000000Y-88400000D02*
X437000000Y-84400000D01*
X437150000Y-88500000D02*
X437150000Y-84300000D01*
X437300000Y-88600000D02*
X437300000Y-84200000D01*
X437450000Y-88650000D02*
X437450000Y-84150000D01*
X437600000Y-88700000D02*
X437600000Y-84150000D01*
X437750000Y-88700000D02*
X437750000Y-84100000D01*
X437900000Y-88700000D02*
X437900000Y-84100000D01*
X438050000Y-88700000D02*
X438050000Y-84100000D01*
X438200000Y-88700000D02*
X438200000Y-84100000D01*
X438350000Y-88700000D02*
X438350000Y-84100000D01*
X438500000Y-88700000D02*
X438500000Y-84100000D01*
X438650000Y-88700000D02*
X438650000Y-84100000D01*
X438800000Y-88700000D02*
X438800000Y-84100000D01*
X438950000Y-88700000D02*
X438950000Y-84100000D01*
X439100000Y-88700000D02*
X439100000Y-84100000D01*
X439250000Y-88700000D02*
X439250000Y-84100000D01*
D11*
X439350000Y-88600000D02*
X439350000Y-84100000D01*
D10*
X439400000Y-88700000D02*
X439400000Y-84100000D01*
X439550000Y-88700000D02*
X439550000Y-84100000D01*
X439700000Y-88700000D02*
X439700000Y-84100000D01*
X439700000Y-88725000D02*
X437725000Y-88725000D01*
X439850000Y-88700000D02*
X439850000Y-84150000D01*
X440000000Y-88750000D02*
X440000000Y-84100000D01*
X440150000Y-88750000D02*
X440150000Y-84100000D01*
X440275000Y-84075000D02*
X437725000Y-84075000D01*
X440275000Y-84075000D02*
X441550000Y-85100000D01*
X440300000Y-88750000D02*
X440300000Y-84150000D01*
X440450000Y-88800000D02*
X440450000Y-84250000D01*
X440600000Y-88900000D02*
X440600000Y-84350000D01*
X440750000Y-88950000D02*
X440750000Y-84500000D01*
X440900000Y-89050000D02*
X440900000Y-84600000D01*
X441050000Y-89150000D02*
X441050000Y-84750000D01*
X441200000Y-89250000D02*
X441200000Y-84850000D01*
X441350000Y-89400000D02*
X441350000Y-84950000D01*
X441500000Y-89550000D02*
X441500000Y-85100000D01*
X441600000Y-89750000D02*
X441600000Y-85600000D01*
X441700000Y-89900000D02*
X441700000Y-85750000D01*
X441800000Y-90100000D02*
X441800000Y-85950000D01*
X441900000Y-90250000D02*
X441900000Y-86050000D01*
X442000000Y-90500000D02*
X442000000Y-86100000D01*
X442100000Y-90650000D02*
X442100000Y-86150000D01*
D11*
X442200000Y-86300000D02*
X439350000Y-88600000D01*
X442200000Y-90650000D02*
X442200000Y-86300000D01*
D10*
X442250000Y-90750000D02*
X442250000Y-86200000D01*
X442400000Y-90850000D02*
X442400000Y-86300000D01*
X442550000Y-90900000D02*
X442550000Y-86300000D01*
X442700000Y-90900000D02*
X442700000Y-86300000D01*
X442850000Y-90900000D02*
X442850000Y-86350000D01*
X443000000Y-90900000D02*
X443000000Y-86300000D01*
X443150000Y-90900000D02*
X443150000Y-86300000D01*
X443300000Y-90900000D02*
X443300000Y-86300000D01*
X443450000Y-90900000D02*
X443450000Y-86300000D01*
X443600000Y-90900000D02*
X443600000Y-86300000D01*
X443750000Y-90900000D02*
X443750000Y-86300000D01*
X443900000Y-90900000D02*
X443900000Y-86300000D01*
X444050000Y-90900000D02*
X444050000Y-86300000D01*
X444200000Y-90900000D02*
X444200000Y-86300000D01*
X444350000Y-90900000D02*
X444350000Y-86300000D01*
X444500000Y-90900000D02*
X444500000Y-86300000D01*
X444650000Y-90900000D02*
X444650000Y-86300000D01*
X444800000Y-90900000D02*
X444800000Y-86300000D01*
D11*
X444900000Y-86350000D02*
X442200000Y-90650000D01*
X444900000Y-90800000D02*
X444900000Y-86350000D01*
D10*
X444950000Y-90900000D02*
X444950000Y-86300000D01*
X445100000Y-90900000D02*
X445100000Y-86300000D01*
X445250000Y-90900000D02*
X445250000Y-86300000D01*
X445300000Y-86275000D02*
X442725000Y-86275000D01*
X445300000Y-86275000D02*
X446325000Y-87300000D01*
X445300000Y-90925000D02*
X442700000Y-90925000D01*
X445300000Y-90925000D02*
X446325000Y-89900000D01*
X445400000Y-90800000D02*
X445400000Y-86400000D01*
X445550000Y-90650000D02*
X445550000Y-86550000D01*
X445700000Y-90500000D02*
X445700000Y-86700000D01*
X445850000Y-90350000D02*
X445850000Y-86850000D01*
X445950000Y-90250000D02*
X445950000Y-86950000D01*
X446050000Y-90150000D02*
X446050000Y-87050000D01*
X446150000Y-90050000D02*
X446150000Y-87150000D01*
X446300000Y-87275000D02*
X446300000Y-89925000D01*
X437725000Y-84075000D02*
G75*
G03*
X436725000Y-85075000I-1J-999999D01*
G01*
X436725000Y-87725000D02*
G75*
G03*
X437725000Y-88725000I999999J-1D01*
G01*
X441837801Y-90221904D02*
G75*
G03*
X439700000Y-88725000I-2137802J-778098D01*
G01*
X441837802Y-90221904D02*
G75*
G03*
X442699005Y-90923790I899999J225000D01*
G01*
X441550000Y-85100000D02*
G75*
G03*
X442725000Y-86275000I1175002J2D01*
G01*
X601950000Y-113200000D02*
X601950000Y-109600000D01*
X602100000Y-113400000D02*
X602100000Y-109400000D01*
X602250000Y-113500000D02*
X602250000Y-109300000D01*
X602400000Y-113600000D02*
X602400000Y-109200000D01*
X602550000Y-113650000D02*
X602550000Y-109150000D01*
X602700000Y-113700000D02*
X602700000Y-109150000D01*
X602850000Y-113700000D02*
X602850000Y-109100000D01*
X603000000Y-113700000D02*
X603000000Y-109100000D01*
X603150000Y-113700000D02*
X603150000Y-109100000D01*
X603300000Y-113700000D02*
X603300000Y-109100000D01*
X603450000Y-113700000D02*
X603450000Y-109100000D01*
X603600000Y-113700000D02*
X603600000Y-109100000D01*
X603750000Y-113700000D02*
X603750000Y-109100000D01*
X603900000Y-113700000D02*
X603900000Y-109100000D01*
X604050000Y-113700000D02*
X604050000Y-109100000D01*
X604200000Y-113700000D02*
X604200000Y-109100000D01*
X604350000Y-113700000D02*
X604350000Y-109100000D01*
D11*
X604450000Y-113600000D02*
X604450000Y-109100000D01*
D10*
X604500000Y-113700000D02*
X604500000Y-109100000D01*
X604650000Y-113700000D02*
X604650000Y-109100000D01*
X604800000Y-113700000D02*
X604800000Y-109100000D01*
X604800000Y-113725000D02*
X602825000Y-113725000D01*
X604950000Y-113700000D02*
X604950000Y-109150000D01*
X605100000Y-113750000D02*
X605100000Y-109100000D01*
X605250000Y-113750000D02*
X605250000Y-109100000D01*
X605375000Y-109075000D02*
X602825000Y-109075000D01*
X605375000Y-109075000D02*
X606650000Y-110100000D01*
X605400000Y-113750000D02*
X605400000Y-109150000D01*
X605550000Y-113800000D02*
X605550000Y-109250000D01*
X605700000Y-113900000D02*
X605700000Y-109350000D01*
X605850000Y-113950000D02*
X605850000Y-109500000D01*
X606000000Y-114050000D02*
X606000000Y-109600000D01*
X606150000Y-114150000D02*
X606150000Y-109750000D01*
X606300000Y-114250000D02*
X606300000Y-109850000D01*
X606450000Y-114400000D02*
X606450000Y-109950000D01*
X606600000Y-114550000D02*
X606600000Y-110100000D01*
X606700000Y-114750000D02*
X606700000Y-110600000D01*
X606800000Y-114900000D02*
X606800000Y-110750000D01*
X606900000Y-115100000D02*
X606900000Y-110950000D01*
X607000000Y-115250000D02*
X607000000Y-111050000D01*
X607100000Y-115500000D02*
X607100000Y-111100000D01*
X607200000Y-115650000D02*
X607200000Y-111150000D01*
D11*
X607300000Y-111300000D02*
X604450000Y-113600000D01*
X607300000Y-115650000D02*
X607300000Y-111300000D01*
D10*
X607350000Y-115750000D02*
X607350000Y-111200000D01*
X607500000Y-115850000D02*
X607500000Y-111300000D01*
X607650000Y-115900000D02*
X607650000Y-111300000D01*
X607800000Y-115900000D02*
X607800000Y-111300000D01*
X607950000Y-115900000D02*
X607950000Y-111350000D01*
X608100000Y-115900000D02*
X608100000Y-111300000D01*
X608250000Y-115900000D02*
X608250000Y-111300000D01*
X608400000Y-115900000D02*
X608400000Y-111300000D01*
X608550000Y-115900000D02*
X608550000Y-111300000D01*
X608700000Y-115900000D02*
X608700000Y-111300000D01*
X608850000Y-115900000D02*
X608850000Y-111300000D01*
X609000000Y-115900000D02*
X609000000Y-111300000D01*
X609150000Y-115900000D02*
X609150000Y-111300000D01*
X609300000Y-115900000D02*
X609300000Y-111300000D01*
X609450000Y-115900000D02*
X609450000Y-111300000D01*
X609600000Y-115900000D02*
X609600000Y-111300000D01*
X609750000Y-115900000D02*
X609750000Y-111300000D01*
X609900000Y-115900000D02*
X609900000Y-111300000D01*
D11*
X610000000Y-111350000D02*
X607300000Y-115650000D01*
X610000000Y-115800000D02*
X610000000Y-111350000D01*
D10*
X610050000Y-115900000D02*
X610050000Y-111300000D01*
X610200000Y-115900000D02*
X610200000Y-111300000D01*
X610350000Y-115900000D02*
X610350000Y-111300000D01*
X610400000Y-111275000D02*
X607825000Y-111275000D01*
X610400000Y-111275000D02*
X611425000Y-112300000D01*
X610400000Y-115925000D02*
X607800000Y-115925000D01*
X610400000Y-115925000D02*
X611425000Y-114900000D01*
X610500000Y-115800000D02*
X610500000Y-111400000D01*
X610650000Y-115650000D02*
X610650000Y-111550000D01*
X610800000Y-115500000D02*
X610800000Y-111700000D01*
X610950000Y-115350000D02*
X610950000Y-111850000D01*
X611050000Y-115250000D02*
X611050000Y-111950000D01*
X611150000Y-115150000D02*
X611150000Y-112050000D01*
X611250000Y-115050000D02*
X611250000Y-112150000D01*
X611400000Y-112275000D02*
X611400000Y-114925000D01*
X602825000Y-109075000D02*
G75*
G03*
X601825000Y-110075000I-1J-999999D01*
G01*
X601825000Y-112725000D02*
G75*
G03*
X602825000Y-113725000I999999J-1D01*
G01*
X606937801Y-115221904D02*
G75*
G03*
X604800000Y-113725000I-2137802J-778098D01*
G01*
X606937802Y-115221904D02*
G75*
G03*
X607799005Y-115923790I899999J225000D01*
G01*
X606650000Y-110100000D02*
G75*
G03*
X607825000Y-111275000I1175002J2D01*
G01*
X513950000Y-88300000D02*
X513950000Y-84700000D01*
X514100000Y-88500000D02*
X514100000Y-84500000D01*
X514250000Y-88600000D02*
X514250000Y-84400000D01*
X514400000Y-88700000D02*
X514400000Y-84300000D01*
X514550000Y-88750000D02*
X514550000Y-84250000D01*
X514700000Y-88800000D02*
X514700000Y-84250000D01*
X514850000Y-88800000D02*
X514850000Y-84200000D01*
X515000000Y-88800000D02*
X515000000Y-84200000D01*
X515150000Y-88800000D02*
X515150000Y-84200000D01*
X515300000Y-88800000D02*
X515300000Y-84200000D01*
X515450000Y-88800000D02*
X515450000Y-84200000D01*
X515600000Y-88800000D02*
X515600000Y-84200000D01*
X515750000Y-88800000D02*
X515750000Y-84200000D01*
X515900000Y-88800000D02*
X515900000Y-84200000D01*
X516050000Y-88800000D02*
X516050000Y-84200000D01*
X516200000Y-88800000D02*
X516200000Y-84200000D01*
X516350000Y-88800000D02*
X516350000Y-84200000D01*
D11*
X516450000Y-88700000D02*
X516450000Y-84200000D01*
D10*
X516500000Y-88800000D02*
X516500000Y-84200000D01*
X516650000Y-88800000D02*
X516650000Y-84200000D01*
X516800000Y-88800000D02*
X516800000Y-84200000D01*
X516800000Y-88825000D02*
X514825000Y-88825000D01*
X516950000Y-88800000D02*
X516950000Y-84250000D01*
X517100000Y-88850000D02*
X517100000Y-84200000D01*
X517250000Y-88850000D02*
X517250000Y-84200000D01*
X517375000Y-84175000D02*
X514825000Y-84175000D01*
X517375000Y-84175000D02*
X518650000Y-85200000D01*
X517400000Y-88850000D02*
X517400000Y-84250000D01*
X517550000Y-88900000D02*
X517550000Y-84350000D01*
X517700000Y-89000000D02*
X517700000Y-84450000D01*
X517850000Y-89050000D02*
X517850000Y-84600000D01*
X518000000Y-89150000D02*
X518000000Y-84700000D01*
X518150000Y-89250000D02*
X518150000Y-84850000D01*
X518300000Y-89350000D02*
X518300000Y-84950000D01*
X518450000Y-89500000D02*
X518450000Y-85050000D01*
X518600000Y-89650000D02*
X518600000Y-85200000D01*
X518700000Y-89850000D02*
X518700000Y-85700000D01*
X518800000Y-90000000D02*
X518800000Y-85850000D01*
X518900000Y-90200000D02*
X518900000Y-86050000D01*
X519000000Y-90350000D02*
X519000000Y-86150000D01*
X519100000Y-90600000D02*
X519100000Y-86200000D01*
X519200000Y-90750000D02*
X519200000Y-86250000D01*
D11*
X519300000Y-86400000D02*
X516450000Y-88700000D01*
X519300000Y-90750000D02*
X519300000Y-86400000D01*
D10*
X519350000Y-90850000D02*
X519350000Y-86300000D01*
X519500000Y-90950000D02*
X519500000Y-86400000D01*
X519650000Y-91000000D02*
X519650000Y-86400000D01*
X519800000Y-91000000D02*
X519800000Y-86400000D01*
X519950000Y-91000000D02*
X519950000Y-86450000D01*
X520100000Y-91000000D02*
X520100000Y-86400000D01*
X520250000Y-91000000D02*
X520250000Y-86400000D01*
X520400000Y-91000000D02*
X520400000Y-86400000D01*
X520550000Y-91000000D02*
X520550000Y-86400000D01*
X520700000Y-91000000D02*
X520700000Y-86400000D01*
X520850000Y-91000000D02*
X520850000Y-86400000D01*
X521000000Y-91000000D02*
X521000000Y-86400000D01*
X521150000Y-91000000D02*
X521150000Y-86400000D01*
X521300000Y-91000000D02*
X521300000Y-86400000D01*
X521450000Y-91000000D02*
X521450000Y-86400000D01*
X521600000Y-91000000D02*
X521600000Y-86400000D01*
X521750000Y-91000000D02*
X521750000Y-86400000D01*
X521900000Y-91000000D02*
X521900000Y-86400000D01*
D11*
X522000000Y-86450000D02*
X519300000Y-90750000D01*
X522000000Y-90900000D02*
X522000000Y-86450000D01*
D10*
X522050000Y-91000000D02*
X522050000Y-86400000D01*
X522200000Y-91000000D02*
X522200000Y-86400000D01*
X522350000Y-91000000D02*
X522350000Y-86400000D01*
X522400000Y-86375000D02*
X519825000Y-86375000D01*
X522400000Y-86375000D02*
X523425000Y-87400000D01*
X522400000Y-91025000D02*
X519800000Y-91025000D01*
X522400000Y-91025000D02*
X523425000Y-90000000D01*
X522500000Y-90900000D02*
X522500000Y-86500000D01*
X522650000Y-90750000D02*
X522650000Y-86650000D01*
X522800000Y-90600000D02*
X522800000Y-86800000D01*
X522950000Y-90450000D02*
X522950000Y-86950000D01*
X523050000Y-90350000D02*
X523050000Y-87050000D01*
X523150000Y-90250000D02*
X523150000Y-87150000D01*
X523250000Y-90150000D02*
X523250000Y-87250000D01*
X523400000Y-87375000D02*
X523400000Y-90025000D01*
X514825000Y-84175000D02*
G75*
G03*
X513825000Y-85175000I-1J-999999D01*
G01*
X513825000Y-87825000D02*
G75*
G03*
X514825000Y-88825000I999999J-1D01*
G01*
X518937801Y-90321904D02*
G75*
G03*
X516800000Y-88825000I-2137802J-778098D01*
G01*
X518937802Y-90321904D02*
G75*
G03*
X519799005Y-91023790I899999J225000D01*
G01*
X518650000Y-85200000D02*
G75*
G03*
X519825000Y-86375000I1175002J2D01*
G01*
X573950000Y-72200000D02*
X573950000Y-68600000D01*
X574100000Y-72400000D02*
X574100000Y-68400000D01*
X574250000Y-72500000D02*
X574250000Y-68300000D01*
X574400000Y-72600000D02*
X574400000Y-68200000D01*
X574550000Y-72650000D02*
X574550000Y-68150000D01*
X574700000Y-72700000D02*
X574700000Y-68150000D01*
X574850000Y-72700000D02*
X574850000Y-68100000D01*
X575000000Y-72700000D02*
X575000000Y-68100000D01*
X575150000Y-72700000D02*
X575150000Y-68100000D01*
X575300000Y-72700000D02*
X575300000Y-68100000D01*
X575450000Y-72700000D02*
X575450000Y-68100000D01*
X575600000Y-72700000D02*
X575600000Y-68100000D01*
X575750000Y-72700000D02*
X575750000Y-68100000D01*
X575900000Y-72700000D02*
X575900000Y-68100000D01*
X576050000Y-72700000D02*
X576050000Y-68100000D01*
X576200000Y-72700000D02*
X576200000Y-68100000D01*
X576350000Y-72700000D02*
X576350000Y-68100000D01*
D11*
X576450000Y-72600000D02*
X576450000Y-68100000D01*
D10*
X576500000Y-72700000D02*
X576500000Y-68100000D01*
X576650000Y-72700000D02*
X576650000Y-68100000D01*
X576800000Y-72700000D02*
X576800000Y-68100000D01*
X576800000Y-72725000D02*
X574825000Y-72725000D01*
X576950000Y-72700000D02*
X576950000Y-68150000D01*
X577100000Y-72750000D02*
X577100000Y-68100000D01*
X577250000Y-72750000D02*
X577250000Y-68100000D01*
X577375000Y-68075000D02*
X574825000Y-68075000D01*
X577375000Y-68075000D02*
X578650000Y-69100000D01*
X577400000Y-72750000D02*
X577400000Y-68150000D01*
X577550000Y-72800000D02*
X577550000Y-68250000D01*
X577700000Y-72900000D02*
X577700000Y-68350000D01*
X577850000Y-72950000D02*
X577850000Y-68500000D01*
X578000000Y-73050000D02*
X578000000Y-68600000D01*
X578150000Y-73150000D02*
X578150000Y-68750000D01*
X578300000Y-73250000D02*
X578300000Y-68850000D01*
X578450000Y-73400000D02*
X578450000Y-68950000D01*
X578600000Y-73550000D02*
X578600000Y-69100000D01*
X578700000Y-73750000D02*
X578700000Y-69600000D01*
X578800000Y-73900000D02*
X578800000Y-69750000D01*
X578900000Y-74100000D02*
X578900000Y-69950000D01*
X579000000Y-74250000D02*
X579000000Y-70050000D01*
X579100000Y-74500000D02*
X579100000Y-70100000D01*
X579200000Y-74650000D02*
X579200000Y-70150000D01*
D11*
X579300000Y-70300000D02*
X576450000Y-72600000D01*
X579300000Y-74650000D02*
X579300000Y-70300000D01*
D10*
X579350000Y-74750000D02*
X579350000Y-70200000D01*
X579500000Y-74850000D02*
X579500000Y-70300000D01*
X579650000Y-74900000D02*
X579650000Y-70300000D01*
X579800000Y-74900000D02*
X579800000Y-70300000D01*
X579950000Y-74900000D02*
X579950000Y-70350000D01*
X580100000Y-74900000D02*
X580100000Y-70300000D01*
X580250000Y-74900000D02*
X580250000Y-70300000D01*
X580400000Y-74900000D02*
X580400000Y-70300000D01*
X580550000Y-74900000D02*
X580550000Y-70300000D01*
X580700000Y-74900000D02*
X580700000Y-70300000D01*
X580850000Y-74900000D02*
X580850000Y-70300000D01*
X581000000Y-74900000D02*
X581000000Y-70300000D01*
X581150000Y-74900000D02*
X581150000Y-70300000D01*
X581300000Y-74900000D02*
X581300000Y-70300000D01*
X581450000Y-74900000D02*
X581450000Y-70300000D01*
X581600000Y-74900000D02*
X581600000Y-70300000D01*
X581750000Y-74900000D02*
X581750000Y-70300000D01*
X581900000Y-74900000D02*
X581900000Y-70300000D01*
D11*
X582000000Y-70350000D02*
X579300000Y-74650000D01*
X582000000Y-74800000D02*
X582000000Y-70350000D01*
D10*
X582050000Y-74900000D02*
X582050000Y-70300000D01*
X582200000Y-74900000D02*
X582200000Y-70300000D01*
X582350000Y-74900000D02*
X582350000Y-70300000D01*
X582400000Y-70275000D02*
X579825000Y-70275000D01*
X582400000Y-70275000D02*
X583425000Y-71300000D01*
X582400000Y-74925000D02*
X579800000Y-74925000D01*
X582400000Y-74925000D02*
X583425000Y-73900000D01*
X582500000Y-74800000D02*
X582500000Y-70400000D01*
X582650000Y-74650000D02*
X582650000Y-70550000D01*
X582800000Y-74500000D02*
X582800000Y-70700000D01*
X582950000Y-74350000D02*
X582950000Y-70850000D01*
X583050000Y-74250000D02*
X583050000Y-70950000D01*
X583150000Y-74150000D02*
X583150000Y-71050000D01*
X583250000Y-74050000D02*
X583250000Y-71150000D01*
X583400000Y-71275000D02*
X583400000Y-73925000D01*
X574825000Y-68075000D02*
G75*
G03*
X573825000Y-69075000I-1J-999999D01*
G01*
X573825000Y-71725000D02*
G75*
G03*
X574825000Y-72725000I999999J-1D01*
G01*
X578937801Y-74221904D02*
G75*
G03*
X576800000Y-72725000I-2137802J-778098D01*
G01*
X578937802Y-74221904D02*
G75*
G03*
X579799005Y-74923790I899999J225000D01*
G01*
X578650000Y-69100000D02*
G75*
G03*
X579825000Y-70275000I1175002J2D01*
G01*
X538950000Y-110100000D02*
X538950000Y-106500000D01*
X539100000Y-110300000D02*
X539100000Y-106300000D01*
X539250000Y-110400000D02*
X539250000Y-106200000D01*
X539400000Y-110500000D02*
X539400000Y-106100000D01*
X539550000Y-110550000D02*
X539550000Y-106050000D01*
X539700000Y-110600000D02*
X539700000Y-106050000D01*
X539850000Y-110600000D02*
X539850000Y-106000000D01*
X540000000Y-110600000D02*
X540000000Y-106000000D01*
X540150000Y-110600000D02*
X540150000Y-106000000D01*
X540300000Y-110600000D02*
X540300000Y-106000000D01*
X540450000Y-110600000D02*
X540450000Y-106000000D01*
X540600000Y-110600000D02*
X540600000Y-106000000D01*
X540750000Y-110600000D02*
X540750000Y-106000000D01*
X540900000Y-110600000D02*
X540900000Y-106000000D01*
X541050000Y-110600000D02*
X541050000Y-106000000D01*
X541200000Y-110600000D02*
X541200000Y-106000000D01*
X541350000Y-110600000D02*
X541350000Y-106000000D01*
D11*
X541450000Y-110500000D02*
X541450000Y-106000000D01*
D10*
X541500000Y-110600000D02*
X541500000Y-106000000D01*
X541650000Y-110600000D02*
X541650000Y-106000000D01*
X541800000Y-110600000D02*
X541800000Y-106000000D01*
X541800000Y-110625000D02*
X539825000Y-110625000D01*
X541950000Y-110600000D02*
X541950000Y-106050000D01*
X542100000Y-110650000D02*
X542100000Y-106000000D01*
X542250000Y-110650000D02*
X542250000Y-106000000D01*
X542375000Y-105975000D02*
X539825000Y-105975000D01*
X542375000Y-105975000D02*
X543650000Y-107000000D01*
X542400000Y-110650000D02*
X542400000Y-106050000D01*
X542550000Y-110700000D02*
X542550000Y-106150000D01*
X542700000Y-110800000D02*
X542700000Y-106250000D01*
X542850000Y-110850000D02*
X542850000Y-106400000D01*
X543000000Y-110950000D02*
X543000000Y-106500000D01*
X543150000Y-111050000D02*
X543150000Y-106650000D01*
X543300000Y-111150000D02*
X543300000Y-106750000D01*
X543450000Y-111300000D02*
X543450000Y-106850000D01*
X543600000Y-111450000D02*
X543600000Y-107000000D01*
X543700000Y-111650000D02*
X543700000Y-107500000D01*
X543800000Y-111800000D02*
X543800000Y-107650000D01*
X543900000Y-112000000D02*
X543900000Y-107850000D01*
X544000000Y-112150000D02*
X544000000Y-107950000D01*
X544100000Y-112400000D02*
X544100000Y-108000000D01*
X544200000Y-112550000D02*
X544200000Y-108050000D01*
D11*
X544300000Y-108200000D02*
X541450000Y-110500000D01*
X544300000Y-112550000D02*
X544300000Y-108200000D01*
D10*
X544350000Y-112650000D02*
X544350000Y-108100000D01*
X544500000Y-112750000D02*
X544500000Y-108200000D01*
X544650000Y-112800000D02*
X544650000Y-108200000D01*
X544800000Y-112800000D02*
X544800000Y-108200000D01*
X544950000Y-112800000D02*
X544950000Y-108250000D01*
X545100000Y-112800000D02*
X545100000Y-108200000D01*
X545250000Y-112800000D02*
X545250000Y-108200000D01*
X545400000Y-112800000D02*
X545400000Y-108200000D01*
X545550000Y-112800000D02*
X545550000Y-108200000D01*
X545700000Y-112800000D02*
X545700000Y-108200000D01*
X545850000Y-112800000D02*
X545850000Y-108200000D01*
X546000000Y-112800000D02*
X546000000Y-108200000D01*
X546150000Y-112800000D02*
X546150000Y-108200000D01*
X546300000Y-112800000D02*
X546300000Y-108200000D01*
X546450000Y-112800000D02*
X546450000Y-108200000D01*
X546600000Y-112800000D02*
X546600000Y-108200000D01*
X546750000Y-112800000D02*
X546750000Y-108200000D01*
X546900000Y-112800000D02*
X546900000Y-108200000D01*
D11*
X547000000Y-108250000D02*
X544300000Y-112550000D01*
X547000000Y-112700000D02*
X547000000Y-108250000D01*
D10*
X547050000Y-112800000D02*
X547050000Y-108200000D01*
X547200000Y-112800000D02*
X547200000Y-108200000D01*
X547350000Y-112800000D02*
X547350000Y-108200000D01*
X547400000Y-108175000D02*
X544825000Y-108175000D01*
X547400000Y-108175000D02*
X548425000Y-109200000D01*
X547400000Y-112825000D02*
X544800000Y-112825000D01*
X547400000Y-112825000D02*
X548425000Y-111800000D01*
X547500000Y-112700000D02*
X547500000Y-108300000D01*
X547650000Y-112550000D02*
X547650000Y-108450000D01*
X547800000Y-112400000D02*
X547800000Y-108600000D01*
X547950000Y-112250000D02*
X547950000Y-108750000D01*
X548050000Y-112150000D02*
X548050000Y-108850000D01*
X548150000Y-112050000D02*
X548150000Y-108950000D01*
X548250000Y-111950000D02*
X548250000Y-109050000D01*
X548400000Y-109175000D02*
X548400000Y-111825000D01*
X539825000Y-105975000D02*
G75*
G03*
X538825000Y-106975000I-1J-999999D01*
G01*
X538825000Y-109625000D02*
G75*
G03*
X539825000Y-110625000I999999J-1D01*
G01*
X543937801Y-112121904D02*
G75*
G03*
X541800000Y-110625000I-2137802J-778098D01*
G01*
X543937802Y-112121904D02*
G75*
G03*
X544799005Y-112823790I899999J225000D01*
G01*
X543650000Y-107000000D02*
G75*
G03*
X544825000Y-108175000I1175002J2D01*
G01*
%LPC*%
D12*
X355720000Y-164861000D03*
X359220000Y-164861000D03*
X362720000Y-164861000D03*
X366220000Y-164861000D03*
X369720000Y-164861000D03*
X373220000Y-164861000D03*
X376720000Y-164861000D03*
X380220000Y-164861000D03*
X383720000Y-164861000D03*
X387220000Y-164861000D03*
X390720000Y-164861000D03*
X394220000Y-164861000D03*
X397720000Y-164861000D03*
X401220000Y-164861000D03*
X404720000Y-164861000D03*
X408220000Y-164861000D03*
X411720000Y-164861000D03*
X415220000Y-164861000D03*
X418720000Y-164861000D03*
X422310000Y-164861000D03*
D13*
X357043000Y-131804000D03*
D14*
X359583000Y-131804000D03*
X362123000Y-131804000D03*
X364663000Y-131804000D03*
D15*
X372200000Y-128600000D03*
X374200000Y-128600000D03*
X376200000Y-128600000D03*
D16*
X378200000Y-128600000D03*
D15*
X427294000Y-157420000D03*
X427294000Y-155420000D03*
X427294000Y-153420000D03*
X427294000Y-151420000D03*
X427294000Y-149392000D03*
D13*
X427294000Y-144416000D03*
D14*
X427294000Y-141876000D03*
X427294000Y-139336000D03*
X427294000Y-136796000D03*
X400454000Y-126656000D03*
D13*
X400454000Y-129196000D03*
D14*
X402994000Y-126656000D03*
X402994000Y-129196000D03*
X405534000Y-126656000D03*
X405534000Y-129196000D03*
X408074000Y-126656000D03*
X408074000Y-129196000D03*
X410614000Y-126656000D03*
X410614000Y-129196000D03*
X413154000Y-126656000D03*
X413154000Y-129196000D03*
X415694000Y-126656000D03*
X415694000Y-129192680D03*
X418234000Y-126656000D03*
X418234000Y-129206000D03*
X420774000Y-126656000D03*
X420774000Y-129196000D03*
X423304000Y-126656000D03*
X423304000Y-129196000D03*
X371550000Y-33160000D03*
X378050000Y-33160000D03*
X371550000Y-37660000D03*
X378050000Y-37660000D03*
D17*
X606000000Y-73300000D03*
X611000000Y-75500000D03*
D18*
X616550000Y-64600000D03*
D19*
X602700000Y-73300000D03*
X614300000Y-75500000D03*
D20*
X561300000Y-87000000D03*
X446200000Y-179700000D03*
X434000000Y-45200000D03*
D21*
X491890000Y-33300000D03*
D22*
X499510000Y-33300000D03*
D20*
X335070000Y-179630000D03*
D21*
X491890000Y-30800000D03*
D22*
X499510000Y-30800000D03*
D23*
X468490000Y-26400000D03*
X462710000Y-26400000D03*
D24*
X469920000Y-26930000D03*
D25*
X469920000Y-22750000D03*
D24*
X461280000Y-26930000D03*
D25*
X461280000Y-22750000D03*
D17*
X409100000Y-72400000D03*
X414100000Y-74600000D03*
D18*
X419650000Y-63700000D03*
D19*
X405800000Y-72400000D03*
X417400000Y-74600000D03*
D26*
X548990106Y-148721878D03*
D27*
X549790968Y-159664198D03*
D28*
X547790972Y-159664198D03*
D27*
X543290346Y-159664198D03*
X541290350Y-159664198D03*
X539290354Y-159664198D03*
X537290358Y-159664198D03*
X535290362Y-159664198D03*
D28*
X533290366Y-159664198D03*
D17*
X511000000Y-122300000D03*
X516000000Y-124500000D03*
D18*
X521550000Y-113600000D03*
D19*
X507700000Y-122300000D03*
X519300000Y-124500000D03*
D17*
X349100000Y-80400000D03*
X354100000Y-82600000D03*
D18*
X359650000Y-71700000D03*
D19*
X345800000Y-80400000D03*
X357400000Y-82600000D03*
X486400000Y-163700000D03*
X474800000Y-161500000D03*
D18*
X488650000Y-152800000D03*
D17*
X483100000Y-163700000D03*
X478100000Y-161500000D03*
D20*
X630080000Y-179630000D03*
X335100000Y-34640000D03*
D17*
X571100000Y-106300000D03*
X576100000Y-108500000D03*
D18*
X581650000Y-97600000D03*
D19*
X567800000Y-106300000D03*
X579400000Y-108500000D03*
D17*
X546100000Y-72400000D03*
X551100000Y-74600000D03*
D18*
X556650000Y-63700000D03*
D19*
X542800000Y-72400000D03*
X554400000Y-74600000D03*
D14*
X391050000Y-33160000D03*
X397550000Y-33160000D03*
X391050000Y-37660000D03*
X397550000Y-37660000D03*
D17*
X379000000Y-70400000D03*
X384000000Y-72600000D03*
D18*
X389550000Y-61700000D03*
D19*
X375700000Y-70400000D03*
X387300000Y-72600000D03*
D17*
X439000000Y-86400000D03*
X444000000Y-88600000D03*
D18*
X449550000Y-77700000D03*
D19*
X435700000Y-86400000D03*
X447300000Y-88600000D03*
D20*
X630150000Y-34640000D03*
D14*
X400800000Y-33160000D03*
X407300000Y-33160000D03*
X400800000Y-37660000D03*
X407300000Y-37660000D03*
X381300000Y-33160000D03*
X387800000Y-33160000D03*
X381300000Y-37660000D03*
X387800000Y-37660000D03*
D17*
X604100000Y-111400000D03*
X609100000Y-113600000D03*
D18*
X614650000Y-102700000D03*
D19*
X600800000Y-111400000D03*
X612400000Y-113600000D03*
D17*
X516100000Y-86500000D03*
X521100000Y-88700000D03*
D18*
X526650000Y-77800000D03*
D19*
X512800000Y-86500000D03*
X524400000Y-88700000D03*
D20*
X455300000Y-116000000D03*
D17*
X576100000Y-70400000D03*
X581100000Y-72600000D03*
D18*
X586650000Y-61700000D03*
D19*
X572800000Y-70400000D03*
X584400000Y-72600000D03*
D14*
X410550000Y-33160000D03*
X417050000Y-33160000D03*
X410550000Y-37660000D03*
X417050000Y-37660000D03*
D17*
X541100000Y-108300000D03*
X546100000Y-110500000D03*
D18*
X551650000Y-99600000D03*
D19*
X537800000Y-108300000D03*
X549400000Y-110500000D03*
%LPD*%
M02*
