M48
; DRILL file {KiCad 7.0.5} date Fri Sep  8 18:02:19 2023
; FORMAT={-:-/ absolute / metric / decimal}
; #@! TF.CreationDate,2023-09-08T18:02:19-04:00
; #@! TF.GenerationSoftware,Kicad,Pcbnew,7.0.5
; #@! TF.FileFunction,NonPlated,1,2,NPTH
FMAT,2
METRIC
; #@! TA.AperFunction,NonPlated,NPTH,ComponentDrill
T1C0.650
; #@! TA.AperFunction,NonPlated,NPTH,ComponentDrill
T2C1.700
; #@! TA.AperFunction,NonPlated,NPTH,ComponentDrill
T3C1.900
; #@! TA.AperFunction,NonPlated,NPTH,ComponentDrill
T4C3.000
; #@! TA.AperFunction,NonPlated,NPTH,ComponentDrill
T5C5.000
; #@! TA.AperFunction,NonPlated,NPTH,ComponentDrill
T6C6.400
%
G90
G05
T1
X462.71Y-26.4
X468.49Y-26.4
T2
X548.99Y-148.722
T3
X348.6Y-76.7
X359.6Y-76.7
X378.5Y-66.7
X389.5Y-66.7
X408.6Y-68.7
X419.6Y-68.7
X438.5Y-82.7
X449.5Y-82.7
X477.6Y-157.8
X488.6Y-157.8
X510.5Y-118.6
X515.6Y-82.8
X521.5Y-118.6
X526.6Y-82.8
X540.6Y-104.6
X545.6Y-68.7
X551.6Y-104.6
X556.6Y-68.7
X570.6Y-102.6
X575.6Y-66.7
X581.6Y-102.6
X586.6Y-66.7
X603.6Y-107.7
X605.5Y-69.6
X614.6Y-107.7
X616.5Y-69.6
T4
X349.1Y-80.4
X354.1Y-82.6
X379.0Y-70.4
X384.0Y-72.6
X409.1Y-72.4
X414.1Y-74.6
X439.0Y-86.4
X444.0Y-88.6
X478.1Y-161.5
X483.1Y-163.7
X511.0Y-122.3
X516.0Y-124.5
X516.1Y-86.5
X521.1Y-88.7
X541.1Y-108.3
X546.1Y-72.4
X546.1Y-110.5
X551.1Y-74.6
X571.1Y-106.3
X576.1Y-70.4
X576.1Y-108.5
X581.1Y-72.6
X604.1Y-111.4
X606.0Y-73.3
X609.1Y-113.6
X611.0Y-75.5
T5
X354.1Y-76.7
X384.0Y-66.7
X414.1Y-68.7
X444.0Y-82.7
X483.1Y-157.8
X516.0Y-118.6
X521.1Y-82.8
X546.1Y-104.6
X551.1Y-68.7
X576.1Y-102.6
X581.1Y-66.7
X609.1Y-107.7
X611.0Y-69.6
T6
X335.07Y-179.63
X335.1Y-34.64
X434.0Y-45.2
X446.2Y-179.7
X455.3Y-116.0
X561.3Y-87.0
X630.08Y-179.63
X630.15Y-34.64
T0
M30
