G04 #@! TF.GenerationSoftware,KiCad,Pcbnew,7.0.5*
G04 #@! TF.CreationDate,2023-09-08T18:01:39-04:00*
G04 #@! TF.ProjectId,Rory Hitbox Full Pcb,526f7279-2048-4697-9462-6f782046756c,rev?*
G04 #@! TF.SameCoordinates,Original*
G04 #@! TF.FileFunction,Legend,Top*
G04 #@! TF.FilePolarity,Positive*
%FSLAX46Y46*%
G04 Gerber Fmt 4.6, Leading zero omitted, Abs format (unit mm)*
G04 Created by KiCad (PCBNEW 7.0.5) date 2023-09-08 18:01:39*
%MOMM*%
%LPD*%
G01*
G04 APERTURE LIST*
%ADD10C,0.150000*%
%ADD11C,0.120000*%
%ADD12C,0.254000*%
%ADD13O,2.200000X1.500000*%
%ADD14C,2.500000*%
%ADD15R,2.000000X2.000000*%
%ADD16C,2.000000*%
%ADD17C,1.700000*%
%ADD18R,1.700000X1.700000*%
%ADD19C,3.000000*%
%ADD20C,6.400000*%
%ADD21C,1.400000*%
%ADD22O,1.400000X1.400000*%
%ADD23C,0.650000*%
%ADD24O,1.000000X2.100000*%
%ADD25O,1.000000X1.600000*%
%ADD26R,0.600000X1.450000*%
%ADD27R,0.300000X1.450000*%
%ADD28C,1.700022*%
%ADD29C,1.499997*%
%ADD30R,1.499997X1.499997*%
G04 APERTURE END LIST*
D10*
X407562095Y-148360819D02*
X407562095Y-149170342D01*
X407562095Y-149170342D02*
X407609714Y-149265580D01*
X407609714Y-149265580D02*
X407657333Y-149313200D01*
X407657333Y-149313200D02*
X407752571Y-149360819D01*
X407752571Y-149360819D02*
X407943047Y-149360819D01*
X407943047Y-149360819D02*
X408038285Y-149313200D01*
X408038285Y-149313200D02*
X408085904Y-149265580D01*
X408085904Y-149265580D02*
X408133523Y-149170342D01*
X408133523Y-149170342D02*
X408133523Y-148360819D01*
X409133523Y-149360819D02*
X408562095Y-149360819D01*
X408847809Y-149360819D02*
X408847809Y-148360819D01*
X408847809Y-148360819D02*
X408752571Y-148503676D01*
X408752571Y-148503676D02*
X408657333Y-148598914D01*
X408657333Y-148598914D02*
X408562095Y-148646533D01*
X610809523Y-50054819D02*
X610333333Y-50054819D01*
X610333333Y-50054819D02*
X610333333Y-49054819D01*
X611476190Y-49531009D02*
X611619047Y-49578628D01*
X611619047Y-49578628D02*
X611666666Y-49626247D01*
X611666666Y-49626247D02*
X611714285Y-49721485D01*
X611714285Y-49721485D02*
X611714285Y-49864342D01*
X611714285Y-49864342D02*
X611666666Y-49959580D01*
X611666666Y-49959580D02*
X611619047Y-50007200D01*
X611619047Y-50007200D02*
X611523809Y-50054819D01*
X611523809Y-50054819D02*
X611142857Y-50054819D01*
X611142857Y-50054819D02*
X611142857Y-49054819D01*
X611142857Y-49054819D02*
X611476190Y-49054819D01*
X611476190Y-49054819D02*
X611571428Y-49102438D01*
X611571428Y-49102438D02*
X611619047Y-49150057D01*
X611619047Y-49150057D02*
X611666666Y-49245295D01*
X611666666Y-49245295D02*
X611666666Y-49340533D01*
X611666666Y-49340533D02*
X611619047Y-49435771D01*
X611619047Y-49435771D02*
X611571428Y-49483390D01*
X611571428Y-49483390D02*
X611476190Y-49531009D01*
X611476190Y-49531009D02*
X611142857Y-49531009D01*
X495533333Y-31834819D02*
X495200000Y-31358628D01*
X494961905Y-31834819D02*
X494961905Y-30834819D01*
X494961905Y-30834819D02*
X495342857Y-30834819D01*
X495342857Y-30834819D02*
X495438095Y-30882438D01*
X495438095Y-30882438D02*
X495485714Y-30930057D01*
X495485714Y-30930057D02*
X495533333Y-31025295D01*
X495533333Y-31025295D02*
X495533333Y-31168152D01*
X495533333Y-31168152D02*
X495485714Y-31263390D01*
X495485714Y-31263390D02*
X495438095Y-31311009D01*
X495438095Y-31311009D02*
X495342857Y-31358628D01*
X495342857Y-31358628D02*
X494961905Y-31358628D01*
X495914286Y-30930057D02*
X495961905Y-30882438D01*
X495961905Y-30882438D02*
X496057143Y-30834819D01*
X496057143Y-30834819D02*
X496295238Y-30834819D01*
X496295238Y-30834819D02*
X496390476Y-30882438D01*
X496390476Y-30882438D02*
X496438095Y-30930057D01*
X496438095Y-30930057D02*
X496485714Y-31025295D01*
X496485714Y-31025295D02*
X496485714Y-31120533D01*
X496485714Y-31120533D02*
X496438095Y-31263390D01*
X496438095Y-31263390D02*
X495866667Y-31834819D01*
X495866667Y-31834819D02*
X496485714Y-31834819D01*
X495533333Y-29334819D02*
X495200000Y-28858628D01*
X494961905Y-29334819D02*
X494961905Y-28334819D01*
X494961905Y-28334819D02*
X495342857Y-28334819D01*
X495342857Y-28334819D02*
X495438095Y-28382438D01*
X495438095Y-28382438D02*
X495485714Y-28430057D01*
X495485714Y-28430057D02*
X495533333Y-28525295D01*
X495533333Y-28525295D02*
X495533333Y-28668152D01*
X495533333Y-28668152D02*
X495485714Y-28763390D01*
X495485714Y-28763390D02*
X495438095Y-28811009D01*
X495438095Y-28811009D02*
X495342857Y-28858628D01*
X495342857Y-28858628D02*
X494961905Y-28858628D01*
X496485714Y-29334819D02*
X495914286Y-29334819D01*
X496200000Y-29334819D02*
X496200000Y-28334819D01*
X496200000Y-28334819D02*
X496104762Y-28477676D01*
X496104762Y-28477676D02*
X496009524Y-28572914D01*
X496009524Y-28572914D02*
X495914286Y-28620533D01*
X463861905Y-28899819D02*
X463861905Y-29709342D01*
X463861905Y-29709342D02*
X463909524Y-29804580D01*
X463909524Y-29804580D02*
X463957143Y-29852200D01*
X463957143Y-29852200D02*
X464052381Y-29899819D01*
X464052381Y-29899819D02*
X464242857Y-29899819D01*
X464242857Y-29899819D02*
X464338095Y-29852200D01*
X464338095Y-29852200D02*
X464385714Y-29804580D01*
X464385714Y-29804580D02*
X464433333Y-29709342D01*
X464433333Y-29709342D02*
X464433333Y-28899819D01*
X464861905Y-29852200D02*
X465004762Y-29899819D01*
X465004762Y-29899819D02*
X465242857Y-29899819D01*
X465242857Y-29899819D02*
X465338095Y-29852200D01*
X465338095Y-29852200D02*
X465385714Y-29804580D01*
X465385714Y-29804580D02*
X465433333Y-29709342D01*
X465433333Y-29709342D02*
X465433333Y-29614104D01*
X465433333Y-29614104D02*
X465385714Y-29518866D01*
X465385714Y-29518866D02*
X465338095Y-29471247D01*
X465338095Y-29471247D02*
X465242857Y-29423628D01*
X465242857Y-29423628D02*
X465052381Y-29376009D01*
X465052381Y-29376009D02*
X464957143Y-29328390D01*
X464957143Y-29328390D02*
X464909524Y-29280771D01*
X464909524Y-29280771D02*
X464861905Y-29185533D01*
X464861905Y-29185533D02*
X464861905Y-29090295D01*
X464861905Y-29090295D02*
X464909524Y-28995057D01*
X464909524Y-28995057D02*
X464957143Y-28947438D01*
X464957143Y-28947438D02*
X465052381Y-28899819D01*
X465052381Y-28899819D02*
X465290476Y-28899819D01*
X465290476Y-28899819D02*
X465433333Y-28947438D01*
X466195238Y-29376009D02*
X466338095Y-29423628D01*
X466338095Y-29423628D02*
X466385714Y-29471247D01*
X466385714Y-29471247D02*
X466433333Y-29566485D01*
X466433333Y-29566485D02*
X466433333Y-29709342D01*
X466433333Y-29709342D02*
X466385714Y-29804580D01*
X466385714Y-29804580D02*
X466338095Y-29852200D01*
X466338095Y-29852200D02*
X466242857Y-29899819D01*
X466242857Y-29899819D02*
X465861905Y-29899819D01*
X465861905Y-29899819D02*
X465861905Y-28899819D01*
X465861905Y-28899819D02*
X466195238Y-28899819D01*
X466195238Y-28899819D02*
X466290476Y-28947438D01*
X466290476Y-28947438D02*
X466338095Y-28995057D01*
X466338095Y-28995057D02*
X466385714Y-29090295D01*
X466385714Y-29090295D02*
X466385714Y-29185533D01*
X466385714Y-29185533D02*
X466338095Y-29280771D01*
X466338095Y-29280771D02*
X466290476Y-29328390D01*
X466290476Y-29328390D02*
X466195238Y-29376009D01*
X466195238Y-29376009D02*
X465861905Y-29376009D01*
X467385714Y-29899819D02*
X466814286Y-29899819D01*
X467100000Y-29899819D02*
X467100000Y-28899819D01*
X467100000Y-28899819D02*
X467004762Y-29042676D01*
X467004762Y-29042676D02*
X466909524Y-29137914D01*
X466909524Y-29137914D02*
X466814286Y-29185533D01*
X412409524Y-49154819D02*
X412409524Y-48154819D01*
X412409524Y-48154819D02*
X412647619Y-48154819D01*
X412647619Y-48154819D02*
X412790476Y-48202438D01*
X412790476Y-48202438D02*
X412885714Y-48297676D01*
X412885714Y-48297676D02*
X412933333Y-48392914D01*
X412933333Y-48392914D02*
X412980952Y-48583390D01*
X412980952Y-48583390D02*
X412980952Y-48726247D01*
X412980952Y-48726247D02*
X412933333Y-48916723D01*
X412933333Y-48916723D02*
X412885714Y-49011961D01*
X412885714Y-49011961D02*
X412790476Y-49107200D01*
X412790476Y-49107200D02*
X412647619Y-49154819D01*
X412647619Y-49154819D02*
X412409524Y-49154819D01*
X413552381Y-49154819D02*
X413457143Y-49107200D01*
X413457143Y-49107200D02*
X413409524Y-49059580D01*
X413409524Y-49059580D02*
X413361905Y-48964342D01*
X413361905Y-48964342D02*
X413361905Y-48678628D01*
X413361905Y-48678628D02*
X413409524Y-48583390D01*
X413409524Y-48583390D02*
X413457143Y-48535771D01*
X413457143Y-48535771D02*
X413552381Y-48488152D01*
X413552381Y-48488152D02*
X413695238Y-48488152D01*
X413695238Y-48488152D02*
X413790476Y-48535771D01*
X413790476Y-48535771D02*
X413838095Y-48583390D01*
X413838095Y-48583390D02*
X413885714Y-48678628D01*
X413885714Y-48678628D02*
X413885714Y-48964342D01*
X413885714Y-48964342D02*
X413838095Y-49059580D01*
X413838095Y-49059580D02*
X413790476Y-49107200D01*
X413790476Y-49107200D02*
X413695238Y-49154819D01*
X413695238Y-49154819D02*
X413552381Y-49154819D01*
X414219048Y-48488152D02*
X414409524Y-49154819D01*
X414409524Y-49154819D02*
X414600000Y-48678628D01*
X414600000Y-48678628D02*
X414790476Y-49154819D01*
X414790476Y-49154819D02*
X414980952Y-48488152D01*
X415361905Y-48488152D02*
X415361905Y-49154819D01*
X415361905Y-48583390D02*
X415409524Y-48535771D01*
X415409524Y-48535771D02*
X415504762Y-48488152D01*
X415504762Y-48488152D02*
X415647619Y-48488152D01*
X415647619Y-48488152D02*
X415742857Y-48535771D01*
X415742857Y-48535771D02*
X415790476Y-48631009D01*
X415790476Y-48631009D02*
X415790476Y-49154819D01*
X541538095Y-150930819D02*
X541538095Y-151740342D01*
X541538095Y-151740342D02*
X541585714Y-151835580D01*
X541585714Y-151835580D02*
X541633333Y-151883200D01*
X541633333Y-151883200D02*
X541728571Y-151930819D01*
X541728571Y-151930819D02*
X541919047Y-151930819D01*
X541919047Y-151930819D02*
X542014285Y-151883200D01*
X542014285Y-151883200D02*
X542061904Y-151835580D01*
X542061904Y-151835580D02*
X542109523Y-151740342D01*
X542109523Y-151740342D02*
X542109523Y-150930819D01*
X542538095Y-151026057D02*
X542585714Y-150978438D01*
X542585714Y-150978438D02*
X542680952Y-150930819D01*
X542680952Y-150930819D02*
X542919047Y-150930819D01*
X542919047Y-150930819D02*
X543014285Y-150978438D01*
X543014285Y-150978438D02*
X543061904Y-151026057D01*
X543061904Y-151026057D02*
X543109523Y-151121295D01*
X543109523Y-151121295D02*
X543109523Y-151216533D01*
X543109523Y-151216533D02*
X543061904Y-151359390D01*
X543061904Y-151359390D02*
X542490476Y-151930819D01*
X542490476Y-151930819D02*
X543109523Y-151930819D01*
X515761905Y-103769104D02*
X516238095Y-103769104D01*
X515666667Y-104054819D02*
X516000000Y-103054819D01*
X516000000Y-103054819D02*
X516333333Y-104054819D01*
X353433333Y-57154819D02*
X352957143Y-57154819D01*
X352957143Y-57154819D02*
X352957143Y-56154819D01*
X353719048Y-57107200D02*
X353861905Y-57154819D01*
X353861905Y-57154819D02*
X354100000Y-57154819D01*
X354100000Y-57154819D02*
X354195238Y-57107200D01*
X354195238Y-57107200D02*
X354242857Y-57059580D01*
X354242857Y-57059580D02*
X354290476Y-56964342D01*
X354290476Y-56964342D02*
X354290476Y-56869104D01*
X354290476Y-56869104D02*
X354242857Y-56773866D01*
X354242857Y-56773866D02*
X354195238Y-56726247D01*
X354195238Y-56726247D02*
X354100000Y-56678628D01*
X354100000Y-56678628D02*
X353909524Y-56631009D01*
X353909524Y-56631009D02*
X353814286Y-56583390D01*
X353814286Y-56583390D02*
X353766667Y-56535771D01*
X353766667Y-56535771D02*
X353719048Y-56440533D01*
X353719048Y-56440533D02*
X353719048Y-56345295D01*
X353719048Y-56345295D02*
X353766667Y-56250057D01*
X353766667Y-56250057D02*
X353814286Y-56202438D01*
X353814286Y-56202438D02*
X353909524Y-56154819D01*
X353909524Y-56154819D02*
X354147619Y-56154819D01*
X354147619Y-56154819D02*
X354290476Y-56202438D01*
X355052381Y-56631009D02*
X355195238Y-56678628D01*
X355195238Y-56678628D02*
X355242857Y-56726247D01*
X355242857Y-56726247D02*
X355290476Y-56821485D01*
X355290476Y-56821485D02*
X355290476Y-56964342D01*
X355290476Y-56964342D02*
X355242857Y-57059580D01*
X355242857Y-57059580D02*
X355195238Y-57107200D01*
X355195238Y-57107200D02*
X355100000Y-57154819D01*
X355100000Y-57154819D02*
X354719048Y-57154819D01*
X354719048Y-57154819D02*
X354719048Y-56154819D01*
X354719048Y-56154819D02*
X355052381Y-56154819D01*
X355052381Y-56154819D02*
X355147619Y-56202438D01*
X355147619Y-56202438D02*
X355195238Y-56250057D01*
X355195238Y-56250057D02*
X355242857Y-56345295D01*
X355242857Y-56345295D02*
X355242857Y-56440533D01*
X355242857Y-56440533D02*
X355195238Y-56535771D01*
X355195238Y-56535771D02*
X355147619Y-56583390D01*
X355147619Y-56583390D02*
X355052381Y-56631009D01*
X355052381Y-56631009D02*
X354719048Y-56631009D01*
X475559523Y-149709580D02*
X475511904Y-149757200D01*
X475511904Y-149757200D02*
X475369047Y-149804819D01*
X475369047Y-149804819D02*
X475273809Y-149804819D01*
X475273809Y-149804819D02*
X475130952Y-149757200D01*
X475130952Y-149757200D02*
X475035714Y-149661961D01*
X475035714Y-149661961D02*
X474988095Y-149566723D01*
X474988095Y-149566723D02*
X474940476Y-149376247D01*
X474940476Y-149376247D02*
X474940476Y-149233390D01*
X474940476Y-149233390D02*
X474988095Y-149042914D01*
X474988095Y-149042914D02*
X475035714Y-148947676D01*
X475035714Y-148947676D02*
X475130952Y-148852438D01*
X475130952Y-148852438D02*
X475273809Y-148804819D01*
X475273809Y-148804819D02*
X475369047Y-148804819D01*
X475369047Y-148804819D02*
X475511904Y-148852438D01*
X475511904Y-148852438D02*
X475559523Y-148900057D01*
X475988095Y-149804819D02*
X475988095Y-148804819D01*
X475988095Y-149281009D02*
X476559523Y-149281009D01*
X476559523Y-149804819D02*
X476559523Y-148804819D01*
X477511904Y-148804819D02*
X477035714Y-148804819D01*
X477035714Y-148804819D02*
X476988095Y-149281009D01*
X476988095Y-149281009D02*
X477035714Y-149233390D01*
X477035714Y-149233390D02*
X477130952Y-149185771D01*
X477130952Y-149185771D02*
X477369047Y-149185771D01*
X477369047Y-149185771D02*
X477464285Y-149233390D01*
X477464285Y-149233390D02*
X477511904Y-149281009D01*
X477511904Y-149281009D02*
X477559523Y-149376247D01*
X477559523Y-149376247D02*
X477559523Y-149614342D01*
X477559523Y-149614342D02*
X477511904Y-149709580D01*
X477511904Y-149709580D02*
X477464285Y-149757200D01*
X477464285Y-149757200D02*
X477369047Y-149804819D01*
X477369047Y-149804819D02*
X477130952Y-149804819D01*
X477130952Y-149804819D02*
X477035714Y-149757200D01*
X477035714Y-149757200D02*
X476988095Y-149709580D01*
X482361905Y-137254819D02*
X482361905Y-138064342D01*
X482361905Y-138064342D02*
X482409524Y-138159580D01*
X482409524Y-138159580D02*
X482457143Y-138207200D01*
X482457143Y-138207200D02*
X482552381Y-138254819D01*
X482552381Y-138254819D02*
X482742857Y-138254819D01*
X482742857Y-138254819D02*
X482838095Y-138207200D01*
X482838095Y-138207200D02*
X482885714Y-138159580D01*
X482885714Y-138159580D02*
X482933333Y-138064342D01*
X482933333Y-138064342D02*
X482933333Y-137254819D01*
X483409524Y-137588152D02*
X483409524Y-138588152D01*
X483409524Y-137635771D02*
X483504762Y-137588152D01*
X483504762Y-137588152D02*
X483695238Y-137588152D01*
X483695238Y-137588152D02*
X483790476Y-137635771D01*
X483790476Y-137635771D02*
X483838095Y-137683390D01*
X483838095Y-137683390D02*
X483885714Y-137778628D01*
X483885714Y-137778628D02*
X483885714Y-138064342D01*
X483885714Y-138064342D02*
X483838095Y-138159580D01*
X483838095Y-138159580D02*
X483790476Y-138207200D01*
X483790476Y-138207200D02*
X483695238Y-138254819D01*
X483695238Y-138254819D02*
X483504762Y-138254819D01*
X483504762Y-138254819D02*
X483409524Y-138207200D01*
X576028571Y-88054819D02*
X575695238Y-87578628D01*
X575457143Y-88054819D02*
X575457143Y-87054819D01*
X575457143Y-87054819D02*
X575838095Y-87054819D01*
X575838095Y-87054819D02*
X575933333Y-87102438D01*
X575933333Y-87102438D02*
X575980952Y-87150057D01*
X575980952Y-87150057D02*
X576028571Y-87245295D01*
X576028571Y-87245295D02*
X576028571Y-87388152D01*
X576028571Y-87388152D02*
X575980952Y-87483390D01*
X575980952Y-87483390D02*
X575933333Y-87531009D01*
X575933333Y-87531009D02*
X575838095Y-87578628D01*
X575838095Y-87578628D02*
X575457143Y-87578628D01*
X576314286Y-87054819D02*
X576885714Y-87054819D01*
X576600000Y-88054819D02*
X576600000Y-87054819D01*
X551100000Y-48678628D02*
X551100000Y-49154819D01*
X550766667Y-48154819D02*
X551100000Y-48678628D01*
X551100000Y-48678628D02*
X551433333Y-48154819D01*
X383309523Y-47154819D02*
X382833333Y-47154819D01*
X382833333Y-47154819D02*
X382833333Y-46154819D01*
X384023809Y-47107200D02*
X383928571Y-47154819D01*
X383928571Y-47154819D02*
X383738095Y-47154819D01*
X383738095Y-47154819D02*
X383642857Y-47107200D01*
X383642857Y-47107200D02*
X383595238Y-47011961D01*
X383595238Y-47011961D02*
X383595238Y-46631009D01*
X383595238Y-46631009D02*
X383642857Y-46535771D01*
X383642857Y-46535771D02*
X383738095Y-46488152D01*
X383738095Y-46488152D02*
X383928571Y-46488152D01*
X383928571Y-46488152D02*
X384023809Y-46535771D01*
X384023809Y-46535771D02*
X384071428Y-46631009D01*
X384071428Y-46631009D02*
X384071428Y-46726247D01*
X384071428Y-46726247D02*
X383595238Y-46821485D01*
X384357143Y-46488152D02*
X384738095Y-46488152D01*
X384500000Y-47154819D02*
X384500000Y-46297676D01*
X384500000Y-46297676D02*
X384547619Y-46202438D01*
X384547619Y-46202438D02*
X384642857Y-46154819D01*
X384642857Y-46154819D02*
X384738095Y-46154819D01*
X384928572Y-46488152D02*
X385309524Y-46488152D01*
X385071429Y-46154819D02*
X385071429Y-47011961D01*
X385071429Y-47011961D02*
X385119048Y-47107200D01*
X385119048Y-47107200D02*
X385214286Y-47154819D01*
X385214286Y-47154819D02*
X385309524Y-47154819D01*
X442880952Y-63154819D02*
X442547619Y-62678628D01*
X442309524Y-63154819D02*
X442309524Y-62154819D01*
X442309524Y-62154819D02*
X442690476Y-62154819D01*
X442690476Y-62154819D02*
X442785714Y-62202438D01*
X442785714Y-62202438D02*
X442833333Y-62250057D01*
X442833333Y-62250057D02*
X442880952Y-62345295D01*
X442880952Y-62345295D02*
X442880952Y-62488152D01*
X442880952Y-62488152D02*
X442833333Y-62583390D01*
X442833333Y-62583390D02*
X442785714Y-62631009D01*
X442785714Y-62631009D02*
X442690476Y-62678628D01*
X442690476Y-62678628D02*
X442309524Y-62678628D01*
X443309524Y-63154819D02*
X443309524Y-62488152D01*
X443309524Y-62154819D02*
X443261905Y-62202438D01*
X443261905Y-62202438D02*
X443309524Y-62250057D01*
X443309524Y-62250057D02*
X443357143Y-62202438D01*
X443357143Y-62202438D02*
X443309524Y-62154819D01*
X443309524Y-62154819D02*
X443309524Y-62250057D01*
X444214285Y-62488152D02*
X444214285Y-63297676D01*
X444214285Y-63297676D02*
X444166666Y-63392914D01*
X444166666Y-63392914D02*
X444119047Y-63440533D01*
X444119047Y-63440533D02*
X444023809Y-63488152D01*
X444023809Y-63488152D02*
X443880952Y-63488152D01*
X443880952Y-63488152D02*
X443785714Y-63440533D01*
X444214285Y-63107200D02*
X444119047Y-63154819D01*
X444119047Y-63154819D02*
X443928571Y-63154819D01*
X443928571Y-63154819D02*
X443833333Y-63107200D01*
X443833333Y-63107200D02*
X443785714Y-63059580D01*
X443785714Y-63059580D02*
X443738095Y-62964342D01*
X443738095Y-62964342D02*
X443738095Y-62678628D01*
X443738095Y-62678628D02*
X443785714Y-62583390D01*
X443785714Y-62583390D02*
X443833333Y-62535771D01*
X443833333Y-62535771D02*
X443928571Y-62488152D01*
X443928571Y-62488152D02*
X444119047Y-62488152D01*
X444119047Y-62488152D02*
X444214285Y-62535771D01*
X444690476Y-63154819D02*
X444690476Y-62154819D01*
X445119047Y-63154819D02*
X445119047Y-62631009D01*
X445119047Y-62631009D02*
X445071428Y-62535771D01*
X445071428Y-62535771D02*
X444976190Y-62488152D01*
X444976190Y-62488152D02*
X444833333Y-62488152D01*
X444833333Y-62488152D02*
X444738095Y-62535771D01*
X444738095Y-62535771D02*
X444690476Y-62583390D01*
X445452381Y-62488152D02*
X445833333Y-62488152D01*
X445595238Y-62154819D02*
X445595238Y-63011961D01*
X445595238Y-63011961D02*
X445642857Y-63107200D01*
X445642857Y-63107200D02*
X445738095Y-63154819D01*
X445738095Y-63154819D02*
X445833333Y-63154819D01*
X609028571Y-93154819D02*
X608552381Y-93154819D01*
X608552381Y-93154819D02*
X608552381Y-92154819D01*
X609219048Y-92154819D02*
X609790476Y-92154819D01*
X609504762Y-93154819D02*
X609504762Y-92154819D01*
X520766667Y-62254819D02*
X521433333Y-63254819D01*
X521433333Y-62254819D02*
X520766667Y-63254819D01*
X580909523Y-47154819D02*
X580576190Y-46678628D01*
X580338095Y-47154819D02*
X580338095Y-46154819D01*
X580338095Y-46154819D02*
X580719047Y-46154819D01*
X580719047Y-46154819D02*
X580814285Y-46202438D01*
X580814285Y-46202438D02*
X580861904Y-46250057D01*
X580861904Y-46250057D02*
X580909523Y-46345295D01*
X580909523Y-46345295D02*
X580909523Y-46488152D01*
X580909523Y-46488152D02*
X580861904Y-46583390D01*
X580861904Y-46583390D02*
X580814285Y-46631009D01*
X580814285Y-46631009D02*
X580719047Y-46678628D01*
X580719047Y-46678628D02*
X580338095Y-46678628D01*
X581671428Y-46631009D02*
X581814285Y-46678628D01*
X581814285Y-46678628D02*
X581861904Y-46726247D01*
X581861904Y-46726247D02*
X581909523Y-46821485D01*
X581909523Y-46821485D02*
X581909523Y-46964342D01*
X581909523Y-46964342D02*
X581861904Y-47059580D01*
X581861904Y-47059580D02*
X581814285Y-47107200D01*
X581814285Y-47107200D02*
X581719047Y-47154819D01*
X581719047Y-47154819D02*
X581338095Y-47154819D01*
X581338095Y-47154819D02*
X581338095Y-46154819D01*
X581338095Y-46154819D02*
X581671428Y-46154819D01*
X581671428Y-46154819D02*
X581766666Y-46202438D01*
X581766666Y-46202438D02*
X581814285Y-46250057D01*
X581814285Y-46250057D02*
X581861904Y-46345295D01*
X581861904Y-46345295D02*
X581861904Y-46440533D01*
X581861904Y-46440533D02*
X581814285Y-46535771D01*
X581814285Y-46535771D02*
X581766666Y-46583390D01*
X581766666Y-46583390D02*
X581671428Y-46631009D01*
X581671428Y-46631009D02*
X581338095Y-46631009D01*
X546171428Y-89531009D02*
X546314285Y-89578628D01*
X546314285Y-89578628D02*
X546361904Y-89626247D01*
X546361904Y-89626247D02*
X546409523Y-89721485D01*
X546409523Y-89721485D02*
X546409523Y-89864342D01*
X546409523Y-89864342D02*
X546361904Y-89959580D01*
X546361904Y-89959580D02*
X546314285Y-90007200D01*
X546314285Y-90007200D02*
X546219047Y-90054819D01*
X546219047Y-90054819D02*
X545838095Y-90054819D01*
X545838095Y-90054819D02*
X545838095Y-89054819D01*
X545838095Y-89054819D02*
X546171428Y-89054819D01*
X546171428Y-89054819D02*
X546266666Y-89102438D01*
X546266666Y-89102438D02*
X546314285Y-89150057D01*
X546314285Y-89150057D02*
X546361904Y-89245295D01*
X546361904Y-89245295D02*
X546361904Y-89340533D01*
X546361904Y-89340533D02*
X546314285Y-89435771D01*
X546314285Y-89435771D02*
X546266666Y-89483390D01*
X546266666Y-89483390D02*
X546171428Y-89531009D01*
X546171428Y-89531009D02*
X545838095Y-89531009D01*
D11*
X371300000Y-34660000D02*
X371300000Y-36160000D01*
X372550000Y-38660000D02*
X377050000Y-38660000D01*
X377050000Y-32160000D02*
X372550000Y-32160000D01*
X378300000Y-36160000D02*
X378300000Y-34660000D01*
X492830000Y-33300000D02*
X493780000Y-33300000D01*
X493780000Y-32380000D02*
X493780000Y-34220000D01*
X493780000Y-34220000D02*
X497620000Y-34220000D01*
X497620000Y-32380000D02*
X493780000Y-32380000D01*
X497620000Y-34220000D02*
X497620000Y-32380000D01*
X498570000Y-33300000D02*
X497620000Y-33300000D01*
X492830000Y-30800000D02*
X493780000Y-30800000D01*
X493780000Y-29880000D02*
X493780000Y-31720000D01*
X493780000Y-31720000D02*
X497620000Y-31720000D01*
X497620000Y-29880000D02*
X493780000Y-29880000D01*
X497620000Y-31720000D02*
X497620000Y-29880000D01*
X498570000Y-30800000D02*
X497620000Y-30800000D01*
X470300000Y-25700000D02*
X470300000Y-23700000D01*
X470300000Y-21800000D02*
X470300000Y-19900000D01*
X470300000Y-19900000D02*
X460900000Y-19900000D01*
X460900000Y-25700000D02*
X460900000Y-23700000D01*
X460900000Y-21800000D02*
X460900000Y-19900000D01*
D12*
X552038004Y-148171003D02*
X552038004Y-163670997D01*
X550038008Y-165670993D02*
X533037992Y-165670993D01*
X533037992Y-146171007D02*
X550038008Y-146171007D01*
X531037996Y-148171003D02*
X531037996Y-163670997D01*
X550038008Y-165670993D02*
G75*
G03*
X552038004Y-163670997I1J1999995D01*
G01*
X552038004Y-148171003D02*
G75*
G03*
X550038008Y-146171007I-1999995J1D01*
G01*
X531038007Y-163670997D02*
G75*
G03*
X533037992Y-165670993I1999993J-3D01*
G01*
X533037992Y-146171006D02*
G75*
G03*
X531037996Y-148171003I-12J-1999984D01*
G01*
D11*
X390800000Y-34660000D02*
X390800000Y-36160000D01*
X392050000Y-38660000D02*
X396550000Y-38660000D01*
X396550000Y-32160000D02*
X392050000Y-32160000D01*
X397800000Y-36160000D02*
X397800000Y-34660000D01*
X400550000Y-34660000D02*
X400550000Y-36160000D01*
X401800000Y-38660000D02*
X406300000Y-38660000D01*
X406300000Y-32160000D02*
X401800000Y-32160000D01*
X407550000Y-36160000D02*
X407550000Y-34660000D01*
X381050000Y-34660000D02*
X381050000Y-36160000D01*
X382300000Y-38660000D02*
X386800000Y-38660000D01*
X386800000Y-32160000D02*
X382300000Y-32160000D01*
X388050000Y-36160000D02*
X388050000Y-34660000D01*
X410300000Y-34660000D02*
X410300000Y-36160000D01*
X411550000Y-38660000D02*
X416050000Y-38660000D01*
X416050000Y-32160000D02*
X411550000Y-32160000D01*
X417300000Y-36160000D02*
X417300000Y-34660000D01*
D13*
X616550000Y-64600000D03*
X419650000Y-63700000D03*
X521550000Y-113600000D03*
X359650000Y-71700000D03*
X488650000Y-152800000D03*
X581650000Y-97600000D03*
X556650000Y-63700000D03*
X389550000Y-61700000D03*
X449550000Y-77700000D03*
X614650000Y-102700000D03*
X526650000Y-77800000D03*
X586650000Y-61700000D03*
X551650000Y-99600000D03*
%LPC*%
D14*
X355720000Y-164861000D03*
X359220000Y-164861000D03*
X362720000Y-164861000D03*
X366220000Y-164861000D03*
X369720000Y-164861000D03*
X373220000Y-164861000D03*
X376720000Y-164861000D03*
X380220000Y-164861000D03*
X383720000Y-164861000D03*
X387220000Y-164861000D03*
X390720000Y-164861000D03*
X394220000Y-164861000D03*
X397720000Y-164861000D03*
X401220000Y-164861000D03*
X404720000Y-164861000D03*
X408220000Y-164861000D03*
X411720000Y-164861000D03*
X415220000Y-164861000D03*
X418720000Y-164861000D03*
X422310000Y-164861000D03*
D15*
X357043000Y-131804000D03*
D16*
X359583000Y-131804000D03*
X362123000Y-131804000D03*
X364663000Y-131804000D03*
D17*
X372200000Y-128600000D03*
X374200000Y-128600000D03*
X376200000Y-128600000D03*
D18*
X378200000Y-128600000D03*
D17*
X427294000Y-157420000D03*
X427294000Y-155420000D03*
X427294000Y-153420000D03*
X427294000Y-151420000D03*
X427294000Y-149392000D03*
D15*
X427294000Y-144416000D03*
D16*
X427294000Y-141876000D03*
X427294000Y-139336000D03*
X427294000Y-136796000D03*
X400454000Y-126656000D03*
D15*
X400454000Y-129196000D03*
D16*
X402994000Y-126656000D03*
X402994000Y-129196000D03*
X405534000Y-126656000D03*
X405534000Y-129196000D03*
X408074000Y-126656000D03*
X408074000Y-129196000D03*
X410614000Y-126656000D03*
X410614000Y-129196000D03*
X413154000Y-126656000D03*
X413154000Y-129196000D03*
X415694000Y-126656000D03*
X415694000Y-129192680D03*
X418234000Y-126656000D03*
X418234000Y-129206000D03*
X420774000Y-126656000D03*
X420774000Y-129196000D03*
X423304000Y-126656000D03*
X423304000Y-129196000D03*
X371550000Y-33160000D03*
X378050000Y-33160000D03*
X371550000Y-37660000D03*
X378050000Y-37660000D03*
D19*
X606000000Y-73300000D03*
X611000000Y-75500000D03*
D20*
X561300000Y-87000000D03*
X446200000Y-179700000D03*
X434000000Y-45200000D03*
D21*
X491890000Y-33300000D03*
D22*
X499510000Y-33300000D03*
D20*
X335070000Y-179630000D03*
D21*
X491890000Y-30800000D03*
D22*
X499510000Y-30800000D03*
D23*
X468490000Y-26400000D03*
X462710000Y-26400000D03*
D24*
X469920000Y-26930000D03*
D25*
X469920000Y-22750000D03*
D24*
X461280000Y-26930000D03*
D25*
X461280000Y-22750000D03*
D26*
X468850000Y-27845000D03*
X468050000Y-27845000D03*
D27*
X466850000Y-27845000D03*
X465850000Y-27845000D03*
X465350000Y-27845000D03*
X464350000Y-27845000D03*
D26*
X463150000Y-27845000D03*
X462350000Y-27845000D03*
X462350000Y-27845000D03*
X463150000Y-27845000D03*
D27*
X463850000Y-27845000D03*
X464850000Y-27845000D03*
X466350000Y-27845000D03*
X467350000Y-27845000D03*
D26*
X468050000Y-27845000D03*
X468850000Y-27845000D03*
D19*
X409100000Y-72400000D03*
X414100000Y-74600000D03*
D28*
X548990106Y-148721878D03*
D29*
X549790968Y-159664198D03*
D30*
X547790972Y-159664198D03*
D29*
X543290346Y-159664198D03*
X541290350Y-159664198D03*
X539290354Y-159664198D03*
X537290358Y-159664198D03*
X535290362Y-159664198D03*
D30*
X533290366Y-159664198D03*
D19*
X511000000Y-122300000D03*
X516000000Y-124500000D03*
X349100000Y-80400000D03*
X354100000Y-82600000D03*
X483100000Y-163700000D03*
X478100000Y-161500000D03*
D20*
X630080000Y-179630000D03*
X335100000Y-34640000D03*
D19*
X571100000Y-106300000D03*
X576100000Y-108500000D03*
X546100000Y-72400000D03*
X551100000Y-74600000D03*
D16*
X391050000Y-33160000D03*
X397550000Y-33160000D03*
X391050000Y-37660000D03*
X397550000Y-37660000D03*
D19*
X379000000Y-70400000D03*
X384000000Y-72600000D03*
X439000000Y-86400000D03*
X444000000Y-88600000D03*
D20*
X630150000Y-34640000D03*
D16*
X400800000Y-33160000D03*
X407300000Y-33160000D03*
X400800000Y-37660000D03*
X407300000Y-37660000D03*
X381300000Y-33160000D03*
X387800000Y-33160000D03*
X381300000Y-37660000D03*
X387800000Y-37660000D03*
D19*
X604100000Y-111400000D03*
X609100000Y-113600000D03*
X516100000Y-86500000D03*
X521100000Y-88700000D03*
D20*
X455300000Y-116000000D03*
D19*
X576100000Y-70400000D03*
X581100000Y-72600000D03*
D16*
X410550000Y-33160000D03*
X417050000Y-33160000D03*
X410550000Y-37660000D03*
X417050000Y-37660000D03*
D19*
X541100000Y-108300000D03*
X546100000Y-110500000D03*
%LPD*%
M02*
