M48
; DRILL file {KiCad 7.0.5} date Mon Sep  4 11:49:15 2023
; FORMAT={-:-/ absolute / metric / decimal}
; #@! TF.CreationDate,2023-09-04T11:49:15-04:00
; #@! TF.GenerationSoftware,Kicad,Pcbnew,7.0.5
; #@! TF.FileFunction,Plated,1,2,PTH
FMAT,2
METRIC
; #@! TA.AperFunction,Plated,PTH,ViaDrill
T1C0.300
; #@! TA.AperFunction,Plated,PTH,ComponentDrill
T2C0.600
; #@! TA.AperFunction,Plated,PTH,ComponentDrill
T3C0.700
; #@! TA.AperFunction,Plated,PTH,ComponentDrill
T4C0.900
; #@! TA.AperFunction,Plated,PTH,ComponentDrill
T5C1.000
; #@! TA.AperFunction,Plated,PTH,ComponentDrill
T6C1.100
; #@! TA.AperFunction,Plated,PTH,ComponentDrill
T7C1.200
; #@! TA.AperFunction,Plated,PTH,ComponentDrill
T8C1.500
%
G90
G05
T1
X355.0Y-103.5
X396.25Y-51.0
X406.0Y-51.0
X460.0Y-134.75
X466.46Y-39.5
X468.0Y-41.0
X472.96Y-39.5
X501.0Y-143.25
X507.0Y-113.0
X507.25Y-152.5
X510.25Y-148.75
X511.5Y-146.5
X513.25Y-152.5
X533.25Y-147.5
X542.0Y-63.0
X559.5Y-126.25
X559.5Y-129.75
X569.75Y-97.75
X607.75Y-64.0
T3
X507.74Y-41.92
X507.74Y-44.42
X515.36Y-41.92
X515.36Y-44.42
T4
X614.004Y-158.01
X614.004Y-160.01
X614.004Y-162.01
X614.004Y-164.01
X614.004Y-166.01
X614.004Y-168.01
T5
X614.004Y-151.509
X614.004Y-153.509
T6
X360.45Y-41.97
X360.45Y-46.47
X366.95Y-41.97
X366.95Y-46.47
X370.2Y-41.97
X370.2Y-46.47
X376.7Y-41.97
X376.7Y-46.47
X379.95Y-41.97
X379.95Y-46.47
X386.45Y-41.97
X386.45Y-46.47
X389.7Y-41.97
X389.7Y-46.47
X396.2Y-41.97
X396.2Y-46.47
X399.45Y-41.97
X399.45Y-46.47
X405.95Y-41.97
X405.95Y-46.47
T7
X499.816Y-147.106
X502.356Y-147.106
X504.896Y-147.106
X507.436Y-147.106
X514.973Y-143.902
X516.973Y-143.902
X518.973Y-143.902
X520.973Y-143.902
X543.227Y-141.958
X543.227Y-144.498
X545.767Y-141.958
X545.767Y-144.498
X548.307Y-141.958
X548.307Y-144.498
X550.847Y-141.958
X550.847Y-144.498
X553.387Y-141.958
X553.387Y-144.498
X555.927Y-141.958
X555.927Y-144.498
X558.467Y-141.958
X558.467Y-144.494
X561.007Y-141.958
X561.007Y-144.508
X563.547Y-141.958
X563.547Y-144.498
X566.077Y-141.958
X566.077Y-144.498
X570.067Y-152.098
X570.067Y-154.638
X570.067Y-157.178
X570.067Y-159.718
X570.067Y-164.694
X570.067Y-166.722
X570.067Y-168.722
X570.067Y-170.722
X570.067Y-172.722
T8
X498.493Y-180.163
X501.993Y-180.163
X505.493Y-180.163
X508.993Y-180.163
X512.493Y-180.163
X515.993Y-180.163
X519.493Y-180.163
X522.993Y-180.163
X526.493Y-180.163
X529.993Y-180.163
X533.493Y-180.163
X536.993Y-180.163
X540.493Y-180.163
X543.993Y-180.163
X547.493Y-180.163
X550.993Y-180.163
X554.493Y-180.163
X557.993Y-180.163
X561.493Y-180.163
X565.083Y-180.163
T2
X465.39Y-33.27G85X465.39Y-32.67
G05
X465.39Y-37.7G85X465.39Y-36.6
G05
X474.03Y-33.27G85X474.03Y-32.67
G05
X474.03Y-37.7G85X474.03Y-36.6
G05
T0
M30
