M48
; DRILL file {KiCad 7.0.5} date Mon Sep  4 11:49:15 2023
; FORMAT={-:-/ absolute / metric / decimal}
; #@! TF.CreationDate,2023-09-04T11:49:15-04:00
; #@! TF.GenerationSoftware,Kicad,Pcbnew,7.0.5
; #@! TF.FileFunction,NonPlated,1,2,NPTH
FMAT,2
METRIC
; #@! TA.AperFunction,NonPlated,NPTH,ComponentDrill
T1C0.650
; #@! TA.AperFunction,NonPlated,NPTH,ComponentDrill
T2C1.700
; #@! TA.AperFunction,NonPlated,NPTH,ComponentDrill
T3C1.750
; #@! TA.AperFunction,NonPlated,NPTH,ComponentDrill
T4C3.000
; #@! TA.AperFunction,NonPlated,NPTH,ComponentDrill
T5C3.988
; #@! TA.AperFunction,NonPlated,NPTH,ComponentDrill
T6C6.400
%
G90
G05
T1
X466.82Y-36.62
X472.6Y-36.62
T2
X603.062Y-152.31
T3
X335.76Y-101.74
X345.92Y-101.74
X365.69Y-77.52
X375.85Y-77.52
X395.71Y-77.56
X405.87Y-77.56
X421.66Y-93.53
X431.82Y-93.53
X436.74Y-157.54
X446.9Y-157.54
X493.24Y-115.54
X498.21Y-79.52
X503.4Y-115.54
X508.37Y-79.52
X523.21Y-101.57
X528.23Y-65.48
X533.37Y-101.57
X538.39Y-65.48
X556.2Y-99.52
X561.22Y-63.52
X566.36Y-99.52
X571.38Y-63.52
X592.24Y-104.53
X594.19Y-66.51
X602.4Y-104.53
X604.35Y-66.51
T4
X337.03Y-99.2
X343.38Y-96.66
X366.96Y-74.98
X373.31Y-72.44
X396.98Y-75.02
X403.33Y-72.48
X422.93Y-90.99
X429.28Y-88.45
X438.01Y-155.0
X444.36Y-152.46
X494.51Y-113.0
X499.48Y-76.98
X500.86Y-110.46
X505.83Y-74.44
X524.48Y-99.03
X529.5Y-62.94
X530.83Y-96.49
X535.85Y-60.4
X557.47Y-96.98
X562.49Y-60.98
X563.82Y-94.44
X568.84Y-58.44
X593.51Y-101.99
X595.46Y-63.97
X599.86Y-99.45
X601.81Y-61.43
T5
X340.84Y-101.74
X370.77Y-77.52
X400.79Y-77.56
X426.74Y-93.53
X441.82Y-157.54
X498.32Y-115.54
X503.29Y-79.52
X528.29Y-101.57
X533.31Y-65.48
X561.28Y-99.52
X566.3Y-63.52
X597.32Y-104.53
X599.27Y-66.51
T6
X327.75Y-192.24
X327.76Y-42.54
X436.62Y-55.74
X440.83Y-123.28
X465.57Y-192.26
X544.64Y-84.51
X627.41Y-42.55
X627.44Y-192.27
T0
M30
